<svg xmlns="http://www.w3.org/2000/svg" xmlns:xlink="http://www.w3.org/1999/xlink" width="370" zoomAndPan="magnify" viewBox="0 0 277.5 119.999999" height="160" preserveAspectRatio="xMidYMid meet" version="1.0"><defs><clipPath id="7b497814a9"><path d="M 269 0.109375 L 277 0.109375 L 277 8 L 269 8 Z M 269 0.109375 " clip-rule="nonzero"/></clipPath><clipPath id="71047d492f"><path d="M 247 0.109375 L 255 0.109375 L 255 8 L 247 8 Z M 247 0.109375 " clip-rule="nonzero"/></clipPath><clipPath id="f33f709994"><path d="M 224 0.109375 L 233 0.109375 L 233 8 L 224 8 Z M 224 0.109375 " clip-rule="nonzero"/></clipPath><clipPath id="dac0f27315"><path d="M 202 0.109375 L 210 0.109375 L 210 8 L 202 8 Z M 202 0.109375 " clip-rule="nonzero"/></clipPath><clipPath id="d01ebbe7e3"><path d="M 179 0.109375 L 188 0.109375 L 188 8 L 179 8 Z M 179 0.109375 " clip-rule="nonzero"/></clipPath><clipPath id="2cffebe02e"><path d="M 157 0.109375 L 165 0.109375 L 165 8 L 157 8 Z M 157 0.109375 " clip-rule="nonzero"/></clipPath><clipPath id="db4ccece5a"><path d="M 135 0.109375 L 143 0.109375 L 143 8 L 135 8 Z M 135 0.109375 " clip-rule="nonzero"/></clipPath><clipPath id="a452807a84"><path d="M 112 0.109375 L 121 0.109375 L 121 8 L 112 8 Z M 112 0.109375 " clip-rule="nonzero"/></clipPath><clipPath id="b2a5fd4ef6"><path d="M 90 0.109375 L 98 0.109375 L 98 8 L 90 8 Z M 90 0.109375 " clip-rule="nonzero"/></clipPath><clipPath id="1f8861cb1a"><path d="M 67 0.109375 L 76 0.109375 L 76 8 L 67 8 Z M 67 0.109375 " clip-rule="nonzero"/></clipPath><clipPath id="1b16a0a8b0"><path d="M 45 0.109375 L 53 0.109375 L 53 8 L 45 8 Z M 45 0.109375 " clip-rule="nonzero"/></clipPath><clipPath id="079a46d88f"><path d="M 22 0.109375 L 31 0.109375 L 31 8 L 22 8 Z M 22 0.109375 " clip-rule="nonzero"/></clipPath><clipPath id="89f0e9be03"><path d="M 0 0.109375 L 8 0.109375 L 8 8 L 0 8 Z M 0 0.109375 " clip-rule="nonzero"/></clipPath><clipPath id="adcc585560"><path d="M 269 111 L 277 111 L 277 119.359375 L 269 119.359375 Z M 269 111 " clip-rule="nonzero"/></clipPath><clipPath id="f7192297ca"><path d="M 247 111 L 255 111 L 255 119.359375 L 247 119.359375 Z M 247 111 " clip-rule="nonzero"/></clipPath><clipPath id="f60051cde8"><path d="M 224 111 L 233 111 L 233 119.359375 L 224 119.359375 Z M 224 111 " clip-rule="nonzero"/></clipPath><clipPath id="2db241dc60"><path d="M 202 111 L 210 111 L 210 119.359375 L 202 119.359375 Z M 202 111 " clip-rule="nonzero"/></clipPath><clipPath id="d40cd3a66f"><path d="M 179 111 L 188 111 L 188 119.359375 L 179 119.359375 Z M 179 111 " clip-rule="nonzero"/></clipPath><clipPath id="6b4dc14dc7"><path d="M 157 111 L 165 111 L 165 119.359375 L 157 119.359375 Z M 157 111 " clip-rule="nonzero"/></clipPath><clipPath id="f470c2d081"><path d="M 135 111 L 143 111 L 143 119.359375 L 135 119.359375 Z M 135 111 " clip-rule="nonzero"/></clipPath><clipPath id="5bd94d763d"><path d="M 112 111 L 121 111 L 121 119.359375 L 112 119.359375 Z M 112 111 " clip-rule="nonzero"/></clipPath><clipPath id="740963588b"><path d="M 90 111 L 98 111 L 98 119.359375 L 90 119.359375 Z M 90 111 " clip-rule="nonzero"/></clipPath><clipPath id="738186015e"><path d="M 67 111 L 76 111 L 76 119.359375 L 67 119.359375 Z M 67 111 " clip-rule="nonzero"/></clipPath><clipPath id="c6da664444"><path d="M 45 111 L 53 111 L 53 119.359375 L 45 119.359375 Z M 45 111 " clip-rule="nonzero"/></clipPath><clipPath id="d9c736bc38"><path d="M 22 111 L 31 111 L 31 119.359375 L 22 119.359375 Z M 22 111 " clip-rule="nonzero"/></clipPath><clipPath id="606628ba84"><path d="M 0 111 L 8 111 L 8 119.359375 L 0 119.359375 Z M 0 111 " clip-rule="nonzero"/></clipPath></defs><g clip-path="url(#7b497814a9)"><path fill="#8c52ff" d="M 269.527344 3.835938 C 269.527344 4.328125 269.621094 4.804688 269.808594 5.261719 C 270 5.71875 270.269531 6.121094 270.621094 6.46875 C 270.96875 6.820312 271.375 7.089844 271.832031 7.277344 C 272.289062 7.464844 272.765625 7.5625 273.261719 7.5625 C 273.757812 7.5625 274.234375 7.464844 274.691406 7.277344 C 275.148438 7.089844 275.554688 6.820312 275.902344 6.46875 C 276.253906 6.121094 276.523438 5.71875 276.714844 5.261719 C 276.902344 4.804688 277 4.328125 277 3.835938 C 277 3.339844 276.902344 2.863281 276.714844 2.410156 C 276.523438 1.953125 276.253906 1.550781 275.902344 1.199219 C 275.554688 0.851562 275.148438 0.582031 274.691406 0.390625 C 274.234375 0.203125 273.757812 0.109375 273.261719 0.109375 C 272.765625 0.109375 272.289062 0.203125 271.832031 0.390625 C 271.375 0.582031 270.96875 0.851562 270.621094 1.199219 C 270.269531 1.550781 270 1.953125 269.808594 2.410156 C 269.621094 2.863281 269.527344 3.339844 269.527344 3.835938 Z M 269.527344 3.835938 " fill-opacity="1" fill-rule="nonzero"/></g><g clip-path="url(#71047d492f)"><path fill="#8c52ff" d="M 247.105469 3.835938 C 247.105469 4.328125 247.203125 4.804688 247.390625 5.261719 C 247.582031 5.71875 247.851562 6.121094 248.203125 6.46875 C 248.550781 6.820312 248.957031 7.089844 249.414062 7.277344 C 249.871094 7.464844 250.347656 7.5625 250.84375 7.5625 C 251.339844 7.5625 251.816406 7.464844 252.273438 7.277344 C 252.730469 7.089844 253.136719 6.820312 253.484375 6.46875 C 253.835938 6.121094 254.105469 5.71875 254.296875 5.261719 C 254.484375 4.804688 254.578125 4.328125 254.578125 3.835938 C 254.578125 3.339844 254.484375 2.863281 254.296875 2.410156 C 254.105469 1.953125 253.835938 1.550781 253.484375 1.199219 C 253.136719 0.851562 252.730469 0.582031 252.273438 0.390625 C 251.816406 0.203125 251.339844 0.109375 250.84375 0.109375 C 250.347656 0.109375 249.871094 0.203125 249.414062 0.390625 C 248.957031 0.582031 248.550781 0.851562 248.203125 1.199219 C 247.851562 1.550781 247.582031 1.953125 247.390625 2.410156 C 247.203125 2.863281 247.105469 3.339844 247.105469 3.835938 Z M 247.105469 3.835938 " fill-opacity="1" fill-rule="nonzero"/></g><g clip-path="url(#f33f709994)"><path fill="#8c52ff" d="M 224.6875 3.835938 C 224.6875 4.328125 224.78125 4.804688 224.972656 5.261719 C 225.164062 5.71875 225.433594 6.121094 225.78125 6.46875 C 226.132812 6.820312 226.539062 7.089844 226.996094 7.277344 C 227.453125 7.464844 227.929688 7.5625 228.425781 7.5625 C 228.921875 7.5625 229.398438 7.464844 229.855469 7.277344 C 230.3125 7.089844 230.714844 6.820312 231.066406 6.46875 C 231.417969 6.121094 231.6875 5.71875 231.875 5.261719 C 232.066406 4.804688 232.160156 4.328125 232.160156 3.835938 C 232.160156 3.339844 232.066406 2.863281 231.875 2.410156 C 231.6875 1.953125 231.417969 1.550781 231.066406 1.199219 C 230.714844 0.851562 230.3125 0.582031 229.855469 0.390625 C 229.398438 0.203125 228.921875 0.109375 228.425781 0.109375 C 227.929688 0.109375 227.453125 0.203125 226.996094 0.390625 C 226.539062 0.582031 226.132812 0.851562 225.78125 1.199219 C 225.433594 1.550781 225.164062 1.953125 224.972656 2.410156 C 224.78125 2.863281 224.6875 3.339844 224.6875 3.835938 Z M 224.6875 3.835938 " fill-opacity="1" fill-rule="nonzero"/></g><g clip-path="url(#dac0f27315)"><path fill="#8c52ff" d="M 202.269531 3.835938 C 202.269531 4.328125 202.363281 4.804688 202.554688 5.261719 C 202.742188 5.71875 203.011719 6.121094 203.363281 6.46875 C 203.714844 6.820312 204.117188 7.089844 204.578125 7.277344 C 205.035156 7.464844 205.511719 7.5625 206.007812 7.5625 C 206.5 7.5625 206.976562 7.464844 207.4375 7.277344 C 207.894531 7.089844 208.296875 6.820312 208.648438 6.46875 C 209 6.121094 209.269531 5.71875 209.457031 5.261719 C 209.648438 4.804688 209.742188 4.328125 209.742188 3.835938 C 209.742188 3.339844 209.648438 2.863281 209.457031 2.410156 C 209.269531 1.953125 209 1.550781 208.648438 1.199219 C 208.296875 0.851562 207.894531 0.582031 207.4375 0.390625 C 206.976562 0.203125 206.5 0.109375 206.007812 0.109375 C 205.511719 0.109375 205.035156 0.203125 204.578125 0.390625 C 204.117188 0.582031 203.714844 0.851562 203.363281 1.199219 C 203.011719 1.550781 202.742188 1.953125 202.554688 2.410156 C 202.363281 2.863281 202.269531 3.339844 202.269531 3.835938 Z M 202.269531 3.835938 " fill-opacity="1" fill-rule="nonzero"/></g><g clip-path="url(#d01ebbe7e3)"><path fill="#8c52ff" d="M 179.851562 3.835938 C 179.851562 4.328125 179.945312 4.804688 180.136719 5.261719 C 180.324219 5.71875 180.59375 6.121094 180.945312 6.46875 C 181.296875 6.820312 181.699219 7.089844 182.15625 7.277344 C 182.617188 7.464844 183.09375 7.5625 183.585938 7.5625 C 184.082031 7.5625 184.558594 7.464844 185.015625 7.277344 C 185.476562 7.089844 185.878906 6.820312 186.230469 6.46875 C 186.578125 6.121094 186.851562 5.71875 187.039062 5.261719 C 187.230469 4.804688 187.324219 4.328125 187.324219 3.835938 C 187.324219 3.339844 187.230469 2.863281 187.039062 2.410156 C 186.851562 1.953125 186.578125 1.550781 186.230469 1.199219 C 185.878906 0.851562 185.476562 0.582031 185.015625 0.390625 C 184.558594 0.203125 184.082031 0.109375 183.585938 0.109375 C 183.09375 0.109375 182.617188 0.203125 182.15625 0.390625 C 181.699219 0.582031 181.296875 0.851562 180.945312 1.199219 C 180.59375 1.550781 180.324219 1.953125 180.136719 2.410156 C 179.945312 2.863281 179.851562 3.339844 179.851562 3.835938 Z M 179.851562 3.835938 " fill-opacity="1" fill-rule="nonzero"/></g><g clip-path="url(#2cffebe02e)"><path fill="#8c52ff" d="M 157.433594 3.835938 C 157.433594 4.328125 157.527344 4.804688 157.714844 5.261719 C 157.90625 5.71875 158.175781 6.121094 158.527344 6.46875 C 158.878906 6.820312 159.28125 7.089844 159.738281 7.277344 C 160.195312 7.464844 160.671875 7.5625 161.167969 7.5625 C 161.664062 7.5625 162.140625 7.464844 162.597656 7.277344 C 163.054688 7.089844 163.460938 6.820312 163.8125 6.46875 C 164.160156 6.121094 164.429688 5.71875 164.621094 5.261719 C 164.808594 4.804688 164.90625 4.328125 164.90625 3.835938 C 164.90625 3.339844 164.808594 2.863281 164.621094 2.410156 C 164.429688 1.953125 164.160156 1.550781 163.8125 1.199219 C 163.460938 0.851562 163.054688 0.582031 162.597656 0.390625 C 162.140625 0.203125 161.664062 0.109375 161.167969 0.109375 C 160.671875 0.109375 160.195312 0.203125 159.738281 0.390625 C 159.28125 0.582031 158.878906 0.851562 158.527344 1.199219 C 158.175781 1.550781 157.90625 1.953125 157.714844 2.410156 C 157.527344 2.863281 157.433594 3.339844 157.433594 3.835938 Z M 157.433594 3.835938 " fill-opacity="1" fill-rule="nonzero"/></g><g clip-path="url(#db4ccece5a)"><path fill="#8c52ff" d="M 135.011719 3.835938 C 135.011719 4.328125 135.109375 4.804688 135.296875 5.261719 C 135.488281 5.71875 135.757812 6.121094 136.109375 6.46875 C 136.457031 6.820312 136.863281 7.089844 137.320312 7.277344 C 137.777344 7.464844 138.253906 7.5625 138.75 7.5625 C 139.246094 7.5625 139.722656 7.464844 140.179688 7.277344 C 140.636719 7.089844 141.042969 6.820312 141.390625 6.46875 C 141.742188 6.121094 142.011719 5.71875 142.203125 5.261719 C 142.390625 4.804688 142.488281 4.328125 142.488281 3.835938 C 142.488281 3.339844 142.390625 2.863281 142.203125 2.410156 C 142.011719 1.953125 141.742188 1.550781 141.390625 1.199219 C 141.042969 0.851562 140.636719 0.582031 140.179688 0.390625 C 139.722656 0.203125 139.246094 0.109375 138.75 0.109375 C 138.253906 0.109375 137.777344 0.203125 137.320312 0.390625 C 136.863281 0.582031 136.457031 0.851562 136.109375 1.199219 C 135.757812 1.550781 135.488281 1.953125 135.296875 2.410156 C 135.109375 2.863281 135.011719 3.339844 135.011719 3.835938 Z M 135.011719 3.835938 " fill-opacity="1" fill-rule="nonzero"/></g><g clip-path="url(#a452807a84)"><path fill="#8c52ff" d="M 112.59375 3.835938 C 112.59375 4.328125 112.691406 4.804688 112.878906 5.261719 C 113.070312 5.71875 113.339844 6.121094 113.6875 6.46875 C 114.039062 6.820312 114.445312 7.089844 114.902344 7.277344 C 115.359375 7.464844 115.835938 7.5625 116.332031 7.5625 C 116.828125 7.5625 117.304688 7.464844 117.761719 7.277344 C 118.21875 7.089844 118.621094 6.820312 118.972656 6.46875 C 119.324219 6.121094 119.59375 5.71875 119.785156 5.261719 C 119.972656 4.804688 120.066406 4.328125 120.066406 3.835938 C 120.066406 3.339844 119.972656 2.863281 119.785156 2.410156 C 119.59375 1.953125 119.324219 1.550781 118.972656 1.199219 C 118.621094 0.851562 118.21875 0.582031 117.761719 0.390625 C 117.304688 0.203125 116.828125 0.109375 116.332031 0.109375 C 115.835938 0.109375 115.359375 0.203125 114.902344 0.390625 C 114.445312 0.582031 114.039062 0.851562 113.6875 1.199219 C 113.339844 1.550781 113.070312 1.953125 112.878906 2.410156 C 112.691406 2.863281 112.59375 3.339844 112.59375 3.835938 Z M 112.59375 3.835938 " fill-opacity="1" fill-rule="nonzero"/></g><g clip-path="url(#b2a5fd4ef6)"><path fill="#8c52ff" d="M 90.175781 3.835938 C 90.175781 4.328125 90.269531 4.804688 90.460938 5.261719 C 90.648438 5.71875 90.921875 6.121094 91.269531 6.46875 C 91.621094 6.820312 92.023438 7.089844 92.484375 7.277344 C 92.941406 7.464844 93.417969 7.5625 93.914062 7.5625 C 94.40625 7.5625 94.882812 7.464844 95.34375 7.277344 C 95.800781 7.089844 96.203125 6.820312 96.554688 6.46875 C 96.90625 6.121094 97.175781 5.71875 97.363281 5.261719 C 97.554688 4.804688 97.648438 4.328125 97.648438 3.835938 C 97.648438 3.339844 97.554688 2.863281 97.363281 2.410156 C 97.175781 1.953125 96.90625 1.550781 96.554688 1.199219 C 96.203125 0.851562 95.800781 0.582031 95.34375 0.390625 C 94.882812 0.203125 94.40625 0.109375 93.914062 0.109375 C 93.417969 0.109375 92.941406 0.203125 92.484375 0.390625 C 92.023438 0.582031 91.621094 0.851562 91.269531 1.199219 C 90.921875 1.550781 90.648438 1.953125 90.460938 2.410156 C 90.269531 2.863281 90.175781 3.339844 90.175781 3.835938 Z M 90.175781 3.835938 " fill-opacity="1" fill-rule="nonzero"/></g><g clip-path="url(#1f8861cb1a)"><path fill="#8c52ff" d="M 67.757812 3.835938 C 67.757812 4.328125 67.851562 4.804688 68.042969 5.261719 C 68.230469 5.71875 68.5 6.121094 68.851562 6.46875 C 69.203125 6.820312 69.605469 7.089844 70.0625 7.277344 C 70.523438 7.464844 71 7.5625 71.492188 7.5625 C 71.988281 7.5625 72.464844 7.464844 72.921875 7.277344 C 73.382812 7.089844 73.785156 6.820312 74.136719 6.46875 C 74.488281 6.121094 74.757812 5.71875 74.945312 5.261719 C 75.136719 4.804688 75.230469 4.328125 75.230469 3.835938 C 75.230469 3.339844 75.136719 2.863281 74.945312 2.410156 C 74.757812 1.953125 74.488281 1.550781 74.136719 1.199219 C 73.785156 0.851562 73.382812 0.582031 72.921875 0.390625 C 72.464844 0.203125 71.988281 0.109375 71.492188 0.109375 C 71 0.109375 70.523438 0.203125 70.0625 0.390625 C 69.605469 0.582031 69.203125 0.851562 68.851562 1.199219 C 68.5 1.550781 68.230469 1.953125 68.042969 2.410156 C 67.851562 2.863281 67.757812 3.339844 67.757812 3.835938 Z M 67.757812 3.835938 " fill-opacity="1" fill-rule="nonzero"/></g><g clip-path="url(#1b16a0a8b0)"><path fill="#8c52ff" d="M 45.339844 3.835938 C 45.339844 4.328125 45.433594 4.804688 45.625 5.261719 C 45.8125 5.71875 46.082031 6.121094 46.433594 6.46875 C 46.785156 6.820312 47.1875 7.089844 47.644531 7.277344 C 48.101562 7.464844 48.578125 7.5625 49.074219 7.5625 C 49.570312 7.5625 50.046875 7.464844 50.503906 7.277344 C 50.960938 7.089844 51.367188 6.820312 51.71875 6.46875 C 52.066406 6.121094 52.335938 5.71875 52.527344 5.261719 C 52.71875 4.804688 52.8125 4.328125 52.8125 3.835938 C 52.8125 3.339844 52.71875 2.863281 52.527344 2.410156 C 52.335938 1.953125 52.066406 1.550781 51.71875 1.199219 C 51.367188 0.851562 50.960938 0.582031 50.503906 0.390625 C 50.046875 0.203125 49.570312 0.109375 49.074219 0.109375 C 48.578125 0.109375 48.101562 0.203125 47.644531 0.390625 C 47.1875 0.582031 46.785156 0.851562 46.433594 1.199219 C 46.082031 1.550781 45.8125 1.953125 45.625 2.410156 C 45.433594 2.863281 45.339844 3.339844 45.339844 3.835938 Z M 45.339844 3.835938 " fill-opacity="1" fill-rule="nonzero"/></g><g clip-path="url(#079a46d88f)"><path fill="#8c52ff" d="M 22.921875 3.835938 C 22.921875 4.328125 23.015625 4.804688 23.203125 5.261719 C 23.394531 5.71875 23.664062 6.121094 24.015625 6.46875 C 24.363281 6.820312 24.769531 7.089844 25.226562 7.277344 C 25.683594 7.464844 26.160156 7.5625 26.65625 7.5625 C 27.152344 7.5625 27.628906 7.464844 28.085938 7.277344 C 28.542969 7.089844 28.949219 6.820312 29.296875 6.46875 C 29.648438 6.121094 29.917969 5.71875 30.109375 5.261719 C 30.296875 4.804688 30.394531 4.328125 30.394531 3.835938 C 30.394531 3.339844 30.296875 2.863281 30.109375 2.410156 C 29.917969 1.953125 29.648438 1.550781 29.296875 1.199219 C 28.949219 0.851562 28.542969 0.582031 28.085938 0.390625 C 27.628906 0.203125 27.152344 0.109375 26.65625 0.109375 C 26.160156 0.109375 25.683594 0.203125 25.226562 0.390625 C 24.769531 0.582031 24.363281 0.851562 24.015625 1.199219 C 23.664062 1.550781 23.394531 1.953125 23.203125 2.410156 C 23.015625 2.863281 22.921875 3.339844 22.921875 3.835938 Z M 22.921875 3.835938 " fill-opacity="1" fill-rule="nonzero"/></g><g clip-path="url(#89f0e9be03)"><path fill="#8c52ff" d="M 0.5 3.835938 C 0.5 4.328125 0.597656 4.804688 0.785156 5.261719 C 0.976562 5.71875 1.246094 6.121094 1.597656 6.46875 C 1.945312 6.820312 2.351562 7.089844 2.808594 7.277344 C 3.265625 7.464844 3.742188 7.5625 4.238281 7.5625 C 4.734375 7.5625 5.210938 7.464844 5.667969 7.277344 C 6.125 7.089844 6.53125 6.820312 6.878906 6.46875 C 7.230469 6.121094 7.5 5.71875 7.691406 5.261719 C 7.878906 4.804688 7.972656 4.328125 7.972656 3.835938 C 7.972656 3.339844 7.878906 2.863281 7.691406 2.410156 C 7.5 1.953125 7.230469 1.550781 6.878906 1.199219 C 6.53125 0.851562 6.125 0.582031 5.667969 0.390625 C 5.210938 0.203125 4.734375 0.109375 4.238281 0.109375 C 3.742188 0.109375 3.265625 0.203125 2.808594 0.390625 C 2.351562 0.582031 1.945312 0.851562 1.597656 1.199219 C 1.246094 1.550781 0.976562 1.953125 0.785156 2.410156 C 0.597656 2.863281 0.5 3.339844 0.5 3.835938 Z M 0.5 3.835938 " fill-opacity="1" fill-rule="nonzero"/></g><path fill="#8c52ff" d="M 269.527344 26.195312 C 269.527344 26.6875 269.621094 27.164062 269.808594 27.621094 C 270 28.078125 270.269531 28.480469 270.621094 28.828125 C 270.96875 29.179688 271.375 29.449219 271.832031 29.636719 C 272.289062 29.824219 272.765625 29.921875 273.261719 29.921875 C 273.757812 29.921875 274.234375 29.824219 274.691406 29.636719 C 275.148438 29.449219 275.554688 29.179688 275.902344 28.828125 C 276.253906 28.480469 276.523438 28.078125 276.714844 27.621094 C 276.902344 27.164062 277 26.6875 277 26.195312 C 277 25.699219 276.902344 25.222656 276.714844 24.769531 C 276.523438 24.3125 276.253906 23.910156 275.902344 23.558594 C 275.554688 23.210938 275.148438 22.941406 274.691406 22.75 C 274.234375 22.5625 273.757812 22.46875 273.261719 22.46875 C 272.765625 22.46875 272.289062 22.5625 271.832031 22.75 C 271.375 22.941406 270.96875 23.210938 270.621094 23.558594 C 270.269531 23.910156 270 24.3125 269.808594 24.769531 C 269.621094 25.222656 269.527344 25.699219 269.527344 26.195312 Z M 269.527344 26.195312 " fill-opacity="1" fill-rule="nonzero"/><path fill="#8c52ff" d="M 247.105469 26.195312 C 247.105469 26.6875 247.203125 27.164062 247.390625 27.621094 C 247.582031 28.078125 247.851562 28.480469 248.203125 28.828125 C 248.550781 29.179688 248.957031 29.449219 249.414062 29.636719 C 249.871094 29.824219 250.347656 29.921875 250.84375 29.921875 C 251.339844 29.921875 251.816406 29.824219 252.273438 29.636719 C 252.730469 29.449219 253.136719 29.179688 253.484375 28.828125 C 253.835938 28.480469 254.105469 28.078125 254.296875 27.621094 C 254.484375 27.164062 254.578125 26.6875 254.578125 26.195312 C 254.578125 25.699219 254.484375 25.222656 254.296875 24.769531 C 254.105469 24.3125 253.835938 23.910156 253.484375 23.558594 C 253.136719 23.210938 252.730469 22.941406 252.273438 22.75 C 251.816406 22.5625 251.339844 22.46875 250.84375 22.46875 C 250.347656 22.46875 249.871094 22.5625 249.414062 22.75 C 248.957031 22.941406 248.550781 23.210938 248.203125 23.558594 C 247.851562 23.910156 247.582031 24.3125 247.390625 24.769531 C 247.203125 25.222656 247.105469 25.699219 247.105469 26.195312 Z M 247.105469 26.195312 " fill-opacity="1" fill-rule="nonzero"/><path fill="#8c52ff" d="M 224.6875 26.195312 C 224.6875 26.6875 224.78125 27.164062 224.972656 27.621094 C 225.164062 28.078125 225.433594 28.480469 225.78125 28.828125 C 226.132812 29.179688 226.539062 29.449219 226.996094 29.636719 C 227.453125 29.824219 227.929688 29.921875 228.425781 29.921875 C 228.921875 29.921875 229.398438 29.824219 229.855469 29.636719 C 230.3125 29.449219 230.714844 29.179688 231.066406 28.828125 C 231.417969 28.480469 231.6875 28.078125 231.875 27.621094 C 232.066406 27.164062 232.160156 26.6875 232.160156 26.195312 C 232.160156 25.699219 232.066406 25.222656 231.875 24.769531 C 231.6875 24.3125 231.417969 23.910156 231.066406 23.558594 C 230.714844 23.210938 230.3125 22.941406 229.855469 22.75 C 229.398438 22.5625 228.921875 22.46875 228.425781 22.46875 C 227.929688 22.46875 227.453125 22.5625 226.996094 22.75 C 226.539062 22.941406 226.132812 23.210938 225.78125 23.558594 C 225.433594 23.910156 225.164062 24.3125 224.972656 24.769531 C 224.78125 25.222656 224.6875 25.699219 224.6875 26.195312 Z M 224.6875 26.195312 " fill-opacity="1" fill-rule="nonzero"/><path fill="#8c52ff" d="M 202.269531 26.195312 C 202.269531 26.6875 202.363281 27.164062 202.554688 27.621094 C 202.742188 28.078125 203.011719 28.480469 203.363281 28.828125 C 203.714844 29.179688 204.117188 29.449219 204.578125 29.636719 C 205.035156 29.824219 205.511719 29.921875 206.007812 29.921875 C 206.5 29.921875 206.976562 29.824219 207.4375 29.636719 C 207.894531 29.449219 208.296875 29.179688 208.648438 28.828125 C 209 28.480469 209.269531 28.078125 209.457031 27.621094 C 209.648438 27.164062 209.742188 26.6875 209.742188 26.195312 C 209.742188 25.699219 209.648438 25.222656 209.457031 24.769531 C 209.269531 24.3125 209 23.910156 208.648438 23.558594 C 208.296875 23.210938 207.894531 22.941406 207.4375 22.75 C 206.976562 22.5625 206.5 22.46875 206.007812 22.46875 C 205.511719 22.46875 205.035156 22.5625 204.578125 22.75 C 204.117188 22.941406 203.714844 23.210938 203.363281 23.558594 C 203.011719 23.910156 202.742188 24.3125 202.554688 24.769531 C 202.363281 25.222656 202.269531 25.699219 202.269531 26.195312 Z M 202.269531 26.195312 " fill-opacity="1" fill-rule="nonzero"/><path fill="#8c52ff" d="M 179.851562 26.195312 C 179.851562 26.6875 179.945312 27.164062 180.136719 27.621094 C 180.324219 28.078125 180.59375 28.480469 180.945312 28.828125 C 181.296875 29.179688 181.699219 29.449219 182.15625 29.636719 C 182.617188 29.824219 183.09375 29.921875 183.585938 29.921875 C 184.082031 29.921875 184.558594 29.824219 185.015625 29.636719 C 185.476562 29.449219 185.878906 29.179688 186.230469 28.828125 C 186.578125 28.480469 186.851562 28.078125 187.039062 27.621094 C 187.230469 27.164062 187.324219 26.6875 187.324219 26.195312 C 187.324219 25.699219 187.230469 25.222656 187.039062 24.769531 C 186.851562 24.3125 186.578125 23.910156 186.230469 23.558594 C 185.878906 23.210938 185.476562 22.941406 185.015625 22.75 C 184.558594 22.5625 184.082031 22.46875 183.585938 22.46875 C 183.09375 22.46875 182.617188 22.5625 182.15625 22.75 C 181.699219 22.941406 181.296875 23.210938 180.945312 23.558594 C 180.59375 23.910156 180.324219 24.3125 180.136719 24.769531 C 179.945312 25.222656 179.851562 25.699219 179.851562 26.195312 Z M 179.851562 26.195312 " fill-opacity="1" fill-rule="nonzero"/><path fill="#8c52ff" d="M 157.433594 26.195312 C 157.433594 26.6875 157.527344 27.164062 157.714844 27.621094 C 157.90625 28.078125 158.175781 28.480469 158.527344 28.828125 C 158.878906 29.179688 159.28125 29.449219 159.738281 29.636719 C 160.195312 29.824219 160.671875 29.921875 161.167969 29.921875 C 161.664062 29.921875 162.140625 29.824219 162.597656 29.636719 C 163.054688 29.449219 163.460938 29.179688 163.8125 28.828125 C 164.160156 28.480469 164.429688 28.078125 164.621094 27.621094 C 164.808594 27.164062 164.90625 26.6875 164.90625 26.195312 C 164.90625 25.699219 164.808594 25.222656 164.621094 24.769531 C 164.429688 24.3125 164.160156 23.910156 163.8125 23.558594 C 163.460938 23.210938 163.054688 22.941406 162.597656 22.75 C 162.140625 22.5625 161.664062 22.46875 161.167969 22.46875 C 160.671875 22.46875 160.195312 22.5625 159.738281 22.75 C 159.28125 22.941406 158.878906 23.210938 158.527344 23.558594 C 158.175781 23.910156 157.90625 24.3125 157.714844 24.769531 C 157.527344 25.222656 157.433594 25.699219 157.433594 26.195312 Z M 157.433594 26.195312 " fill-opacity="1" fill-rule="nonzero"/><path fill="#8c52ff" d="M 135.011719 26.195312 C 135.011719 26.6875 135.109375 27.164062 135.296875 27.621094 C 135.488281 28.078125 135.757812 28.480469 136.109375 28.828125 C 136.457031 29.179688 136.863281 29.449219 137.320312 29.636719 C 137.777344 29.824219 138.253906 29.921875 138.75 29.921875 C 139.246094 29.921875 139.722656 29.824219 140.179688 29.636719 C 140.636719 29.449219 141.042969 29.179688 141.390625 28.828125 C 141.742188 28.480469 142.011719 28.078125 142.203125 27.621094 C 142.390625 27.164062 142.488281 26.6875 142.488281 26.195312 C 142.488281 25.699219 142.390625 25.222656 142.203125 24.769531 C 142.011719 24.3125 141.742188 23.910156 141.390625 23.558594 C 141.042969 23.210938 140.636719 22.941406 140.179688 22.75 C 139.722656 22.5625 139.246094 22.46875 138.75 22.46875 C 138.253906 22.46875 137.777344 22.5625 137.320312 22.75 C 136.863281 22.941406 136.457031 23.210938 136.109375 23.558594 C 135.757812 23.910156 135.488281 24.3125 135.296875 24.769531 C 135.109375 25.222656 135.011719 25.699219 135.011719 26.195312 Z M 135.011719 26.195312 " fill-opacity="1" fill-rule="nonzero"/><path fill="#8c52ff" d="M 112.59375 26.195312 C 112.59375 26.6875 112.691406 27.164062 112.878906 27.621094 C 113.070312 28.078125 113.339844 28.480469 113.6875 28.828125 C 114.039062 29.179688 114.445312 29.449219 114.902344 29.636719 C 115.359375 29.824219 115.835938 29.921875 116.332031 29.921875 C 116.828125 29.921875 117.304688 29.824219 117.761719 29.636719 C 118.21875 29.449219 118.621094 29.179688 118.972656 28.828125 C 119.324219 28.480469 119.59375 28.078125 119.785156 27.621094 C 119.972656 27.164062 120.066406 26.6875 120.066406 26.195312 C 120.066406 25.699219 119.972656 25.222656 119.785156 24.769531 C 119.59375 24.3125 119.324219 23.910156 118.972656 23.558594 C 118.621094 23.210938 118.21875 22.941406 117.761719 22.75 C 117.304688 22.5625 116.828125 22.46875 116.332031 22.46875 C 115.835938 22.46875 115.359375 22.5625 114.902344 22.75 C 114.445312 22.941406 114.039062 23.210938 113.6875 23.558594 C 113.339844 23.910156 113.070312 24.3125 112.878906 24.769531 C 112.691406 25.222656 112.59375 25.699219 112.59375 26.195312 Z M 112.59375 26.195312 " fill-opacity="1" fill-rule="nonzero"/><path fill="#8c52ff" d="M 90.175781 26.195312 C 90.175781 26.6875 90.269531 27.164062 90.460938 27.621094 C 90.648438 28.078125 90.921875 28.480469 91.269531 28.828125 C 91.621094 29.179688 92.023438 29.449219 92.484375 29.636719 C 92.941406 29.824219 93.417969 29.921875 93.914062 29.921875 C 94.40625 29.921875 94.882812 29.824219 95.34375 29.636719 C 95.800781 29.449219 96.203125 29.179688 96.554688 28.828125 C 96.90625 28.480469 97.175781 28.078125 97.363281 27.621094 C 97.554688 27.164062 97.648438 26.6875 97.648438 26.195312 C 97.648438 25.699219 97.554688 25.222656 97.363281 24.769531 C 97.175781 24.3125 96.90625 23.910156 96.554688 23.558594 C 96.203125 23.210938 95.800781 22.941406 95.34375 22.75 C 94.882812 22.5625 94.40625 22.46875 93.914062 22.46875 C 93.417969 22.46875 92.941406 22.5625 92.484375 22.75 C 92.023438 22.941406 91.621094 23.210938 91.269531 23.558594 C 90.921875 23.910156 90.648438 24.3125 90.460938 24.769531 C 90.269531 25.222656 90.175781 25.699219 90.175781 26.195312 Z M 90.175781 26.195312 " fill-opacity="1" fill-rule="nonzero"/><path fill="#8c52ff" d="M 67.757812 26.195312 C 67.757812 26.6875 67.851562 27.164062 68.042969 27.621094 C 68.230469 28.078125 68.5 28.480469 68.851562 28.828125 C 69.203125 29.179688 69.605469 29.449219 70.0625 29.636719 C 70.523438 29.824219 71 29.921875 71.492188 29.921875 C 71.988281 29.921875 72.464844 29.824219 72.921875 29.636719 C 73.382812 29.449219 73.785156 29.179688 74.136719 28.828125 C 74.488281 28.480469 74.757812 28.078125 74.945312 27.621094 C 75.136719 27.164062 75.230469 26.6875 75.230469 26.195312 C 75.230469 25.699219 75.136719 25.222656 74.945312 24.769531 C 74.757812 24.3125 74.488281 23.910156 74.136719 23.558594 C 73.785156 23.210938 73.382812 22.941406 72.921875 22.75 C 72.464844 22.5625 71.988281 22.46875 71.492188 22.46875 C 71 22.46875 70.523438 22.5625 70.0625 22.75 C 69.605469 22.941406 69.203125 23.210938 68.851562 23.558594 C 68.5 23.910156 68.230469 24.3125 68.042969 24.769531 C 67.851562 25.222656 67.757812 25.699219 67.757812 26.195312 Z M 67.757812 26.195312 " fill-opacity="1" fill-rule="nonzero"/><path fill="#8c52ff" d="M 45.339844 26.195312 C 45.339844 26.6875 45.433594 27.164062 45.625 27.621094 C 45.8125 28.078125 46.082031 28.480469 46.433594 28.828125 C 46.785156 29.179688 47.1875 29.449219 47.644531 29.636719 C 48.101562 29.824219 48.578125 29.921875 49.074219 29.921875 C 49.570312 29.921875 50.046875 29.824219 50.503906 29.636719 C 50.960938 29.449219 51.367188 29.179688 51.71875 28.828125 C 52.066406 28.480469 52.335938 28.078125 52.527344 27.621094 C 52.71875 27.164062 52.8125 26.6875 52.8125 26.195312 C 52.8125 25.699219 52.71875 25.222656 52.527344 24.769531 C 52.335938 24.3125 52.066406 23.910156 51.71875 23.558594 C 51.367188 23.210938 50.960938 22.941406 50.503906 22.75 C 50.046875 22.5625 49.570312 22.46875 49.074219 22.46875 C 48.578125 22.46875 48.101562 22.5625 47.644531 22.75 C 47.1875 22.941406 46.785156 23.210938 46.433594 23.558594 C 46.082031 23.910156 45.8125 24.3125 45.625 24.769531 C 45.433594 25.222656 45.339844 25.699219 45.339844 26.195312 Z M 45.339844 26.195312 " fill-opacity="1" fill-rule="nonzero"/><path fill="#8c52ff" d="M 22.921875 26.195312 C 22.921875 26.6875 23.015625 27.164062 23.203125 27.621094 C 23.394531 28.078125 23.664062 28.480469 24.015625 28.828125 C 24.363281 29.179688 24.769531 29.449219 25.226562 29.636719 C 25.683594 29.824219 26.160156 29.921875 26.65625 29.921875 C 27.152344 29.921875 27.628906 29.824219 28.085938 29.636719 C 28.542969 29.449219 28.949219 29.179688 29.296875 28.828125 C 29.648438 28.480469 29.917969 28.078125 30.109375 27.621094 C 30.296875 27.164062 30.394531 26.6875 30.394531 26.195312 C 30.394531 25.699219 30.296875 25.222656 30.109375 24.769531 C 29.917969 24.3125 29.648438 23.910156 29.296875 23.558594 C 28.949219 23.210938 28.542969 22.941406 28.085938 22.75 C 27.628906 22.5625 27.152344 22.46875 26.65625 22.46875 C 26.160156 22.46875 25.683594 22.5625 25.226562 22.75 C 24.769531 22.941406 24.363281 23.210938 24.015625 23.558594 C 23.664062 23.910156 23.394531 24.3125 23.203125 24.769531 C 23.015625 25.222656 22.921875 25.699219 22.921875 26.195312 Z M 22.921875 26.195312 " fill-opacity="1" fill-rule="nonzero"/><path fill="#8c52ff" d="M 0.5 26.195312 C 0.5 26.6875 0.597656 27.164062 0.785156 27.621094 C 0.976562 28.078125 1.246094 28.480469 1.597656 28.828125 C 1.945312 29.179688 2.351562 29.449219 2.808594 29.636719 C 3.265625 29.824219 3.742188 29.921875 4.238281 29.921875 C 4.734375 29.921875 5.210938 29.824219 5.667969 29.636719 C 6.125 29.449219 6.53125 29.179688 6.878906 28.828125 C 7.230469 28.480469 7.5 28.078125 7.691406 27.621094 C 7.878906 27.164062 7.972656 26.6875 7.972656 26.195312 C 7.972656 25.699219 7.878906 25.222656 7.691406 24.769531 C 7.5 24.3125 7.230469 23.910156 6.878906 23.558594 C 6.53125 23.210938 6.125 22.941406 5.667969 22.75 C 5.210938 22.5625 4.734375 22.46875 4.238281 22.46875 C 3.742188 22.46875 3.265625 22.5625 2.808594 22.75 C 2.351562 22.941406 1.945312 23.210938 1.597656 23.558594 C 1.246094 23.910156 0.976562 24.3125 0.785156 24.769531 C 0.597656 25.222656 0.5 25.699219 0.5 26.195312 Z M 0.5 26.195312 " fill-opacity="1" fill-rule="nonzero"/><path fill="#5e17eb" d="M 269.527344 48.554688 C 269.527344 49.046875 269.621094 49.523438 269.808594 49.980469 C 270 50.4375 270.269531 50.839844 270.621094 51.1875 C 270.96875 51.539062 271.375 51.808594 271.832031 51.996094 C 272.289062 52.183594 272.765625 52.28125 273.261719 52.28125 C 273.757812 52.28125 274.234375 52.183594 274.691406 51.996094 C 275.148438 51.808594 275.554688 51.539062 275.902344 51.1875 C 276.253906 50.839844 276.523438 50.4375 276.714844 49.980469 C 276.902344 49.523438 277 49.046875 277 48.554688 C 277 48.058594 276.902344 47.582031 276.714844 47.128906 C 276.523438 46.671875 276.253906 46.265625 275.902344 45.917969 C 275.554688 45.570312 275.148438 45.300781 274.691406 45.109375 C 274.234375 44.921875 273.757812 44.828125 273.261719 44.828125 C 272.765625 44.828125 272.289062 44.921875 271.832031 45.109375 C 271.375 45.300781 270.96875 45.570312 270.621094 45.917969 C 270.269531 46.265625 270 46.671875 269.808594 47.128906 C 269.621094 47.582031 269.527344 48.058594 269.527344 48.554688 Z M 269.527344 48.554688 " fill-opacity="1" fill-rule="nonzero"/><path fill="#5e17eb" d="M 247.105469 48.554688 C 247.105469 49.046875 247.203125 49.523438 247.390625 49.980469 C 247.582031 50.4375 247.851562 50.839844 248.203125 51.1875 C 248.550781 51.539062 248.957031 51.808594 249.414062 51.996094 C 249.871094 52.183594 250.347656 52.28125 250.84375 52.28125 C 251.339844 52.28125 251.816406 52.183594 252.273438 51.996094 C 252.730469 51.808594 253.136719 51.539062 253.484375 51.1875 C 253.835938 50.839844 254.105469 50.4375 254.296875 49.980469 C 254.484375 49.523438 254.578125 49.046875 254.578125 48.554688 C 254.578125 48.058594 254.484375 47.582031 254.296875 47.128906 C 254.105469 46.671875 253.835938 46.265625 253.484375 45.917969 C 253.136719 45.570312 252.730469 45.300781 252.273438 45.109375 C 251.816406 44.921875 251.339844 44.828125 250.84375 44.828125 C 250.347656 44.828125 249.871094 44.921875 249.414062 45.109375 C 248.957031 45.300781 248.550781 45.570312 248.203125 45.917969 C 247.851562 46.265625 247.582031 46.671875 247.390625 47.128906 C 247.203125 47.582031 247.105469 48.058594 247.105469 48.554688 Z M 247.105469 48.554688 " fill-opacity="1" fill-rule="nonzero"/><path fill="#5e17eb" d="M 224.6875 48.554688 C 224.6875 49.046875 224.78125 49.523438 224.972656 49.980469 C 225.164062 50.4375 225.433594 50.839844 225.78125 51.1875 C 226.132812 51.539062 226.539062 51.808594 226.996094 51.996094 C 227.453125 52.183594 227.929688 52.28125 228.425781 52.28125 C 228.921875 52.28125 229.398438 52.183594 229.855469 51.996094 C 230.3125 51.808594 230.714844 51.539062 231.066406 51.1875 C 231.417969 50.839844 231.6875 50.4375 231.875 49.980469 C 232.066406 49.523438 232.160156 49.046875 232.160156 48.554688 C 232.160156 48.058594 232.066406 47.582031 231.875 47.128906 C 231.6875 46.671875 231.417969 46.265625 231.066406 45.917969 C 230.714844 45.570312 230.3125 45.300781 229.855469 45.109375 C 229.398438 44.921875 228.921875 44.828125 228.425781 44.828125 C 227.929688 44.828125 227.453125 44.921875 226.996094 45.109375 C 226.539062 45.300781 226.132812 45.570312 225.78125 45.917969 C 225.433594 46.265625 225.164062 46.671875 224.972656 47.128906 C 224.78125 47.582031 224.6875 48.058594 224.6875 48.554688 Z M 224.6875 48.554688 " fill-opacity="1" fill-rule="nonzero"/><path fill="#5e17eb" d="M 202.269531 48.554688 C 202.269531 49.046875 202.363281 49.523438 202.554688 49.980469 C 202.742188 50.4375 203.011719 50.839844 203.363281 51.1875 C 203.714844 51.539062 204.117188 51.808594 204.578125 51.996094 C 205.035156 52.183594 205.511719 52.28125 206.007812 52.28125 C 206.5 52.28125 206.976562 52.183594 207.4375 51.996094 C 207.894531 51.808594 208.296875 51.539062 208.648438 51.1875 C 209 50.839844 209.269531 50.4375 209.457031 49.980469 C 209.648438 49.523438 209.742188 49.046875 209.742188 48.554688 C 209.742188 48.058594 209.648438 47.582031 209.457031 47.128906 C 209.269531 46.671875 209 46.265625 208.648438 45.917969 C 208.296875 45.570312 207.894531 45.300781 207.4375 45.109375 C 206.976562 44.921875 206.5 44.828125 206.007812 44.828125 C 205.511719 44.828125 205.035156 44.921875 204.578125 45.109375 C 204.117188 45.300781 203.714844 45.570312 203.363281 45.917969 C 203.011719 46.265625 202.742188 46.671875 202.554688 47.128906 C 202.363281 47.582031 202.269531 48.058594 202.269531 48.554688 Z M 202.269531 48.554688 " fill-opacity="1" fill-rule="nonzero"/><path fill="#5e17eb" d="M 179.851562 48.554688 C 179.851562 49.046875 179.945312 49.523438 180.136719 49.980469 C 180.324219 50.4375 180.59375 50.839844 180.945312 51.1875 C 181.296875 51.539062 181.699219 51.808594 182.15625 51.996094 C 182.617188 52.183594 183.09375 52.28125 183.585938 52.28125 C 184.082031 52.28125 184.558594 52.183594 185.015625 51.996094 C 185.476562 51.808594 185.878906 51.539062 186.230469 51.1875 C 186.578125 50.839844 186.851562 50.4375 187.039062 49.980469 C 187.230469 49.523438 187.324219 49.046875 187.324219 48.554688 C 187.324219 48.058594 187.230469 47.582031 187.039062 47.128906 C 186.851562 46.671875 186.578125 46.265625 186.230469 45.917969 C 185.878906 45.570312 185.476562 45.300781 185.015625 45.109375 C 184.558594 44.921875 184.082031 44.828125 183.585938 44.828125 C 183.09375 44.828125 182.617188 44.921875 182.15625 45.109375 C 181.699219 45.300781 181.296875 45.570312 180.945312 45.917969 C 180.59375 46.265625 180.324219 46.671875 180.136719 47.128906 C 179.945312 47.582031 179.851562 48.058594 179.851562 48.554688 Z M 179.851562 48.554688 " fill-opacity="1" fill-rule="nonzero"/><path fill="#5e17eb" d="M 157.433594 48.554688 C 157.433594 49.046875 157.527344 49.523438 157.714844 49.980469 C 157.90625 50.4375 158.175781 50.839844 158.527344 51.1875 C 158.878906 51.539062 159.28125 51.808594 159.738281 51.996094 C 160.195312 52.183594 160.671875 52.28125 161.167969 52.28125 C 161.664062 52.28125 162.140625 52.183594 162.597656 51.996094 C 163.054688 51.808594 163.460938 51.539062 163.8125 51.1875 C 164.160156 50.839844 164.429688 50.4375 164.621094 49.980469 C 164.808594 49.523438 164.90625 49.046875 164.90625 48.554688 C 164.90625 48.058594 164.808594 47.582031 164.621094 47.128906 C 164.429688 46.671875 164.160156 46.265625 163.8125 45.917969 C 163.460938 45.570312 163.054688 45.300781 162.597656 45.109375 C 162.140625 44.921875 161.664062 44.828125 161.167969 44.828125 C 160.671875 44.828125 160.195312 44.921875 159.738281 45.109375 C 159.28125 45.300781 158.878906 45.570312 158.527344 45.917969 C 158.175781 46.265625 157.90625 46.671875 157.714844 47.128906 C 157.527344 47.582031 157.433594 48.058594 157.433594 48.554688 Z M 157.433594 48.554688 " fill-opacity="1" fill-rule="nonzero"/><path fill="#ffce0a" d="M 135.011719 48.554688 C 135.011719 49.046875 135.109375 49.523438 135.296875 49.980469 C 135.488281 50.4375 135.757812 50.839844 136.109375 51.1875 C 136.457031 51.539062 136.863281 51.808594 137.320312 51.996094 C 137.777344 52.183594 138.253906 52.28125 138.75 52.28125 C 139.246094 52.28125 139.722656 52.183594 140.179688 51.996094 C 140.636719 51.808594 141.042969 51.539062 141.390625 51.1875 C 141.742188 50.839844 142.011719 50.4375 142.203125 49.980469 C 142.390625 49.523438 142.488281 49.046875 142.488281 48.554688 C 142.488281 48.058594 142.390625 47.582031 142.203125 47.128906 C 142.011719 46.671875 141.742188 46.265625 141.390625 45.917969 C 141.042969 45.570312 140.636719 45.300781 140.179688 45.109375 C 139.722656 44.921875 139.246094 44.828125 138.75 44.828125 C 138.253906 44.828125 137.777344 44.921875 137.320312 45.109375 C 136.863281 45.300781 136.457031 45.570312 136.109375 45.917969 C 135.757812 46.265625 135.488281 46.671875 135.296875 47.128906 C 135.109375 47.582031 135.011719 48.058594 135.011719 48.554688 Z M 135.011719 48.554688 " fill-opacity="1" fill-rule="nonzero"/><path fill="#ffce0a" d="M 112.59375 48.554688 C 112.59375 49.046875 112.691406 49.523438 112.878906 49.980469 C 113.070312 50.4375 113.339844 50.839844 113.6875 51.1875 C 114.039062 51.539062 114.445312 51.808594 114.902344 51.996094 C 115.359375 52.183594 115.835938 52.28125 116.332031 52.28125 C 116.828125 52.28125 117.304688 52.183594 117.761719 51.996094 C 118.21875 51.808594 118.621094 51.539062 118.972656 51.1875 C 119.324219 50.839844 119.59375 50.4375 119.785156 49.980469 C 119.972656 49.523438 120.066406 49.046875 120.066406 48.554688 C 120.066406 48.058594 119.972656 47.582031 119.785156 47.128906 C 119.59375 46.671875 119.324219 46.265625 118.972656 45.917969 C 118.621094 45.570312 118.21875 45.300781 117.761719 45.109375 C 117.304688 44.921875 116.828125 44.828125 116.332031 44.828125 C 115.835938 44.828125 115.359375 44.921875 114.902344 45.109375 C 114.445312 45.300781 114.039062 45.570312 113.6875 45.917969 C 113.339844 46.265625 113.070312 46.671875 112.878906 47.128906 C 112.691406 47.582031 112.59375 48.058594 112.59375 48.554688 Z M 112.59375 48.554688 " fill-opacity="1" fill-rule="nonzero"/><path fill="#ffce0a" d="M 90.175781 48.554688 C 90.175781 49.046875 90.269531 49.523438 90.460938 49.980469 C 90.648438 50.4375 90.921875 50.839844 91.269531 51.1875 C 91.621094 51.539062 92.023438 51.808594 92.484375 51.996094 C 92.941406 52.183594 93.417969 52.28125 93.914062 52.28125 C 94.40625 52.28125 94.882812 52.183594 95.34375 51.996094 C 95.800781 51.808594 96.203125 51.539062 96.554688 51.1875 C 96.90625 50.839844 97.175781 50.4375 97.363281 49.980469 C 97.554688 49.523438 97.648438 49.046875 97.648438 48.554688 C 97.648438 48.058594 97.554688 47.582031 97.363281 47.128906 C 97.175781 46.671875 96.90625 46.265625 96.554688 45.917969 C 96.203125 45.570312 95.800781 45.300781 95.34375 45.109375 C 94.882812 44.921875 94.40625 44.828125 93.914062 44.828125 C 93.417969 44.828125 92.941406 44.921875 92.484375 45.109375 C 92.023438 45.300781 91.621094 45.570312 91.269531 45.917969 C 90.921875 46.265625 90.648438 46.671875 90.460938 47.128906 C 90.269531 47.582031 90.175781 48.058594 90.175781 48.554688 Z M 90.175781 48.554688 " fill-opacity="1" fill-rule="nonzero"/><path fill="#ffce0a" d="M 67.757812 48.554688 C 67.757812 49.046875 67.851562 49.523438 68.042969 49.980469 C 68.230469 50.4375 68.5 50.839844 68.851562 51.1875 C 69.203125 51.539062 69.605469 51.808594 70.0625 51.996094 C 70.523438 52.183594 71 52.28125 71.492188 52.28125 C 71.988281 52.28125 72.464844 52.183594 72.921875 51.996094 C 73.382812 51.808594 73.785156 51.539062 74.136719 51.1875 C 74.488281 50.839844 74.757812 50.4375 74.945312 49.980469 C 75.136719 49.523438 75.230469 49.046875 75.230469 48.554688 C 75.230469 48.058594 75.136719 47.582031 74.945312 47.128906 C 74.757812 46.671875 74.488281 46.265625 74.136719 45.917969 C 73.785156 45.570312 73.382812 45.300781 72.921875 45.109375 C 72.464844 44.921875 71.988281 44.828125 71.492188 44.828125 C 71 44.828125 70.523438 44.921875 70.0625 45.109375 C 69.605469 45.300781 69.203125 45.570312 68.851562 45.917969 C 68.5 46.265625 68.230469 46.671875 68.042969 47.128906 C 67.851562 47.582031 67.757812 48.058594 67.757812 48.554688 Z M 67.757812 48.554688 " fill-opacity="1" fill-rule="nonzero"/><path fill="#ffce0a" d="M 45.339844 48.554688 C 45.339844 49.046875 45.433594 49.523438 45.625 49.980469 C 45.8125 50.4375 46.082031 50.839844 46.433594 51.1875 C 46.785156 51.539062 47.1875 51.808594 47.644531 51.996094 C 48.101562 52.183594 48.578125 52.28125 49.074219 52.28125 C 49.570312 52.28125 50.046875 52.183594 50.503906 51.996094 C 50.960938 51.808594 51.367188 51.539062 51.71875 51.1875 C 52.066406 50.839844 52.335938 50.4375 52.527344 49.980469 C 52.71875 49.523438 52.8125 49.046875 52.8125 48.554688 C 52.8125 48.058594 52.71875 47.582031 52.527344 47.128906 C 52.335938 46.671875 52.066406 46.265625 51.71875 45.917969 C 51.367188 45.570312 50.960938 45.300781 50.503906 45.109375 C 50.046875 44.921875 49.570312 44.828125 49.074219 44.828125 C 48.578125 44.828125 48.101562 44.921875 47.644531 45.109375 C 47.1875 45.300781 46.785156 45.570312 46.433594 45.917969 C 46.082031 46.265625 45.8125 46.671875 45.625 47.128906 C 45.433594 47.582031 45.339844 48.058594 45.339844 48.554688 Z M 45.339844 48.554688 " fill-opacity="1" fill-rule="nonzero"/><path fill="#ffce0a" d="M 22.921875 48.554688 C 22.921875 49.046875 23.015625 49.523438 23.203125 49.980469 C 23.394531 50.4375 23.664062 50.839844 24.015625 51.1875 C 24.363281 51.539062 24.769531 51.808594 25.226562 51.996094 C 25.683594 52.183594 26.160156 52.28125 26.65625 52.28125 C 27.152344 52.28125 27.628906 52.183594 28.085938 51.996094 C 28.542969 51.808594 28.949219 51.539062 29.296875 51.1875 C 29.648438 50.839844 29.917969 50.4375 30.109375 49.980469 C 30.296875 49.523438 30.394531 49.046875 30.394531 48.554688 C 30.394531 48.058594 30.296875 47.582031 30.109375 47.128906 C 29.917969 46.671875 29.648438 46.265625 29.296875 45.917969 C 28.949219 45.570312 28.542969 45.300781 28.085938 45.109375 C 27.628906 44.921875 27.152344 44.828125 26.65625 44.828125 C 26.160156 44.828125 25.683594 44.921875 25.226562 45.109375 C 24.769531 45.300781 24.363281 45.570312 24.015625 45.917969 C 23.664062 46.265625 23.394531 46.671875 23.203125 47.128906 C 23.015625 47.582031 22.921875 48.058594 22.921875 48.554688 Z M 22.921875 48.554688 " fill-opacity="1" fill-rule="nonzero"/><path fill="#ffce0a" d="M 0.5 48.554688 C 0.5 49.046875 0.597656 49.523438 0.785156 49.980469 C 0.976562 50.4375 1.246094 50.839844 1.597656 51.1875 C 1.945312 51.539062 2.351562 51.808594 2.808594 51.996094 C 3.265625 52.183594 3.742188 52.28125 4.238281 52.28125 C 4.734375 52.28125 5.210938 52.183594 5.667969 51.996094 C 6.125 51.808594 6.53125 51.539062 6.878906 51.1875 C 7.230469 50.839844 7.5 50.4375 7.691406 49.980469 C 7.878906 49.523438 7.972656 49.046875 7.972656 48.554688 C 7.972656 48.058594 7.878906 47.582031 7.691406 47.128906 C 7.5 46.671875 7.230469 46.265625 6.878906 45.917969 C 6.53125 45.570312 6.125 45.300781 5.667969 45.109375 C 5.210938 44.921875 4.734375 44.828125 4.238281 44.828125 C 3.742188 44.828125 3.265625 44.921875 2.808594 45.109375 C 2.351562 45.300781 1.945312 45.570312 1.597656 45.917969 C 1.246094 46.265625 0.976562 46.671875 0.785156 47.128906 C 0.597656 47.582031 0.5 48.058594 0.5 48.554688 Z M 0.5 48.554688 " fill-opacity="1" fill-rule="nonzero"/><path fill="#5e17eb" d="M 269.527344 70.914062 C 269.527344 71.40625 269.621094 71.882812 269.808594 72.339844 C 270 72.796875 270.269531 73.199219 270.621094 73.546875 C 270.96875 73.898438 271.375 74.167969 271.832031 74.355469 C 272.289062 74.542969 272.765625 74.640625 273.261719 74.640625 C 273.757812 74.640625 274.234375 74.542969 274.691406 74.355469 C 275.148438 74.167969 275.554688 73.898438 275.902344 73.546875 C 276.253906 73.199219 276.523438 72.796875 276.714844 72.339844 C 276.902344 71.882812 277 71.40625 277 70.914062 C 277 70.417969 276.902344 69.941406 276.714844 69.488281 C 276.523438 69.03125 276.253906 68.625 275.902344 68.277344 C 275.554688 67.929688 275.148438 67.660156 274.691406 67.46875 C 274.234375 67.28125 273.757812 67.1875 273.261719 67.1875 C 272.765625 67.1875 272.289062 67.28125 271.832031 67.46875 C 271.375 67.660156 270.96875 67.929688 270.621094 68.277344 C 270.269531 68.625 270 69.03125 269.808594 69.488281 C 269.621094 69.941406 269.527344 70.417969 269.527344 70.914062 Z M 269.527344 70.914062 " fill-opacity="1" fill-rule="nonzero"/><path fill="#5e17eb" d="M 247.105469 70.914062 C 247.105469 71.40625 247.203125 71.882812 247.390625 72.339844 C 247.582031 72.796875 247.851562 73.199219 248.203125 73.546875 C 248.550781 73.898438 248.957031 74.167969 249.414062 74.355469 C 249.871094 74.542969 250.347656 74.640625 250.84375 74.640625 C 251.339844 74.640625 251.816406 74.542969 252.273438 74.355469 C 252.730469 74.167969 253.136719 73.898438 253.484375 73.546875 C 253.835938 73.199219 254.105469 72.796875 254.296875 72.339844 C 254.484375 71.882812 254.578125 71.40625 254.578125 70.914062 C 254.578125 70.417969 254.484375 69.941406 254.296875 69.488281 C 254.105469 69.03125 253.835938 68.625 253.484375 68.277344 C 253.136719 67.929688 252.730469 67.660156 252.273438 67.46875 C 251.816406 67.28125 251.339844 67.1875 250.84375 67.1875 C 250.347656 67.1875 249.871094 67.28125 249.414062 67.46875 C 248.957031 67.660156 248.550781 67.929688 248.203125 68.277344 C 247.851562 68.625 247.582031 69.03125 247.390625 69.488281 C 247.203125 69.941406 247.105469 70.417969 247.105469 70.914062 Z M 247.105469 70.914062 " fill-opacity="1" fill-rule="nonzero"/><path fill="#5e17eb" d="M 224.6875 70.914062 C 224.6875 71.40625 224.78125 71.882812 224.972656 72.339844 C 225.164062 72.796875 225.433594 73.199219 225.78125 73.546875 C 226.132812 73.898438 226.539062 74.167969 226.996094 74.355469 C 227.453125 74.542969 227.929688 74.640625 228.425781 74.640625 C 228.921875 74.640625 229.398438 74.542969 229.855469 74.355469 C 230.3125 74.167969 230.714844 73.898438 231.066406 73.546875 C 231.417969 73.199219 231.6875 72.796875 231.875 72.339844 C 232.066406 71.882812 232.160156 71.40625 232.160156 70.914062 C 232.160156 70.417969 232.066406 69.941406 231.875 69.488281 C 231.6875 69.03125 231.417969 68.625 231.066406 68.277344 C 230.714844 67.929688 230.3125 67.660156 229.855469 67.46875 C 229.398438 67.28125 228.921875 67.1875 228.425781 67.1875 C 227.929688 67.1875 227.453125 67.28125 226.996094 67.46875 C 226.539062 67.660156 226.132812 67.929688 225.78125 68.277344 C 225.433594 68.625 225.164062 69.03125 224.972656 69.488281 C 224.78125 69.941406 224.6875 70.417969 224.6875 70.914062 Z M 224.6875 70.914062 " fill-opacity="1" fill-rule="nonzero"/><path fill="#5e17eb" d="M 202.269531 70.914062 C 202.269531 71.40625 202.363281 71.882812 202.554688 72.339844 C 202.742188 72.796875 203.011719 73.199219 203.363281 73.546875 C 203.714844 73.898438 204.117188 74.167969 204.578125 74.355469 C 205.035156 74.542969 205.511719 74.640625 206.007812 74.640625 C 206.5 74.640625 206.976562 74.542969 207.4375 74.355469 C 207.894531 74.167969 208.296875 73.898438 208.648438 73.546875 C 209 73.199219 209.269531 72.796875 209.457031 72.339844 C 209.648438 71.882812 209.742188 71.40625 209.742188 70.914062 C 209.742188 70.417969 209.648438 69.941406 209.457031 69.488281 C 209.269531 69.03125 209 68.625 208.648438 68.277344 C 208.296875 67.929688 207.894531 67.660156 207.4375 67.46875 C 206.976562 67.28125 206.5 67.1875 206.007812 67.1875 C 205.511719 67.1875 205.035156 67.28125 204.578125 67.46875 C 204.117188 67.660156 203.714844 67.929688 203.363281 68.277344 C 203.011719 68.625 202.742188 69.03125 202.554688 69.488281 C 202.363281 69.941406 202.269531 70.417969 202.269531 70.914062 Z M 202.269531 70.914062 " fill-opacity="1" fill-rule="nonzero"/><path fill="#5e17eb" d="M 179.851562 70.914062 C 179.851562 71.40625 179.945312 71.882812 180.136719 72.339844 C 180.324219 72.796875 180.59375 73.199219 180.945312 73.546875 C 181.296875 73.898438 181.699219 74.167969 182.15625 74.355469 C 182.617188 74.542969 183.09375 74.640625 183.585938 74.640625 C 184.082031 74.640625 184.558594 74.542969 185.015625 74.355469 C 185.476562 74.167969 185.878906 73.898438 186.230469 73.546875 C 186.578125 73.199219 186.851562 72.796875 187.039062 72.339844 C 187.230469 71.882812 187.324219 71.40625 187.324219 70.914062 C 187.324219 70.417969 187.230469 69.941406 187.039062 69.488281 C 186.851562 69.03125 186.578125 68.625 186.230469 68.277344 C 185.878906 67.929688 185.476562 67.660156 185.015625 67.46875 C 184.558594 67.28125 184.082031 67.1875 183.585938 67.1875 C 183.09375 67.1875 182.617188 67.28125 182.15625 67.46875 C 181.699219 67.660156 181.296875 67.929688 180.945312 68.277344 C 180.59375 68.625 180.324219 69.03125 180.136719 69.488281 C 179.945312 69.941406 179.851562 70.417969 179.851562 70.914062 Z M 179.851562 70.914062 " fill-opacity="1" fill-rule="nonzero"/><path fill="#5e17eb" d="M 157.433594 70.914062 C 157.433594 71.40625 157.527344 71.882812 157.714844 72.339844 C 157.90625 72.796875 158.175781 73.199219 158.527344 73.546875 C 158.878906 73.898438 159.28125 74.167969 159.738281 74.355469 C 160.195312 74.542969 160.671875 74.640625 161.167969 74.640625 C 161.664062 74.640625 162.140625 74.542969 162.597656 74.355469 C 163.054688 74.167969 163.460938 73.898438 163.8125 73.546875 C 164.160156 73.199219 164.429688 72.796875 164.621094 72.339844 C 164.808594 71.882812 164.90625 71.40625 164.90625 70.914062 C 164.90625 70.417969 164.808594 69.941406 164.621094 69.488281 C 164.429688 69.03125 164.160156 68.625 163.8125 68.277344 C 163.460938 67.929688 163.054688 67.660156 162.597656 67.46875 C 162.140625 67.28125 161.664062 67.1875 161.167969 67.1875 C 160.671875 67.1875 160.195312 67.28125 159.738281 67.46875 C 159.28125 67.660156 158.878906 67.929688 158.527344 68.277344 C 158.175781 68.625 157.90625 69.03125 157.714844 69.488281 C 157.527344 69.941406 157.433594 70.417969 157.433594 70.914062 Z M 157.433594 70.914062 " fill-opacity="1" fill-rule="nonzero"/><path fill="#ffce0a" d="M 135.011719 70.914062 C 135.011719 71.40625 135.109375 71.882812 135.296875 72.339844 C 135.488281 72.796875 135.757812 73.199219 136.109375 73.546875 C 136.457031 73.898438 136.863281 74.167969 137.320312 74.355469 C 137.777344 74.542969 138.253906 74.640625 138.75 74.640625 C 139.246094 74.640625 139.722656 74.542969 140.179688 74.355469 C 140.636719 74.167969 141.042969 73.898438 141.390625 73.546875 C 141.742188 73.199219 142.011719 72.796875 142.203125 72.339844 C 142.390625 71.882812 142.488281 71.40625 142.488281 70.914062 C 142.488281 70.417969 142.390625 69.941406 142.203125 69.488281 C 142.011719 69.03125 141.742188 68.625 141.390625 68.277344 C 141.042969 67.929688 140.636719 67.660156 140.179688 67.46875 C 139.722656 67.28125 139.246094 67.1875 138.75 67.1875 C 138.253906 67.1875 137.777344 67.28125 137.320312 67.46875 C 136.863281 67.660156 136.457031 67.929688 136.109375 68.277344 C 135.757812 68.625 135.488281 69.03125 135.296875 69.488281 C 135.109375 69.941406 135.011719 70.417969 135.011719 70.914062 Z M 135.011719 70.914062 " fill-opacity="1" fill-rule="nonzero"/><path fill="#ffce0a" d="M 112.59375 70.914062 C 112.59375 71.40625 112.691406 71.882812 112.878906 72.339844 C 113.070312 72.796875 113.339844 73.199219 113.6875 73.546875 C 114.039062 73.898438 114.445312 74.167969 114.902344 74.355469 C 115.359375 74.542969 115.835938 74.640625 116.332031 74.640625 C 116.828125 74.640625 117.304688 74.542969 117.761719 74.355469 C 118.21875 74.167969 118.621094 73.898438 118.972656 73.546875 C 119.324219 73.199219 119.59375 72.796875 119.785156 72.339844 C 119.972656 71.882812 120.066406 71.40625 120.066406 70.914062 C 120.066406 70.417969 119.972656 69.941406 119.785156 69.488281 C 119.59375 69.03125 119.324219 68.625 118.972656 68.277344 C 118.621094 67.929688 118.21875 67.660156 117.761719 67.46875 C 117.304688 67.28125 116.828125 67.1875 116.332031 67.1875 C 115.835938 67.1875 115.359375 67.28125 114.902344 67.46875 C 114.445312 67.660156 114.039062 67.929688 113.6875 68.277344 C 113.339844 68.625 113.070312 69.03125 112.878906 69.488281 C 112.691406 69.941406 112.59375 70.417969 112.59375 70.914062 Z M 112.59375 70.914062 " fill-opacity="1" fill-rule="nonzero"/><path fill="#ffce0a" d="M 90.175781 70.914062 C 90.175781 71.40625 90.269531 71.882812 90.460938 72.339844 C 90.648438 72.796875 90.921875 73.199219 91.269531 73.546875 C 91.621094 73.898438 92.023438 74.167969 92.484375 74.355469 C 92.941406 74.542969 93.417969 74.640625 93.914062 74.640625 C 94.40625 74.640625 94.882812 74.542969 95.34375 74.355469 C 95.800781 74.167969 96.203125 73.898438 96.554688 73.546875 C 96.90625 73.199219 97.175781 72.796875 97.363281 72.339844 C 97.554688 71.882812 97.648438 71.40625 97.648438 70.914062 C 97.648438 70.417969 97.554688 69.941406 97.363281 69.488281 C 97.175781 69.03125 96.90625 68.625 96.554688 68.277344 C 96.203125 67.929688 95.800781 67.660156 95.34375 67.46875 C 94.882812 67.28125 94.40625 67.1875 93.914062 67.1875 C 93.417969 67.1875 92.941406 67.28125 92.484375 67.46875 C 92.023438 67.660156 91.621094 67.929688 91.269531 68.277344 C 90.921875 68.625 90.648438 69.03125 90.460938 69.488281 C 90.269531 69.941406 90.175781 70.417969 90.175781 70.914062 Z M 90.175781 70.914062 " fill-opacity="1" fill-rule="nonzero"/><path fill="#ffce0a" d="M 67.757812 70.914062 C 67.757812 71.40625 67.851562 71.882812 68.042969 72.339844 C 68.230469 72.796875 68.5 73.199219 68.851562 73.546875 C 69.203125 73.898438 69.605469 74.167969 70.0625 74.355469 C 70.523438 74.542969 71 74.640625 71.492188 74.640625 C 71.988281 74.640625 72.464844 74.542969 72.921875 74.355469 C 73.382812 74.167969 73.785156 73.898438 74.136719 73.546875 C 74.488281 73.199219 74.757812 72.796875 74.945312 72.339844 C 75.136719 71.882812 75.230469 71.40625 75.230469 70.914062 C 75.230469 70.417969 75.136719 69.941406 74.945312 69.488281 C 74.757812 69.03125 74.488281 68.625 74.136719 68.277344 C 73.785156 67.929688 73.382812 67.660156 72.921875 67.46875 C 72.464844 67.28125 71.988281 67.1875 71.492188 67.1875 C 71 67.1875 70.523438 67.28125 70.0625 67.46875 C 69.605469 67.660156 69.203125 67.929688 68.851562 68.277344 C 68.5 68.625 68.230469 69.03125 68.042969 69.488281 C 67.851562 69.941406 67.757812 70.417969 67.757812 70.914062 Z M 67.757812 70.914062 " fill-opacity="1" fill-rule="nonzero"/><path fill="#ffce0a" d="M 45.339844 70.914062 C 45.339844 71.40625 45.433594 71.882812 45.625 72.339844 C 45.8125 72.796875 46.082031 73.199219 46.433594 73.546875 C 46.785156 73.898438 47.1875 74.167969 47.644531 74.355469 C 48.101562 74.542969 48.578125 74.640625 49.074219 74.640625 C 49.570312 74.640625 50.046875 74.542969 50.503906 74.355469 C 50.960938 74.167969 51.367188 73.898438 51.71875 73.546875 C 52.066406 73.199219 52.335938 72.796875 52.527344 72.339844 C 52.71875 71.882812 52.8125 71.40625 52.8125 70.914062 C 52.8125 70.417969 52.71875 69.941406 52.527344 69.488281 C 52.335938 69.03125 52.066406 68.625 51.71875 68.277344 C 51.367188 67.929688 50.960938 67.660156 50.503906 67.46875 C 50.046875 67.28125 49.570312 67.1875 49.074219 67.1875 C 48.578125 67.1875 48.101562 67.28125 47.644531 67.46875 C 47.1875 67.660156 46.785156 67.929688 46.433594 68.277344 C 46.082031 68.625 45.8125 69.03125 45.625 69.488281 C 45.433594 69.941406 45.339844 70.417969 45.339844 70.914062 Z M 45.339844 70.914062 " fill-opacity="1" fill-rule="nonzero"/><path fill="#ffce0a" d="M 22.921875 70.914062 C 22.921875 71.40625 23.015625 71.882812 23.203125 72.339844 C 23.394531 72.796875 23.664062 73.199219 24.015625 73.546875 C 24.363281 73.898438 24.769531 74.167969 25.226562 74.355469 C 25.683594 74.542969 26.160156 74.640625 26.65625 74.640625 C 27.152344 74.640625 27.628906 74.542969 28.085938 74.355469 C 28.542969 74.167969 28.949219 73.898438 29.296875 73.546875 C 29.648438 73.199219 29.917969 72.796875 30.109375 72.339844 C 30.296875 71.882812 30.394531 71.40625 30.394531 70.914062 C 30.394531 70.417969 30.296875 69.941406 30.109375 69.488281 C 29.917969 69.03125 29.648438 68.625 29.296875 68.277344 C 28.949219 67.929688 28.542969 67.660156 28.085938 67.46875 C 27.628906 67.28125 27.152344 67.1875 26.65625 67.1875 C 26.160156 67.1875 25.683594 67.28125 25.226562 67.46875 C 24.769531 67.660156 24.363281 67.929688 24.015625 68.277344 C 23.664062 68.625 23.394531 69.03125 23.203125 69.488281 C 23.015625 69.941406 22.921875 70.417969 22.921875 70.914062 Z M 22.921875 70.914062 " fill-opacity="1" fill-rule="nonzero"/><path fill="#ffce0a" d="M 0.5 70.914062 C 0.5 71.40625 0.597656 71.882812 0.785156 72.339844 C 0.976562 72.796875 1.246094 73.199219 1.597656 73.546875 C 1.945312 73.898438 2.351562 74.167969 2.808594 74.355469 C 3.265625 74.542969 3.742188 74.640625 4.238281 74.640625 C 4.734375 74.640625 5.210938 74.542969 5.667969 74.355469 C 6.125 74.167969 6.53125 73.898438 6.878906 73.546875 C 7.230469 73.199219 7.5 72.796875 7.691406 72.339844 C 7.878906 71.882812 7.972656 71.40625 7.972656 70.914062 C 7.972656 70.417969 7.878906 69.941406 7.691406 69.488281 C 7.5 69.03125 7.230469 68.625 6.878906 68.277344 C 6.53125 67.929688 6.125 67.660156 5.667969 67.46875 C 5.210938 67.28125 4.734375 67.1875 4.238281 67.1875 C 3.742188 67.1875 3.265625 67.28125 2.808594 67.46875 C 2.351562 67.660156 1.945312 67.929688 1.597656 68.277344 C 1.246094 68.625 0.976562 69.03125 0.785156 69.488281 C 0.597656 69.941406 0.5 70.417969 0.5 70.914062 Z M 0.5 70.914062 " fill-opacity="1" fill-rule="nonzero"/><path fill="#5e17eb" d="M 269.527344 93.273438 C 269.527344 93.765625 269.621094 94.242188 269.808594 94.699219 C 270 95.15625 270.269531 95.558594 270.621094 95.90625 C 270.96875 96.257812 271.375 96.527344 271.832031 96.714844 C 272.289062 96.902344 272.765625 97 273.261719 97 C 273.757812 97 274.234375 96.902344 274.691406 96.714844 C 275.148438 96.527344 275.554688 96.257812 275.902344 95.90625 C 276.253906 95.558594 276.523438 95.15625 276.714844 94.699219 C 276.902344 94.242188 277 93.765625 277 93.273438 C 277 92.777344 276.902344 92.300781 276.714844 91.847656 C 276.523438 91.390625 276.253906 90.984375 275.902344 90.636719 C 275.554688 90.289062 275.148438 90.019531 274.691406 89.828125 C 274.234375 89.640625 273.757812 89.546875 273.261719 89.546875 C 272.765625 89.546875 272.289062 89.640625 271.832031 89.828125 C 271.375 90.019531 270.96875 90.289062 270.621094 90.636719 C 270.269531 90.984375 270 91.390625 269.808594 91.847656 C 269.621094 92.300781 269.527344 92.777344 269.527344 93.273438 Z M 269.527344 93.273438 " fill-opacity="1" fill-rule="nonzero"/><path fill="#5e17eb" d="M 247.105469 93.273438 C 247.105469 93.765625 247.203125 94.242188 247.390625 94.699219 C 247.582031 95.15625 247.851562 95.558594 248.203125 95.90625 C 248.550781 96.257812 248.957031 96.527344 249.414062 96.714844 C 249.871094 96.902344 250.347656 97 250.84375 97 C 251.339844 97 251.816406 96.902344 252.273438 96.714844 C 252.730469 96.527344 253.136719 96.257812 253.484375 95.90625 C 253.835938 95.558594 254.105469 95.15625 254.296875 94.699219 C 254.484375 94.242188 254.578125 93.765625 254.578125 93.273438 C 254.578125 92.777344 254.484375 92.300781 254.296875 91.847656 C 254.105469 91.390625 253.835938 90.984375 253.484375 90.636719 C 253.136719 90.289062 252.730469 90.019531 252.273438 89.828125 C 251.816406 89.640625 251.339844 89.546875 250.84375 89.546875 C 250.347656 89.546875 249.871094 89.640625 249.414062 89.828125 C 248.957031 90.019531 248.550781 90.289062 248.203125 90.636719 C 247.851562 90.984375 247.582031 91.390625 247.390625 91.847656 C 247.203125 92.300781 247.105469 92.777344 247.105469 93.273438 Z M 247.105469 93.273438 " fill-opacity="1" fill-rule="nonzero"/><path fill="#5e17eb" d="M 224.6875 93.273438 C 224.6875 93.765625 224.78125 94.242188 224.972656 94.699219 C 225.164062 95.15625 225.433594 95.558594 225.78125 95.90625 C 226.132812 96.257812 226.539062 96.527344 226.996094 96.714844 C 227.453125 96.902344 227.929688 97 228.425781 97 C 228.921875 97 229.398438 96.902344 229.855469 96.714844 C 230.3125 96.527344 230.714844 96.257812 231.066406 95.90625 C 231.417969 95.558594 231.6875 95.15625 231.875 94.699219 C 232.066406 94.242188 232.160156 93.765625 232.160156 93.273438 C 232.160156 92.777344 232.066406 92.300781 231.875 91.847656 C 231.6875 91.390625 231.417969 90.984375 231.066406 90.636719 C 230.714844 90.289062 230.3125 90.019531 229.855469 89.828125 C 229.398438 89.640625 228.921875 89.546875 228.425781 89.546875 C 227.929688 89.546875 227.453125 89.640625 226.996094 89.828125 C 226.539062 90.019531 226.132812 90.289062 225.78125 90.636719 C 225.433594 90.984375 225.164062 91.390625 224.972656 91.847656 C 224.78125 92.300781 224.6875 92.777344 224.6875 93.273438 Z M 224.6875 93.273438 " fill-opacity="1" fill-rule="nonzero"/><path fill="#5e17eb" d="M 202.269531 93.273438 C 202.269531 93.765625 202.363281 94.242188 202.554688 94.699219 C 202.742188 95.15625 203.011719 95.558594 203.363281 95.90625 C 203.714844 96.257812 204.117188 96.527344 204.578125 96.714844 C 205.035156 96.902344 205.511719 97 206.007812 97 C 206.5 97 206.976562 96.902344 207.4375 96.714844 C 207.894531 96.527344 208.296875 96.257812 208.648438 95.90625 C 209 95.558594 209.269531 95.15625 209.457031 94.699219 C 209.648438 94.242188 209.742188 93.765625 209.742188 93.273438 C 209.742188 92.777344 209.648438 92.300781 209.457031 91.847656 C 209.269531 91.390625 209 90.984375 208.648438 90.636719 C 208.296875 90.289062 207.894531 90.019531 207.4375 89.828125 C 206.976562 89.640625 206.5 89.546875 206.007812 89.546875 C 205.511719 89.546875 205.035156 89.640625 204.578125 89.828125 C 204.117188 90.019531 203.714844 90.289062 203.363281 90.636719 C 203.011719 90.984375 202.742188 91.390625 202.554688 91.847656 C 202.363281 92.300781 202.269531 92.777344 202.269531 93.273438 Z M 202.269531 93.273438 " fill-opacity="1" fill-rule="nonzero"/><path fill="#5e17eb" d="M 179.851562 93.273438 C 179.851562 93.765625 179.945312 94.242188 180.136719 94.699219 C 180.324219 95.15625 180.59375 95.558594 180.945312 95.90625 C 181.296875 96.257812 181.699219 96.527344 182.15625 96.714844 C 182.617188 96.902344 183.09375 97 183.585938 97 C 184.082031 97 184.558594 96.902344 185.015625 96.714844 C 185.476562 96.527344 185.878906 96.257812 186.230469 95.90625 C 186.578125 95.558594 186.851562 95.15625 187.039062 94.699219 C 187.230469 94.242188 187.324219 93.765625 187.324219 93.273438 C 187.324219 92.777344 187.230469 92.300781 187.039062 91.847656 C 186.851562 91.390625 186.578125 90.984375 186.230469 90.636719 C 185.878906 90.289062 185.476562 90.019531 185.015625 89.828125 C 184.558594 89.640625 184.082031 89.546875 183.585938 89.546875 C 183.09375 89.546875 182.617188 89.640625 182.15625 89.828125 C 181.699219 90.019531 181.296875 90.289062 180.945312 90.636719 C 180.59375 90.984375 180.324219 91.390625 180.136719 91.847656 C 179.945312 92.300781 179.851562 92.777344 179.851562 93.273438 Z M 179.851562 93.273438 " fill-opacity="1" fill-rule="nonzero"/><path fill="#5e17eb" d="M 157.433594 93.273438 C 157.433594 93.765625 157.527344 94.242188 157.714844 94.699219 C 157.90625 95.15625 158.175781 95.558594 158.527344 95.90625 C 158.878906 96.257812 159.28125 96.527344 159.738281 96.714844 C 160.195312 96.902344 160.671875 97 161.167969 97 C 161.664062 97 162.140625 96.902344 162.597656 96.714844 C 163.054688 96.527344 163.460938 96.257812 163.8125 95.90625 C 164.160156 95.558594 164.429688 95.15625 164.621094 94.699219 C 164.808594 94.242188 164.90625 93.765625 164.90625 93.273438 C 164.90625 92.777344 164.808594 92.300781 164.621094 91.847656 C 164.429688 91.390625 164.160156 90.984375 163.8125 90.636719 C 163.460938 90.289062 163.054688 90.019531 162.597656 89.828125 C 162.140625 89.640625 161.664062 89.546875 161.167969 89.546875 C 160.671875 89.546875 160.195312 89.640625 159.738281 89.828125 C 159.28125 90.019531 158.878906 90.289062 158.527344 90.636719 C 158.175781 90.984375 157.90625 91.390625 157.714844 91.847656 C 157.527344 92.300781 157.433594 92.777344 157.433594 93.273438 Z M 157.433594 93.273438 " fill-opacity="1" fill-rule="nonzero"/><path fill="#5e17eb" d="M 135.011719 93.273438 C 135.011719 93.765625 135.109375 94.242188 135.296875 94.699219 C 135.488281 95.15625 135.757812 95.558594 136.109375 95.90625 C 136.457031 96.257812 136.863281 96.527344 137.320312 96.714844 C 137.777344 96.902344 138.253906 97 138.75 97 C 139.246094 97 139.722656 96.902344 140.179688 96.714844 C 140.636719 96.527344 141.042969 96.257812 141.390625 95.90625 C 141.742188 95.558594 142.011719 95.15625 142.203125 94.699219 C 142.390625 94.242188 142.488281 93.765625 142.488281 93.273438 C 142.488281 92.777344 142.390625 92.300781 142.203125 91.847656 C 142.011719 91.390625 141.742188 90.984375 141.390625 90.636719 C 141.042969 90.289062 140.636719 90.019531 140.179688 89.828125 C 139.722656 89.640625 139.246094 89.546875 138.75 89.546875 C 138.253906 89.546875 137.777344 89.640625 137.320312 89.828125 C 136.863281 90.019531 136.457031 90.289062 136.109375 90.636719 C 135.757812 90.984375 135.488281 91.390625 135.296875 91.847656 C 135.109375 92.300781 135.011719 92.777344 135.011719 93.273438 Z M 135.011719 93.273438 " fill-opacity="1" fill-rule="nonzero"/><path fill="#ffce0a" d="M 112.59375 93.273438 C 112.59375 93.765625 112.691406 94.242188 112.878906 94.699219 C 113.070312 95.15625 113.339844 95.558594 113.6875 95.90625 C 114.039062 96.257812 114.445312 96.527344 114.902344 96.714844 C 115.359375 96.902344 115.835938 97 116.332031 97 C 116.828125 97 117.304688 96.902344 117.761719 96.714844 C 118.21875 96.527344 118.621094 96.257812 118.972656 95.90625 C 119.324219 95.558594 119.59375 95.15625 119.785156 94.699219 C 119.972656 94.242188 120.066406 93.765625 120.066406 93.273438 C 120.066406 92.777344 119.972656 92.300781 119.785156 91.847656 C 119.59375 91.390625 119.324219 90.984375 118.972656 90.636719 C 118.621094 90.289062 118.21875 90.019531 117.761719 89.828125 C 117.304688 89.640625 116.828125 89.546875 116.332031 89.546875 C 115.835938 89.546875 115.359375 89.640625 114.902344 89.828125 C 114.445312 90.019531 114.039062 90.289062 113.6875 90.636719 C 113.339844 90.984375 113.070312 91.390625 112.878906 91.847656 C 112.691406 92.300781 112.59375 92.777344 112.59375 93.273438 Z M 112.59375 93.273438 " fill-opacity="1" fill-rule="nonzero"/><path fill="#ffce0a" d="M 90.175781 93.273438 C 90.175781 93.765625 90.269531 94.242188 90.460938 94.699219 C 90.648438 95.15625 90.921875 95.558594 91.269531 95.90625 C 91.621094 96.257812 92.023438 96.527344 92.484375 96.714844 C 92.941406 96.902344 93.417969 97 93.914062 97 C 94.40625 97 94.882812 96.902344 95.34375 96.714844 C 95.800781 96.527344 96.203125 96.257812 96.554688 95.90625 C 96.90625 95.558594 97.175781 95.15625 97.363281 94.699219 C 97.554688 94.242188 97.648438 93.765625 97.648438 93.273438 C 97.648438 92.777344 97.554688 92.300781 97.363281 91.847656 C 97.175781 91.390625 96.90625 90.984375 96.554688 90.636719 C 96.203125 90.289062 95.800781 90.019531 95.34375 89.828125 C 94.882812 89.640625 94.40625 89.546875 93.914062 89.546875 C 93.417969 89.546875 92.941406 89.640625 92.484375 89.828125 C 92.023438 90.019531 91.621094 90.289062 91.269531 90.636719 C 90.921875 90.984375 90.648438 91.390625 90.460938 91.847656 C 90.269531 92.300781 90.175781 92.777344 90.175781 93.273438 Z M 90.175781 93.273438 " fill-opacity="1" fill-rule="nonzero"/><path fill="#ffce0a" d="M 67.757812 93.273438 C 67.757812 93.765625 67.851562 94.242188 68.042969 94.699219 C 68.230469 95.15625 68.5 95.558594 68.851562 95.90625 C 69.203125 96.257812 69.605469 96.527344 70.0625 96.714844 C 70.523438 96.902344 71 97 71.492188 97 C 71.988281 97 72.464844 96.902344 72.921875 96.714844 C 73.382812 96.527344 73.785156 96.257812 74.136719 95.90625 C 74.488281 95.558594 74.757812 95.15625 74.945312 94.699219 C 75.136719 94.242188 75.230469 93.765625 75.230469 93.273438 C 75.230469 92.777344 75.136719 92.300781 74.945312 91.847656 C 74.757812 91.390625 74.488281 90.984375 74.136719 90.636719 C 73.785156 90.289062 73.382812 90.019531 72.921875 89.828125 C 72.464844 89.640625 71.988281 89.546875 71.492188 89.546875 C 71 89.546875 70.523438 89.640625 70.0625 89.828125 C 69.605469 90.019531 69.203125 90.289062 68.851562 90.636719 C 68.5 90.984375 68.230469 91.390625 68.042969 91.847656 C 67.851562 92.300781 67.757812 92.777344 67.757812 93.273438 Z M 67.757812 93.273438 " fill-opacity="1" fill-rule="nonzero"/><path fill="#ffce0a" d="M 45.339844 93.273438 C 45.339844 93.765625 45.433594 94.242188 45.625 94.699219 C 45.8125 95.15625 46.082031 95.558594 46.433594 95.90625 C 46.785156 96.257812 47.1875 96.527344 47.644531 96.714844 C 48.101562 96.902344 48.578125 97 49.074219 97 C 49.570312 97 50.046875 96.902344 50.503906 96.714844 C 50.960938 96.527344 51.367188 96.257812 51.71875 95.90625 C 52.066406 95.558594 52.335938 95.15625 52.527344 94.699219 C 52.71875 94.242188 52.8125 93.765625 52.8125 93.273438 C 52.8125 92.777344 52.71875 92.300781 52.527344 91.847656 C 52.335938 91.390625 52.066406 90.984375 51.71875 90.636719 C 51.367188 90.289062 50.960938 90.019531 50.503906 89.828125 C 50.046875 89.640625 49.570312 89.546875 49.074219 89.546875 C 48.578125 89.546875 48.101562 89.640625 47.644531 89.828125 C 47.1875 90.019531 46.785156 90.289062 46.433594 90.636719 C 46.082031 90.984375 45.8125 91.390625 45.625 91.847656 C 45.433594 92.300781 45.339844 92.777344 45.339844 93.273438 Z M 45.339844 93.273438 " fill-opacity="1" fill-rule="nonzero"/><path fill="#ffce0a" d="M 22.921875 93.273438 C 22.921875 93.765625 23.015625 94.242188 23.203125 94.699219 C 23.394531 95.15625 23.664062 95.558594 24.015625 95.90625 C 24.363281 96.257812 24.769531 96.527344 25.226562 96.714844 C 25.683594 96.902344 26.160156 97 26.65625 97 C 27.152344 97 27.628906 96.902344 28.085938 96.714844 C 28.542969 96.527344 28.949219 96.257812 29.296875 95.90625 C 29.648438 95.558594 29.917969 95.15625 30.109375 94.699219 C 30.296875 94.242188 30.394531 93.765625 30.394531 93.273438 C 30.394531 92.777344 30.296875 92.300781 30.109375 91.847656 C 29.917969 91.390625 29.648438 90.984375 29.296875 90.636719 C 28.949219 90.289062 28.542969 90.019531 28.085938 89.828125 C 27.628906 89.640625 27.152344 89.546875 26.65625 89.546875 C 26.160156 89.546875 25.683594 89.640625 25.226562 89.828125 C 24.769531 90.019531 24.363281 90.289062 24.015625 90.636719 C 23.664062 90.984375 23.394531 91.390625 23.203125 91.847656 C 23.015625 92.300781 22.921875 92.777344 22.921875 93.273438 Z M 22.921875 93.273438 " fill-opacity="1" fill-rule="nonzero"/><path fill="#ffce0a" d="M 0.5 93.273438 C 0.5 93.765625 0.597656 94.242188 0.785156 94.699219 C 0.976562 95.15625 1.246094 95.558594 1.597656 95.90625 C 1.945312 96.257812 2.351562 96.527344 2.808594 96.714844 C 3.265625 96.902344 3.742188 97 4.238281 97 C 4.734375 97 5.210938 96.902344 5.667969 96.714844 C 6.125 96.527344 6.53125 96.257812 6.878906 95.90625 C 7.230469 95.558594 7.5 95.15625 7.691406 94.699219 C 7.878906 94.242188 7.972656 93.765625 7.972656 93.273438 C 7.972656 92.777344 7.878906 92.300781 7.691406 91.847656 C 7.5 91.390625 7.230469 90.984375 6.878906 90.636719 C 6.53125 90.289062 6.125 90.019531 5.667969 89.828125 C 5.210938 89.640625 4.734375 89.546875 4.238281 89.546875 C 3.742188 89.546875 3.265625 89.640625 2.808594 89.828125 C 2.351562 90.019531 1.945312 90.289062 1.597656 90.636719 C 1.246094 90.984375 0.976562 91.390625 0.785156 91.847656 C 0.597656 92.300781 0.5 92.777344 0.5 93.273438 Z M 0.5 93.273438 " fill-opacity="1" fill-rule="nonzero"/><g clip-path="url(#adcc585560)"><path fill="#5e17eb" d="M 269.527344 115.632812 C 269.527344 116.125 269.621094 116.601562 269.808594 117.058594 C 270 117.515625 270.269531 117.917969 270.621094 118.265625 C 270.96875 118.617188 271.375 118.886719 271.832031 119.074219 C 272.289062 119.261719 272.765625 119.359375 273.261719 119.359375 C 273.757812 119.359375 274.234375 119.261719 274.691406 119.074219 C 275.148438 118.886719 275.554688 118.617188 275.902344 118.265625 C 276.253906 117.917969 276.523438 117.515625 276.714844 117.058594 C 276.902344 116.601562 277 116.125 277 115.632812 C 277 115.136719 276.902344 114.660156 276.714844 114.207031 C 276.523438 113.75 276.253906 113.34375 275.902344 112.996094 C 275.554688 112.648438 275.148438 112.378906 274.691406 112.1875 C 274.234375 112 273.757812 111.90625 273.261719 111.90625 C 272.765625 111.90625 272.289062 112 271.832031 112.1875 C 271.375 112.378906 270.96875 112.648438 270.621094 112.996094 C 270.269531 113.34375 270 113.75 269.808594 114.207031 C 269.621094 114.660156 269.527344 115.136719 269.527344 115.632812 Z M 269.527344 115.632812 " fill-opacity="1" fill-rule="nonzero"/></g><g clip-path="url(#f7192297ca)"><path fill="#5e17eb" d="M 247.105469 115.632812 C 247.105469 116.125 247.203125 116.601562 247.390625 117.058594 C 247.582031 117.515625 247.851562 117.917969 248.203125 118.265625 C 248.550781 118.617188 248.957031 118.886719 249.414062 119.074219 C 249.871094 119.261719 250.347656 119.359375 250.84375 119.359375 C 251.339844 119.359375 251.816406 119.261719 252.273438 119.074219 C 252.730469 118.886719 253.136719 118.617188 253.484375 118.265625 C 253.835938 117.917969 254.105469 117.515625 254.296875 117.058594 C 254.484375 116.601562 254.578125 116.125 254.578125 115.632812 C 254.578125 115.136719 254.484375 114.660156 254.296875 114.207031 C 254.105469 113.75 253.835938 113.34375 253.484375 112.996094 C 253.136719 112.648438 252.730469 112.378906 252.273438 112.1875 C 251.816406 112 251.339844 111.90625 250.84375 111.90625 C 250.347656 111.90625 249.871094 112 249.414062 112.1875 C 248.957031 112.378906 248.550781 112.648438 248.203125 112.996094 C 247.851562 113.34375 247.582031 113.75 247.390625 114.207031 C 247.203125 114.660156 247.105469 115.136719 247.105469 115.632812 Z M 247.105469 115.632812 " fill-opacity="1" fill-rule="nonzero"/></g><g clip-path="url(#f60051cde8)"><path fill="#5e17eb" d="M 224.6875 115.632812 C 224.6875 116.125 224.78125 116.601562 224.972656 117.058594 C 225.164062 117.515625 225.433594 117.917969 225.78125 118.265625 C 226.132812 118.617188 226.539062 118.886719 226.996094 119.074219 C 227.453125 119.261719 227.929688 119.359375 228.425781 119.359375 C 228.921875 119.359375 229.398438 119.261719 229.855469 119.074219 C 230.3125 118.886719 230.714844 118.617188 231.066406 118.265625 C 231.417969 117.917969 231.6875 117.515625 231.875 117.058594 C 232.066406 116.601562 232.160156 116.125 232.160156 115.632812 C 232.160156 115.136719 232.066406 114.660156 231.875 114.207031 C 231.6875 113.75 231.417969 113.34375 231.066406 112.996094 C 230.714844 112.648438 230.3125 112.378906 229.855469 112.1875 C 229.398438 112 228.921875 111.90625 228.425781 111.90625 C 227.929688 111.90625 227.453125 112 226.996094 112.1875 C 226.539062 112.378906 226.132812 112.648438 225.78125 112.996094 C 225.433594 113.34375 225.164062 113.75 224.972656 114.207031 C 224.78125 114.660156 224.6875 115.136719 224.6875 115.632812 Z M 224.6875 115.632812 " fill-opacity="1" fill-rule="nonzero"/></g><g clip-path="url(#2db241dc60)"><path fill="#5e17eb" d="M 202.269531 115.632812 C 202.269531 116.125 202.363281 116.601562 202.554688 117.058594 C 202.742188 117.515625 203.011719 117.917969 203.363281 118.265625 C 203.714844 118.617188 204.117188 118.886719 204.578125 119.074219 C 205.035156 119.261719 205.511719 119.359375 206.007812 119.359375 C 206.5 119.359375 206.976562 119.261719 207.4375 119.074219 C 207.894531 118.886719 208.296875 118.617188 208.648438 118.265625 C 209 117.917969 209.269531 117.515625 209.457031 117.058594 C 209.648438 116.601562 209.742188 116.125 209.742188 115.632812 C 209.742188 115.136719 209.648438 114.660156 209.457031 114.207031 C 209.269531 113.75 209 113.34375 208.648438 112.996094 C 208.296875 112.648438 207.894531 112.378906 207.4375 112.1875 C 206.976562 112 206.5 111.90625 206.007812 111.90625 C 205.511719 111.90625 205.035156 112 204.578125 112.1875 C 204.117188 112.378906 203.714844 112.648438 203.363281 112.996094 C 203.011719 113.34375 202.742188 113.75 202.554688 114.207031 C 202.363281 114.660156 202.269531 115.136719 202.269531 115.632812 Z M 202.269531 115.632812 " fill-opacity="1" fill-rule="nonzero"/></g><g clip-path="url(#d40cd3a66f)"><path fill="#5e17eb" d="M 179.851562 115.632812 C 179.851562 116.125 179.945312 116.601562 180.136719 117.058594 C 180.324219 117.515625 180.59375 117.917969 180.945312 118.265625 C 181.296875 118.617188 181.699219 118.886719 182.15625 119.074219 C 182.617188 119.261719 183.09375 119.359375 183.585938 119.359375 C 184.082031 119.359375 184.558594 119.261719 185.015625 119.074219 C 185.476562 118.886719 185.878906 118.617188 186.230469 118.265625 C 186.578125 117.917969 186.851562 117.515625 187.039062 117.058594 C 187.230469 116.601562 187.324219 116.125 187.324219 115.632812 C 187.324219 115.136719 187.230469 114.660156 187.039062 114.207031 C 186.851562 113.75 186.578125 113.34375 186.230469 112.996094 C 185.878906 112.648438 185.476562 112.378906 185.015625 112.1875 C 184.558594 112 184.082031 111.90625 183.585938 111.90625 C 183.09375 111.90625 182.617188 112 182.15625 112.1875 C 181.699219 112.378906 181.296875 112.648438 180.945312 112.996094 C 180.59375 113.34375 180.324219 113.75 180.136719 114.207031 C 179.945312 114.660156 179.851562 115.136719 179.851562 115.632812 Z M 179.851562 115.632812 " fill-opacity="1" fill-rule="nonzero"/></g><g clip-path="url(#6b4dc14dc7)"><path fill="#5e17eb" d="M 157.433594 115.632812 C 157.433594 116.125 157.527344 116.601562 157.714844 117.058594 C 157.90625 117.515625 158.175781 117.917969 158.527344 118.265625 C 158.878906 118.617188 159.28125 118.886719 159.738281 119.074219 C 160.195312 119.261719 160.671875 119.359375 161.167969 119.359375 C 161.664062 119.359375 162.140625 119.261719 162.597656 119.074219 C 163.054688 118.886719 163.460938 118.617188 163.8125 118.265625 C 164.160156 117.917969 164.429688 117.515625 164.621094 117.058594 C 164.808594 116.601562 164.90625 116.125 164.90625 115.632812 C 164.90625 115.136719 164.808594 114.660156 164.621094 114.207031 C 164.429688 113.75 164.160156 113.34375 163.8125 112.996094 C 163.460938 112.648438 163.054688 112.378906 162.597656 112.1875 C 162.140625 112 161.664062 111.90625 161.167969 111.90625 C 160.671875 111.90625 160.195312 112 159.738281 112.1875 C 159.28125 112.378906 158.878906 112.648438 158.527344 112.996094 C 158.175781 113.34375 157.90625 113.75 157.714844 114.207031 C 157.527344 114.660156 157.433594 115.136719 157.433594 115.632812 Z M 157.433594 115.632812 " fill-opacity="1" fill-rule="nonzero"/></g><g clip-path="url(#f470c2d081)"><path fill="#5e17eb" d="M 135.011719 115.632812 C 135.011719 116.125 135.109375 116.601562 135.296875 117.058594 C 135.488281 117.515625 135.757812 117.917969 136.109375 118.265625 C 136.457031 118.617188 136.863281 118.886719 137.320312 119.074219 C 137.777344 119.261719 138.253906 119.359375 138.75 119.359375 C 139.246094 119.359375 139.722656 119.261719 140.179688 119.074219 C 140.636719 118.886719 141.042969 118.617188 141.390625 118.265625 C 141.742188 117.917969 142.011719 117.515625 142.203125 117.058594 C 142.390625 116.601562 142.488281 116.125 142.488281 115.632812 C 142.488281 115.136719 142.390625 114.660156 142.203125 114.207031 C 142.011719 113.75 141.742188 113.34375 141.390625 112.996094 C 141.042969 112.648438 140.636719 112.378906 140.179688 112.1875 C 139.722656 112 139.246094 111.90625 138.75 111.90625 C 138.253906 111.90625 137.777344 112 137.320312 112.1875 C 136.863281 112.378906 136.457031 112.648438 136.109375 112.996094 C 135.757812 113.34375 135.488281 113.75 135.296875 114.207031 C 135.109375 114.660156 135.011719 115.136719 135.011719 115.632812 Z M 135.011719 115.632812 " fill-opacity="1" fill-rule="nonzero"/></g><g clip-path="url(#5bd94d763d)"><path fill="#5e17eb" d="M 112.59375 115.632812 C 112.59375 116.125 112.691406 116.601562 112.878906 117.058594 C 113.070312 117.515625 113.339844 117.917969 113.6875 118.265625 C 114.039062 118.617188 114.445312 118.886719 114.902344 119.074219 C 115.359375 119.261719 115.835938 119.359375 116.332031 119.359375 C 116.828125 119.359375 117.304688 119.261719 117.761719 119.074219 C 118.21875 118.886719 118.621094 118.617188 118.972656 118.265625 C 119.324219 117.917969 119.59375 117.515625 119.785156 117.058594 C 119.972656 116.601562 120.066406 116.125 120.066406 115.632812 C 120.066406 115.136719 119.972656 114.660156 119.785156 114.207031 C 119.59375 113.75 119.324219 113.34375 118.972656 112.996094 C 118.621094 112.648438 118.21875 112.378906 117.761719 112.1875 C 117.304688 112 116.828125 111.90625 116.332031 111.90625 C 115.835938 111.90625 115.359375 112 114.902344 112.1875 C 114.445312 112.378906 114.039062 112.648438 113.6875 112.996094 C 113.339844 113.34375 113.070312 113.75 112.878906 114.207031 C 112.691406 114.660156 112.59375 115.136719 112.59375 115.632812 Z M 112.59375 115.632812 " fill-opacity="1" fill-rule="nonzero"/></g><g clip-path="url(#740963588b)"><path fill="#ffce0a" d="M 90.175781 115.632812 C 90.175781 116.125 90.269531 116.601562 90.460938 117.058594 C 90.648438 117.515625 90.921875 117.917969 91.269531 118.265625 C 91.621094 118.617188 92.023438 118.886719 92.484375 119.074219 C 92.941406 119.261719 93.417969 119.359375 93.914062 119.359375 C 94.40625 119.359375 94.882812 119.261719 95.34375 119.074219 C 95.800781 118.886719 96.203125 118.617188 96.554688 118.265625 C 96.90625 117.917969 97.175781 117.515625 97.363281 117.058594 C 97.554688 116.601562 97.648438 116.125 97.648438 115.632812 C 97.648438 115.136719 97.554688 114.660156 97.363281 114.207031 C 97.175781 113.75 96.90625 113.34375 96.554688 112.996094 C 96.203125 112.648438 95.800781 112.378906 95.34375 112.1875 C 94.882812 112 94.40625 111.90625 93.914062 111.90625 C 93.417969 111.90625 92.941406 112 92.484375 112.1875 C 92.023438 112.378906 91.621094 112.648438 91.269531 112.996094 C 90.921875 113.34375 90.648438 113.75 90.460938 114.207031 C 90.269531 114.660156 90.175781 115.136719 90.175781 115.632812 Z M 90.175781 115.632812 " fill-opacity="1" fill-rule="nonzero"/></g><g clip-path="url(#738186015e)"><path fill="#ffce0a" d="M 67.757812 115.632812 C 67.757812 116.125 67.851562 116.601562 68.042969 117.058594 C 68.230469 117.515625 68.5 117.917969 68.851562 118.265625 C 69.203125 118.617188 69.605469 118.886719 70.0625 119.074219 C 70.523438 119.261719 71 119.359375 71.492188 119.359375 C 71.988281 119.359375 72.464844 119.261719 72.921875 119.074219 C 73.382812 118.886719 73.785156 118.617188 74.136719 118.265625 C 74.488281 117.917969 74.757812 117.515625 74.945312 117.058594 C 75.136719 116.601562 75.230469 116.125 75.230469 115.632812 C 75.230469 115.136719 75.136719 114.660156 74.945312 114.207031 C 74.757812 113.75 74.488281 113.34375 74.136719 112.996094 C 73.785156 112.648438 73.382812 112.378906 72.921875 112.1875 C 72.464844 112 71.988281 111.90625 71.492188 111.90625 C 71 111.90625 70.523438 112 70.0625 112.1875 C 69.605469 112.378906 69.203125 112.648438 68.851562 112.996094 C 68.5 113.34375 68.230469 113.75 68.042969 114.207031 C 67.851562 114.660156 67.757812 115.136719 67.757812 115.632812 Z M 67.757812 115.632812 " fill-opacity="1" fill-rule="nonzero"/></g><g clip-path="url(#c6da664444)"><path fill="#ffce0a" d="M 45.339844 115.632812 C 45.339844 116.125 45.433594 116.601562 45.625 117.058594 C 45.8125 117.515625 46.082031 117.917969 46.433594 118.265625 C 46.785156 118.617188 47.1875 118.886719 47.644531 119.074219 C 48.101562 119.261719 48.578125 119.359375 49.074219 119.359375 C 49.570312 119.359375 50.046875 119.261719 50.503906 119.074219 C 50.960938 118.886719 51.367188 118.617188 51.71875 118.265625 C 52.066406 117.917969 52.335938 117.515625 52.527344 117.058594 C 52.71875 116.601562 52.8125 116.125 52.8125 115.632812 C 52.8125 115.136719 52.71875 114.660156 52.527344 114.207031 C 52.335938 113.75 52.066406 113.34375 51.71875 112.996094 C 51.367188 112.648438 50.960938 112.378906 50.503906 112.1875 C 50.046875 112 49.570312 111.90625 49.074219 111.90625 C 48.578125 111.90625 48.101562 112 47.644531 112.1875 C 47.1875 112.378906 46.785156 112.648438 46.433594 112.996094 C 46.082031 113.34375 45.8125 113.75 45.625 114.207031 C 45.433594 114.660156 45.339844 115.136719 45.339844 115.632812 Z M 45.339844 115.632812 " fill-opacity="1" fill-rule="nonzero"/></g><g clip-path="url(#d9c736bc38)"><path fill="#ffce0a" d="M 22.921875 115.632812 C 22.921875 116.125 23.015625 116.601562 23.203125 117.058594 C 23.394531 117.515625 23.664062 117.917969 24.015625 118.265625 C 24.363281 118.617188 24.769531 118.886719 25.226562 119.074219 C 25.683594 119.261719 26.160156 119.359375 26.65625 119.359375 C 27.152344 119.359375 27.628906 119.261719 28.085938 119.074219 C 28.542969 118.886719 28.949219 118.617188 29.296875 118.265625 C 29.648438 117.917969 29.917969 117.515625 30.109375 117.058594 C 30.296875 116.601562 30.394531 116.125 30.394531 115.632812 C 30.394531 115.136719 30.296875 114.660156 30.109375 114.207031 C 29.917969 113.75 29.648438 113.34375 29.296875 112.996094 C 28.949219 112.648438 28.542969 112.378906 28.085938 112.1875 C 27.628906 112 27.152344 111.90625 26.65625 111.90625 C 26.160156 111.90625 25.683594 112 25.226562 112.1875 C 24.769531 112.378906 24.363281 112.648438 24.015625 112.996094 C 23.664062 113.34375 23.394531 113.75 23.203125 114.207031 C 23.015625 114.660156 22.921875 115.136719 22.921875 115.632812 Z M 22.921875 115.632812 " fill-opacity="1" fill-rule="nonzero"/></g><g clip-path="url(#606628ba84)"><path fill="#ffce0a" d="M 0.5 115.632812 C 0.5 116.125 0.597656 116.601562 0.785156 117.058594 C 0.976562 117.515625 1.246094 117.917969 1.597656 118.265625 C 1.945312 118.617188 2.351562 118.886719 2.808594 119.074219 C 3.265625 119.261719 3.742188 119.359375 4.238281 119.359375 C 4.734375 119.359375 5.210938 119.261719 5.667969 119.074219 C 6.125 118.886719 6.53125 118.617188 6.878906 118.265625 C 7.230469 117.917969 7.5 117.515625 7.691406 117.058594 C 7.878906 116.601562 7.972656 116.125 7.972656 115.632812 C 7.972656 115.136719 7.878906 114.660156 7.691406 114.207031 C 7.5 113.75 7.230469 113.34375 6.878906 112.996094 C 6.53125 112.648438 6.125 112.378906 5.667969 112.1875 C 5.210938 112 4.734375 111.90625 4.238281 111.90625 C 3.742188 111.90625 3.265625 112 2.808594 112.1875 C 2.351562 112.378906 1.945312 112.648438 1.597656 112.996094 C 1.246094 113.34375 0.976562 113.75 0.785156 114.207031 C 0.597656 114.660156 0.5 115.136719 0.5 115.632812 Z M 0.5 115.632812 " fill-opacity="1" fill-rule="nonzero"/></g></svg>