<svg xmlns="http://www.w3.org/2000/svg" xmlns:xlink="http://www.w3.org/1999/xlink" width="370" zoomAndPan="magnify" viewBox="0 0 277.5 119.999999" height="160" preserveAspectRatio="xMidYMid meet" version="1.0"><defs><clipPath id="efd46b9db7"><path d="M 0 0.109375 L 8 0.109375 L 8 8 L 0 8 Z M 0 0.109375 " clip-rule="nonzero"/></clipPath><clipPath id="aaddc9b295"><path d="M 22 0.109375 L 31 0.109375 L 31 8 L 22 8 Z M 22 0.109375 " clip-rule="nonzero"/></clipPath><clipPath id="fe82f4c788"><path d="M 45 0.109375 L 53 0.109375 L 53 8 L 45 8 Z M 45 0.109375 " clip-rule="nonzero"/></clipPath><clipPath id="0b51f62c07"><path d="M 67 0.109375 L 76 0.109375 L 76 8 L 67 8 Z M 67 0.109375 " clip-rule="nonzero"/></clipPath><clipPath id="54c8930164"><path d="M 90 0.109375 L 98 0.109375 L 98 8 L 90 8 Z M 90 0.109375 " clip-rule="nonzero"/></clipPath><clipPath id="fbc9e17a71"><path d="M 112 0.109375 L 121 0.109375 L 121 8 L 112 8 Z M 112 0.109375 " clip-rule="nonzero"/></clipPath><clipPath id="bf4b8f5988"><path d="M 135 0.109375 L 143 0.109375 L 143 8 L 135 8 Z M 135 0.109375 " clip-rule="nonzero"/></clipPath><clipPath id="a75c3483f7"><path d="M 157 0.109375 L 165 0.109375 L 165 8 L 157 8 Z M 157 0.109375 " clip-rule="nonzero"/></clipPath><clipPath id="4d6fa87703"><path d="M 179 0.109375 L 188 0.109375 L 188 8 L 179 8 Z M 179 0.109375 " clip-rule="nonzero"/></clipPath><clipPath id="151589ac3a"><path d="M 202 0.109375 L 210 0.109375 L 210 8 L 202 8 Z M 202 0.109375 " clip-rule="nonzero"/></clipPath><clipPath id="f9b4c83934"><path d="M 224 0.109375 L 233 0.109375 L 233 8 L 224 8 Z M 224 0.109375 " clip-rule="nonzero"/></clipPath><clipPath id="9b30698cbb"><path d="M 247 0.109375 L 255 0.109375 L 255 8 L 247 8 Z M 247 0.109375 " clip-rule="nonzero"/></clipPath><clipPath id="03b4d921fe"><path d="M 269 0.109375 L 277 0.109375 L 277 8 L 269 8 Z M 269 0.109375 " clip-rule="nonzero"/></clipPath><clipPath id="501dd13afa"><path d="M 0 111 L 8 111 L 8 119.359375 L 0 119.359375 Z M 0 111 " clip-rule="nonzero"/></clipPath><clipPath id="bac3f3936c"><path d="M 22 111 L 31 111 L 31 119.359375 L 22 119.359375 Z M 22 111 " clip-rule="nonzero"/></clipPath><clipPath id="7b42b1487d"><path d="M 45 111 L 53 111 L 53 119.359375 L 45 119.359375 Z M 45 111 " clip-rule="nonzero"/></clipPath><clipPath id="469054f862"><path d="M 67 111 L 76 111 L 76 119.359375 L 67 119.359375 Z M 67 111 " clip-rule="nonzero"/></clipPath><clipPath id="fb4df2dfd1"><path d="M 90 111 L 98 111 L 98 119.359375 L 90 119.359375 Z M 90 111 " clip-rule="nonzero"/></clipPath><clipPath id="3c8dbc129b"><path d="M 112 111 L 121 111 L 121 119.359375 L 112 119.359375 Z M 112 111 " clip-rule="nonzero"/></clipPath><clipPath id="b0e8b3eed4"><path d="M 135 111 L 143 111 L 143 119.359375 L 135 119.359375 Z M 135 111 " clip-rule="nonzero"/></clipPath><clipPath id="f4cb2044ae"><path d="M 157 111 L 165 111 L 165 119.359375 L 157 119.359375 Z M 157 111 " clip-rule="nonzero"/></clipPath><clipPath id="8e4bab1eee"><path d="M 179 111 L 188 111 L 188 119.359375 L 179 119.359375 Z M 179 111 " clip-rule="nonzero"/></clipPath><clipPath id="ef56edb096"><path d="M 202 111 L 210 111 L 210 119.359375 L 202 119.359375 Z M 202 111 " clip-rule="nonzero"/></clipPath><clipPath id="1a17daffb5"><path d="M 224 111 L 233 111 L 233 119.359375 L 224 119.359375 Z M 224 111 " clip-rule="nonzero"/></clipPath><clipPath id="21db085090"><path d="M 247 111 L 255 111 L 255 119.359375 L 247 119.359375 Z M 247 111 " clip-rule="nonzero"/></clipPath><clipPath id="94d7aa1825"><path d="M 269 111 L 277 111 L 277 119.359375 L 269 119.359375 Z M 269 111 " clip-rule="nonzero"/></clipPath></defs><g clip-path="url(#efd46b9db7)"><path fill="#8c52ff" d="M 7.972656 3.835938 C 7.972656 4.328125 7.878906 4.804688 7.691406 5.261719 C 7.5 5.71875 7.230469 6.121094 6.878906 6.46875 C 6.53125 6.820312 6.125 7.089844 5.667969 7.277344 C 5.210938 7.464844 4.734375 7.5625 4.238281 7.5625 C 3.742188 7.5625 3.265625 7.464844 2.808594 7.277344 C 2.351562 7.089844 1.945312 6.820312 1.597656 6.46875 C 1.246094 6.121094 0.976562 5.71875 0.785156 5.261719 C 0.597656 4.804688 0.5 4.328125 0.5 3.835938 C 0.5 3.339844 0.597656 2.863281 0.785156 2.410156 C 0.976562 1.953125 1.246094 1.550781 1.597656 1.199219 C 1.945312 0.851562 2.351562 0.582031 2.808594 0.390625 C 3.265625 0.203125 3.742188 0.109375 4.238281 0.109375 C 4.734375 0.109375 5.210938 0.203125 5.667969 0.390625 C 6.125 0.582031 6.53125 0.851562 6.878906 1.199219 C 7.230469 1.550781 7.5 1.953125 7.691406 2.410156 C 7.878906 2.863281 7.972656 3.339844 7.972656 3.835938 Z M 7.972656 3.835938 " fill-opacity="1" fill-rule="nonzero"/></g><g clip-path="url(#aaddc9b295)"><path fill="#8c52ff" d="M 30.394531 3.835938 C 30.394531 4.328125 30.296875 4.804688 30.109375 5.261719 C 29.917969 5.71875 29.648438 6.121094 29.296875 6.46875 C 28.949219 6.820312 28.542969 7.089844 28.085938 7.277344 C 27.628906 7.464844 27.152344 7.5625 26.65625 7.5625 C 26.160156 7.5625 25.683594 7.464844 25.226562 7.277344 C 24.769531 7.089844 24.363281 6.820312 24.015625 6.46875 C 23.664062 6.121094 23.394531 5.71875 23.203125 5.261719 C 23.015625 4.804688 22.921875 4.328125 22.921875 3.835938 C 22.921875 3.339844 23.015625 2.863281 23.203125 2.410156 C 23.394531 1.953125 23.664062 1.550781 24.015625 1.199219 C 24.363281 0.851562 24.769531 0.582031 25.226562 0.390625 C 25.683594 0.203125 26.160156 0.109375 26.65625 0.109375 C 27.152344 0.109375 27.628906 0.203125 28.085938 0.390625 C 28.542969 0.582031 28.949219 0.851562 29.296875 1.199219 C 29.648438 1.550781 29.917969 1.953125 30.109375 2.410156 C 30.296875 2.863281 30.394531 3.339844 30.394531 3.835938 Z M 30.394531 3.835938 " fill-opacity="1" fill-rule="nonzero"/></g><g clip-path="url(#fe82f4c788)"><path fill="#8c52ff" d="M 52.8125 3.835938 C 52.8125 4.328125 52.71875 4.804688 52.527344 5.261719 C 52.335938 5.71875 52.066406 6.121094 51.71875 6.46875 C 51.367188 6.820312 50.960938 7.089844 50.503906 7.277344 C 50.046875 7.464844 49.570312 7.5625 49.074219 7.5625 C 48.578125 7.5625 48.101562 7.464844 47.644531 7.277344 C 47.1875 7.089844 46.785156 6.820312 46.433594 6.46875 C 46.082031 6.121094 45.8125 5.71875 45.625 5.261719 C 45.433594 4.804688 45.339844 4.328125 45.339844 3.835938 C 45.339844 3.339844 45.433594 2.863281 45.625 2.410156 C 45.8125 1.953125 46.082031 1.550781 46.433594 1.199219 C 46.785156 0.851562 47.1875 0.582031 47.644531 0.390625 C 48.101562 0.203125 48.578125 0.109375 49.074219 0.109375 C 49.570312 0.109375 50.046875 0.203125 50.503906 0.390625 C 50.960938 0.582031 51.367188 0.851562 51.71875 1.199219 C 52.066406 1.550781 52.335938 1.953125 52.527344 2.410156 C 52.71875 2.863281 52.8125 3.339844 52.8125 3.835938 Z M 52.8125 3.835938 " fill-opacity="1" fill-rule="nonzero"/></g><g clip-path="url(#0b51f62c07)"><path fill="#8c52ff" d="M 75.230469 3.835938 C 75.230469 4.328125 75.136719 4.804688 74.945312 5.261719 C 74.757812 5.71875 74.484375 6.121094 74.136719 6.46875 C 73.785156 6.820312 73.382812 7.089844 72.921875 7.277344 C 72.464844 7.464844 71.988281 7.5625 71.492188 7.5625 C 71 7.5625 70.523438 7.464844 70.0625 7.277344 C 69.605469 7.089844 69.203125 6.820312 68.851562 6.46875 C 68.5 6.121094 68.230469 5.71875 68.042969 5.261719 C 67.851562 4.804688 67.757812 4.328125 67.757812 3.835938 C 67.757812 3.339844 67.851562 2.863281 68.042969 2.410156 C 68.230469 1.953125 68.5 1.550781 68.851562 1.199219 C 69.203125 0.851562 69.605469 0.582031 70.0625 0.390625 C 70.523438 0.203125 71 0.109375 71.492188 0.109375 C 71.988281 0.109375 72.464844 0.203125 72.921875 0.390625 C 73.382812 0.582031 73.785156 0.851562 74.136719 1.199219 C 74.484375 1.550781 74.757812 1.953125 74.945312 2.410156 C 75.136719 2.863281 75.230469 3.339844 75.230469 3.835938 Z M 75.230469 3.835938 " fill-opacity="1" fill-rule="nonzero"/></g><g clip-path="url(#54c8930164)"><path fill="#8c52ff" d="M 97.648438 3.835938 C 97.648438 4.328125 97.554688 4.804688 97.363281 5.261719 C 97.175781 5.71875 96.90625 6.121094 96.554688 6.46875 C 96.203125 6.820312 95.800781 7.089844 95.34375 7.277344 C 94.882812 7.464844 94.40625 7.5625 93.914062 7.5625 C 93.417969 7.5625 92.941406 7.464844 92.484375 7.277344 C 92.023438 7.089844 91.621094 6.820312 91.269531 6.46875 C 90.921875 6.121094 90.648438 5.71875 90.460938 5.261719 C 90.269531 4.804688 90.175781 4.328125 90.175781 3.835938 C 90.175781 3.339844 90.269531 2.863281 90.460938 2.410156 C 90.648438 1.953125 90.921875 1.550781 91.269531 1.199219 C 91.621094 0.851562 92.023438 0.582031 92.484375 0.390625 C 92.941406 0.203125 93.417969 0.109375 93.914062 0.109375 C 94.40625 0.109375 94.882812 0.203125 95.34375 0.390625 C 95.800781 0.582031 96.203125 0.851562 96.554688 1.199219 C 96.90625 1.550781 97.175781 1.953125 97.363281 2.410156 C 97.554688 2.863281 97.648438 3.339844 97.648438 3.835938 Z M 97.648438 3.835938 " fill-opacity="1" fill-rule="nonzero"/></g><g clip-path="url(#fbc9e17a71)"><path fill="#8c52ff" d="M 120.066406 3.835938 C 120.066406 4.328125 119.972656 4.804688 119.785156 5.261719 C 119.59375 5.71875 119.324219 6.121094 118.972656 6.46875 C 118.621094 6.820312 118.21875 7.089844 117.761719 7.277344 C 117.304688 7.464844 116.828125 7.5625 116.332031 7.5625 C 115.835938 7.5625 115.359375 7.464844 114.902344 7.277344 C 114.445312 7.089844 114.039062 6.820312 113.6875 6.46875 C 113.339844 6.121094 113.070312 5.71875 112.878906 5.261719 C 112.691406 4.804688 112.59375 4.328125 112.59375 3.835938 C 112.59375 3.339844 112.691406 2.863281 112.878906 2.410156 C 113.070312 1.953125 113.339844 1.550781 113.6875 1.199219 C 114.039062 0.851562 114.445312 0.582031 114.902344 0.390625 C 115.359375 0.203125 115.835938 0.109375 116.332031 0.109375 C 116.828125 0.109375 117.304688 0.203125 117.761719 0.390625 C 118.21875 0.582031 118.621094 0.851562 118.972656 1.199219 C 119.324219 1.550781 119.59375 1.953125 119.785156 2.410156 C 119.972656 2.863281 120.066406 3.339844 120.066406 3.835938 Z M 120.066406 3.835938 " fill-opacity="1" fill-rule="nonzero"/></g><g clip-path="url(#bf4b8f5988)"><path fill="#8c52ff" d="M 142.488281 3.835938 C 142.488281 4.328125 142.390625 4.804688 142.203125 5.261719 C 142.011719 5.71875 141.742188 6.121094 141.390625 6.46875 C 141.042969 6.820312 140.636719 7.089844 140.179688 7.277344 C 139.722656 7.464844 139.246094 7.5625 138.75 7.5625 C 138.253906 7.5625 137.777344 7.464844 137.320312 7.277344 C 136.863281 7.089844 136.457031 6.820312 136.109375 6.46875 C 135.757812 6.121094 135.488281 5.71875 135.296875 5.261719 C 135.109375 4.804688 135.011719 4.328125 135.011719 3.835938 C 135.011719 3.339844 135.109375 2.863281 135.296875 2.410156 C 135.488281 1.953125 135.757812 1.550781 136.109375 1.199219 C 136.457031 0.851562 136.863281 0.582031 137.320312 0.390625 C 137.777344 0.203125 138.253906 0.109375 138.75 0.109375 C 139.246094 0.109375 139.722656 0.203125 140.179688 0.390625 C 140.636719 0.582031 141.042969 0.851562 141.390625 1.199219 C 141.742188 1.550781 142.011719 1.953125 142.203125 2.410156 C 142.390625 2.863281 142.488281 3.339844 142.488281 3.835938 Z M 142.488281 3.835938 " fill-opacity="1" fill-rule="nonzero"/></g><g clip-path="url(#a75c3483f7)"><path fill="#8c52ff" d="M 164.90625 3.835938 C 164.90625 4.328125 164.808594 4.804688 164.621094 5.261719 C 164.429688 5.71875 164.160156 6.121094 163.8125 6.46875 C 163.460938 6.820312 163.054688 7.089844 162.597656 7.277344 C 162.140625 7.464844 161.664062 7.5625 161.167969 7.5625 C 160.671875 7.5625 160.195312 7.464844 159.738281 7.277344 C 159.28125 7.089844 158.878906 6.820312 158.527344 6.46875 C 158.175781 6.121094 157.90625 5.71875 157.714844 5.261719 C 157.527344 4.804688 157.433594 4.328125 157.433594 3.835938 C 157.433594 3.339844 157.527344 2.863281 157.714844 2.410156 C 157.90625 1.953125 158.175781 1.550781 158.527344 1.199219 C 158.878906 0.851562 159.28125 0.582031 159.738281 0.390625 C 160.195312 0.203125 160.671875 0.109375 161.167969 0.109375 C 161.664062 0.109375 162.140625 0.203125 162.597656 0.390625 C 163.054688 0.582031 163.460938 0.851562 163.8125 1.199219 C 164.160156 1.550781 164.429688 1.953125 164.621094 2.410156 C 164.808594 2.863281 164.90625 3.339844 164.90625 3.835938 Z M 164.90625 3.835938 " fill-opacity="1" fill-rule="nonzero"/></g><g clip-path="url(#4d6fa87703)"><path fill="#8c52ff" d="M 187.324219 3.835938 C 187.324219 4.328125 187.230469 4.804688 187.039062 5.261719 C 186.851562 5.71875 186.578125 6.121094 186.230469 6.46875 C 185.878906 6.820312 185.476562 7.089844 185.015625 7.277344 C 184.558594 7.464844 184.082031 7.5625 183.585938 7.5625 C 183.09375 7.5625 182.617188 7.464844 182.15625 7.277344 C 181.699219 7.089844 181.296875 6.820312 180.945312 6.46875 C 180.59375 6.121094 180.324219 5.71875 180.136719 5.261719 C 179.945312 4.804688 179.851562 4.328125 179.851562 3.835938 C 179.851562 3.339844 179.945312 2.863281 180.136719 2.410156 C 180.324219 1.953125 180.59375 1.550781 180.945312 1.199219 C 181.296875 0.851562 181.699219 0.582031 182.15625 0.390625 C 182.617188 0.203125 183.09375 0.109375 183.585938 0.109375 C 184.082031 0.109375 184.558594 0.203125 185.015625 0.390625 C 185.476562 0.582031 185.878906 0.851562 186.230469 1.199219 C 186.578125 1.550781 186.851562 1.953125 187.039062 2.410156 C 187.230469 2.863281 187.324219 3.339844 187.324219 3.835938 Z M 187.324219 3.835938 " fill-opacity="1" fill-rule="nonzero"/></g><g clip-path="url(#151589ac3a)"><path fill="#8c52ff" d="M 209.742188 3.835938 C 209.742188 4.328125 209.648438 4.804688 209.457031 5.261719 C 209.269531 5.71875 209 6.121094 208.648438 6.46875 C 208.296875 6.820312 207.894531 7.089844 207.4375 7.277344 C 206.976562 7.464844 206.5 7.5625 206.007812 7.5625 C 205.511719 7.5625 205.035156 7.464844 204.578125 7.277344 C 204.117188 7.089844 203.714844 6.820312 203.363281 6.46875 C 203.011719 6.121094 202.742188 5.71875 202.554688 5.261719 C 202.363281 4.804688 202.269531 4.328125 202.269531 3.835938 C 202.269531 3.339844 202.363281 2.863281 202.554688 2.410156 C 202.742188 1.953125 203.011719 1.550781 203.363281 1.199219 C 203.714844 0.851562 204.117188 0.582031 204.578125 0.390625 C 205.035156 0.203125 205.511719 0.109375 206.007812 0.109375 C 206.5 0.109375 206.976562 0.203125 207.4375 0.390625 C 207.894531 0.582031 208.296875 0.851562 208.648438 1.199219 C 209 1.550781 209.269531 1.953125 209.457031 2.410156 C 209.648438 2.863281 209.742188 3.339844 209.742188 3.835938 Z M 209.742188 3.835938 " fill-opacity="1" fill-rule="nonzero"/></g><g clip-path="url(#f9b4c83934)"><path fill="#8c52ff" d="M 232.160156 3.835938 C 232.160156 4.328125 232.066406 4.804688 231.875 5.261719 C 231.6875 5.71875 231.417969 6.121094 231.066406 6.46875 C 230.714844 6.820312 230.3125 7.089844 229.855469 7.277344 C 229.398438 7.464844 228.921875 7.5625 228.425781 7.5625 C 227.929688 7.5625 227.453125 7.464844 226.996094 7.277344 C 226.539062 7.089844 226.132812 6.820312 225.78125 6.46875 C 225.433594 6.121094 225.164062 5.71875 224.972656 5.261719 C 224.78125 4.804688 224.6875 4.328125 224.6875 3.835938 C 224.6875 3.339844 224.78125 2.863281 224.972656 2.410156 C 225.164062 1.953125 225.433594 1.550781 225.78125 1.199219 C 226.132812 0.851562 226.539062 0.582031 226.996094 0.390625 C 227.453125 0.203125 227.929688 0.109375 228.425781 0.109375 C 228.921875 0.109375 229.398438 0.203125 229.855469 0.390625 C 230.3125 0.582031 230.714844 0.851562 231.066406 1.199219 C 231.417969 1.550781 231.6875 1.953125 231.875 2.410156 C 232.066406 2.863281 232.160156 3.339844 232.160156 3.835938 Z M 232.160156 3.835938 " fill-opacity="1" fill-rule="nonzero"/></g><g clip-path="url(#9b30698cbb)"><path fill="#8c52ff" d="M 254.578125 3.835938 C 254.578125 4.328125 254.484375 4.804688 254.296875 5.261719 C 254.105469 5.71875 253.835938 6.121094 253.484375 6.46875 C 253.136719 6.820312 252.730469 7.089844 252.273438 7.277344 C 251.816406 7.464844 251.339844 7.5625 250.84375 7.5625 C 250.347656 7.5625 249.871094 7.464844 249.414062 7.277344 C 248.957031 7.089844 248.550781 6.820312 248.203125 6.46875 C 247.851562 6.121094 247.582031 5.71875 247.390625 5.261719 C 247.203125 4.804688 247.105469 4.328125 247.105469 3.835938 C 247.105469 3.339844 247.203125 2.863281 247.390625 2.410156 C 247.582031 1.953125 247.851562 1.550781 248.203125 1.199219 C 248.550781 0.851562 248.957031 0.582031 249.414062 0.390625 C 249.871094 0.203125 250.347656 0.109375 250.84375 0.109375 C 251.339844 0.109375 251.816406 0.203125 252.273438 0.390625 C 252.730469 0.582031 253.136719 0.851562 253.484375 1.199219 C 253.835938 1.550781 254.105469 1.953125 254.296875 2.410156 C 254.484375 2.863281 254.578125 3.339844 254.578125 3.835938 Z M 254.578125 3.835938 " fill-opacity="1" fill-rule="nonzero"/></g><g clip-path="url(#03b4d921fe)"><path fill="#8c52ff" d="M 277 3.835938 C 277 4.328125 276.902344 4.804688 276.714844 5.261719 C 276.523438 5.71875 276.253906 6.121094 275.902344 6.46875 C 275.554688 6.820312 275.148438 7.089844 274.691406 7.277344 C 274.234375 7.464844 273.757812 7.5625 273.261719 7.5625 C 272.765625 7.5625 272.289062 7.464844 271.832031 7.277344 C 271.375 7.089844 270.96875 6.820312 270.621094 6.46875 C 270.269531 6.121094 270 5.71875 269.808594 5.261719 C 269.621094 4.804688 269.527344 4.328125 269.527344 3.835938 C 269.527344 3.339844 269.621094 2.863281 269.808594 2.410156 C 270 1.953125 270.269531 1.550781 270.621094 1.199219 C 270.96875 0.851562 271.375 0.582031 271.832031 0.390625 C 272.289062 0.203125 272.765625 0.109375 273.261719 0.109375 C 273.757812 0.109375 274.234375 0.203125 274.691406 0.390625 C 275.148438 0.582031 275.554688 0.851562 275.902344 1.199219 C 276.253906 1.550781 276.523438 1.953125 276.714844 2.410156 C 276.902344 2.863281 277 3.339844 277 3.835938 Z M 277 3.835938 " fill-opacity="1" fill-rule="nonzero"/></g><path fill="#8c52ff" d="M 7.972656 26.195312 C 7.972656 26.6875 7.878906 27.164062 7.691406 27.621094 C 7.5 28.078125 7.230469 28.480469 6.878906 28.828125 C 6.53125 29.179688 6.125 29.449219 5.667969 29.636719 C 5.210938 29.824219 4.734375 29.921875 4.238281 29.921875 C 3.742188 29.921875 3.265625 29.824219 2.808594 29.636719 C 2.351562 29.449219 1.945312 29.179688 1.597656 28.828125 C 1.246094 28.480469 0.976562 28.078125 0.785156 27.621094 C 0.597656 27.164062 0.5 26.6875 0.5 26.195312 C 0.5 25.699219 0.597656 25.222656 0.785156 24.769531 C 0.976562 24.3125 1.246094 23.910156 1.597656 23.558594 C 1.945312 23.210938 2.351562 22.941406 2.808594 22.75 C 3.265625 22.5625 3.742188 22.46875 4.238281 22.46875 C 4.734375 22.46875 5.210938 22.5625 5.667969 22.75 C 6.125 22.941406 6.53125 23.210938 6.878906 23.558594 C 7.230469 23.910156 7.5 24.3125 7.691406 24.769531 C 7.878906 25.222656 7.972656 25.699219 7.972656 26.195312 Z M 7.972656 26.195312 " fill-opacity="1" fill-rule="nonzero"/><path fill="#8c52ff" d="M 30.394531 26.195312 C 30.394531 26.6875 30.296875 27.164062 30.109375 27.621094 C 29.917969 28.078125 29.648438 28.480469 29.296875 28.828125 C 28.949219 29.179688 28.542969 29.449219 28.085938 29.636719 C 27.628906 29.824219 27.152344 29.921875 26.65625 29.921875 C 26.160156 29.921875 25.683594 29.824219 25.226562 29.636719 C 24.769531 29.449219 24.363281 29.179688 24.015625 28.828125 C 23.664062 28.480469 23.394531 28.078125 23.203125 27.621094 C 23.015625 27.164062 22.921875 26.6875 22.921875 26.195312 C 22.921875 25.699219 23.015625 25.222656 23.203125 24.769531 C 23.394531 24.3125 23.664062 23.910156 24.015625 23.558594 C 24.363281 23.210938 24.769531 22.941406 25.226562 22.75 C 25.683594 22.5625 26.160156 22.46875 26.65625 22.46875 C 27.152344 22.46875 27.628906 22.5625 28.085938 22.75 C 28.542969 22.941406 28.949219 23.210938 29.296875 23.558594 C 29.648438 23.910156 29.917969 24.3125 30.109375 24.769531 C 30.296875 25.222656 30.394531 25.699219 30.394531 26.195312 Z M 30.394531 26.195312 " fill-opacity="1" fill-rule="nonzero"/><path fill="#8c52ff" d="M 52.8125 26.195312 C 52.8125 26.6875 52.71875 27.164062 52.527344 27.621094 C 52.335938 28.078125 52.066406 28.480469 51.71875 28.828125 C 51.367188 29.179688 50.960938 29.449219 50.503906 29.636719 C 50.046875 29.824219 49.570312 29.921875 49.074219 29.921875 C 48.578125 29.921875 48.101562 29.824219 47.644531 29.636719 C 47.1875 29.449219 46.785156 29.179688 46.433594 28.828125 C 46.082031 28.480469 45.8125 28.078125 45.625 27.621094 C 45.433594 27.164062 45.339844 26.6875 45.339844 26.195312 C 45.339844 25.699219 45.433594 25.222656 45.625 24.769531 C 45.8125 24.3125 46.082031 23.910156 46.433594 23.558594 C 46.785156 23.210938 47.1875 22.941406 47.644531 22.75 C 48.101562 22.5625 48.578125 22.46875 49.074219 22.46875 C 49.570312 22.46875 50.046875 22.5625 50.503906 22.75 C 50.960938 22.941406 51.367188 23.210938 51.71875 23.558594 C 52.066406 23.910156 52.335938 24.3125 52.527344 24.769531 C 52.71875 25.222656 52.8125 25.699219 52.8125 26.195312 Z M 52.8125 26.195312 " fill-opacity="1" fill-rule="nonzero"/><path fill="#8c52ff" d="M 75.230469 26.195312 C 75.230469 26.6875 75.136719 27.164062 74.945312 27.621094 C 74.757812 28.078125 74.484375 28.480469 74.136719 28.828125 C 73.785156 29.179688 73.382812 29.449219 72.921875 29.636719 C 72.464844 29.824219 71.988281 29.921875 71.492188 29.921875 C 71 29.921875 70.523438 29.824219 70.0625 29.636719 C 69.605469 29.449219 69.203125 29.179688 68.851562 28.828125 C 68.5 28.480469 68.230469 28.078125 68.042969 27.621094 C 67.851562 27.164062 67.757812 26.6875 67.757812 26.195312 C 67.757812 25.699219 67.851562 25.222656 68.042969 24.769531 C 68.230469 24.3125 68.5 23.910156 68.851562 23.558594 C 69.203125 23.210938 69.605469 22.941406 70.0625 22.75 C 70.523438 22.5625 71 22.46875 71.492188 22.46875 C 71.988281 22.46875 72.464844 22.5625 72.921875 22.75 C 73.382812 22.941406 73.785156 23.210938 74.136719 23.558594 C 74.484375 23.910156 74.757812 24.3125 74.945312 24.769531 C 75.136719 25.222656 75.230469 25.699219 75.230469 26.195312 Z M 75.230469 26.195312 " fill-opacity="1" fill-rule="nonzero"/><path fill="#8c52ff" d="M 97.648438 26.195312 C 97.648438 26.6875 97.554688 27.164062 97.363281 27.621094 C 97.175781 28.078125 96.90625 28.480469 96.554688 28.828125 C 96.203125 29.179688 95.800781 29.449219 95.34375 29.636719 C 94.882812 29.824219 94.40625 29.921875 93.914062 29.921875 C 93.417969 29.921875 92.941406 29.824219 92.484375 29.636719 C 92.023438 29.449219 91.621094 29.179688 91.269531 28.828125 C 90.921875 28.480469 90.648438 28.078125 90.460938 27.621094 C 90.269531 27.164062 90.175781 26.6875 90.175781 26.195312 C 90.175781 25.699219 90.269531 25.222656 90.460938 24.769531 C 90.648438 24.3125 90.921875 23.910156 91.269531 23.558594 C 91.621094 23.210938 92.023438 22.941406 92.484375 22.75 C 92.941406 22.5625 93.417969 22.46875 93.914062 22.46875 C 94.40625 22.46875 94.882812 22.5625 95.34375 22.75 C 95.800781 22.941406 96.203125 23.210938 96.554688 23.558594 C 96.90625 23.910156 97.175781 24.3125 97.363281 24.769531 C 97.554688 25.222656 97.648438 25.699219 97.648438 26.195312 Z M 97.648438 26.195312 " fill-opacity="1" fill-rule="nonzero"/><path fill="#8c52ff" d="M 120.066406 26.195312 C 120.066406 26.6875 119.972656 27.164062 119.785156 27.621094 C 119.59375 28.078125 119.324219 28.480469 118.972656 28.828125 C 118.621094 29.179688 118.21875 29.449219 117.761719 29.636719 C 117.304688 29.824219 116.828125 29.921875 116.332031 29.921875 C 115.835938 29.921875 115.359375 29.824219 114.902344 29.636719 C 114.445312 29.449219 114.039062 29.179688 113.6875 28.828125 C 113.339844 28.480469 113.070312 28.078125 112.878906 27.621094 C 112.691406 27.164062 112.59375 26.6875 112.59375 26.195312 C 112.59375 25.699219 112.691406 25.222656 112.878906 24.769531 C 113.070312 24.3125 113.339844 23.910156 113.6875 23.558594 C 114.039062 23.210938 114.445312 22.941406 114.902344 22.75 C 115.359375 22.5625 115.835938 22.46875 116.332031 22.46875 C 116.828125 22.46875 117.304688 22.5625 117.761719 22.75 C 118.21875 22.941406 118.621094 23.210938 118.972656 23.558594 C 119.324219 23.910156 119.59375 24.3125 119.785156 24.769531 C 119.972656 25.222656 120.066406 25.699219 120.066406 26.195312 Z M 120.066406 26.195312 " fill-opacity="1" fill-rule="nonzero"/><path fill="#8c52ff" d="M 142.488281 26.195312 C 142.488281 26.6875 142.390625 27.164062 142.203125 27.621094 C 142.011719 28.078125 141.742188 28.480469 141.390625 28.828125 C 141.042969 29.179688 140.636719 29.449219 140.179688 29.636719 C 139.722656 29.824219 139.246094 29.921875 138.75 29.921875 C 138.253906 29.921875 137.777344 29.824219 137.320312 29.636719 C 136.863281 29.449219 136.457031 29.179688 136.109375 28.828125 C 135.757812 28.480469 135.488281 28.078125 135.296875 27.621094 C 135.109375 27.164062 135.011719 26.6875 135.011719 26.195312 C 135.011719 25.699219 135.109375 25.222656 135.296875 24.769531 C 135.488281 24.3125 135.757812 23.910156 136.109375 23.558594 C 136.457031 23.210938 136.863281 22.941406 137.320312 22.75 C 137.777344 22.5625 138.253906 22.46875 138.75 22.46875 C 139.246094 22.46875 139.722656 22.5625 140.179688 22.75 C 140.636719 22.941406 141.042969 23.210938 141.390625 23.558594 C 141.742188 23.910156 142.011719 24.3125 142.203125 24.769531 C 142.390625 25.222656 142.488281 25.699219 142.488281 26.195312 Z M 142.488281 26.195312 " fill-opacity="1" fill-rule="nonzero"/><path fill="#8c52ff" d="M 164.90625 26.195312 C 164.90625 26.6875 164.808594 27.164062 164.621094 27.621094 C 164.429688 28.078125 164.160156 28.480469 163.8125 28.828125 C 163.460938 29.179688 163.054688 29.449219 162.597656 29.636719 C 162.140625 29.824219 161.664062 29.921875 161.167969 29.921875 C 160.671875 29.921875 160.195312 29.824219 159.738281 29.636719 C 159.28125 29.449219 158.878906 29.179688 158.527344 28.828125 C 158.175781 28.480469 157.90625 28.078125 157.714844 27.621094 C 157.527344 27.164062 157.433594 26.6875 157.433594 26.195312 C 157.433594 25.699219 157.527344 25.222656 157.714844 24.769531 C 157.90625 24.3125 158.175781 23.910156 158.527344 23.558594 C 158.878906 23.210938 159.28125 22.941406 159.738281 22.75 C 160.195312 22.5625 160.671875 22.46875 161.167969 22.46875 C 161.664062 22.46875 162.140625 22.5625 162.597656 22.75 C 163.054688 22.941406 163.460938 23.210938 163.8125 23.558594 C 164.160156 23.910156 164.429688 24.3125 164.621094 24.769531 C 164.808594 25.222656 164.90625 25.699219 164.90625 26.195312 Z M 164.90625 26.195312 " fill-opacity="1" fill-rule="nonzero"/><path fill="#8c52ff" d="M 187.324219 26.195312 C 187.324219 26.6875 187.230469 27.164062 187.039062 27.621094 C 186.851562 28.078125 186.578125 28.480469 186.230469 28.828125 C 185.878906 29.179688 185.476562 29.449219 185.015625 29.636719 C 184.558594 29.824219 184.082031 29.921875 183.585938 29.921875 C 183.09375 29.921875 182.617188 29.824219 182.15625 29.636719 C 181.699219 29.449219 181.296875 29.179688 180.945312 28.828125 C 180.59375 28.480469 180.324219 28.078125 180.136719 27.621094 C 179.945312 27.164062 179.851562 26.6875 179.851562 26.195312 C 179.851562 25.699219 179.945312 25.222656 180.136719 24.769531 C 180.324219 24.3125 180.59375 23.910156 180.945312 23.558594 C 181.296875 23.210938 181.699219 22.941406 182.15625 22.75 C 182.617188 22.5625 183.09375 22.46875 183.585938 22.46875 C 184.082031 22.46875 184.558594 22.5625 185.015625 22.75 C 185.476562 22.941406 185.878906 23.210938 186.230469 23.558594 C 186.578125 23.910156 186.851562 24.3125 187.039062 24.769531 C 187.230469 25.222656 187.324219 25.699219 187.324219 26.195312 Z M 187.324219 26.195312 " fill-opacity="1" fill-rule="nonzero"/><path fill="#8c52ff" d="M 209.742188 26.195312 C 209.742188 26.6875 209.648438 27.164062 209.457031 27.621094 C 209.269531 28.078125 209 28.480469 208.648438 28.828125 C 208.296875 29.179688 207.894531 29.449219 207.4375 29.636719 C 206.976562 29.824219 206.5 29.921875 206.007812 29.921875 C 205.511719 29.921875 205.035156 29.824219 204.578125 29.636719 C 204.117188 29.449219 203.714844 29.179688 203.363281 28.828125 C 203.011719 28.480469 202.742188 28.078125 202.554688 27.621094 C 202.363281 27.164062 202.269531 26.6875 202.269531 26.195312 C 202.269531 25.699219 202.363281 25.222656 202.554688 24.769531 C 202.742188 24.3125 203.011719 23.910156 203.363281 23.558594 C 203.714844 23.210938 204.117188 22.941406 204.578125 22.75 C 205.035156 22.5625 205.511719 22.46875 206.007812 22.46875 C 206.5 22.46875 206.976562 22.5625 207.4375 22.75 C 207.894531 22.941406 208.296875 23.210938 208.648438 23.558594 C 209 23.910156 209.269531 24.3125 209.457031 24.769531 C 209.648438 25.222656 209.742188 25.699219 209.742188 26.195312 Z M 209.742188 26.195312 " fill-opacity="1" fill-rule="nonzero"/><path fill="#8c52ff" d="M 232.160156 26.195312 C 232.160156 26.6875 232.066406 27.164062 231.875 27.621094 C 231.6875 28.078125 231.417969 28.480469 231.066406 28.828125 C 230.714844 29.179688 230.3125 29.449219 229.855469 29.636719 C 229.398438 29.824219 228.921875 29.921875 228.425781 29.921875 C 227.929688 29.921875 227.453125 29.824219 226.996094 29.636719 C 226.539062 29.449219 226.132812 29.179688 225.78125 28.828125 C 225.433594 28.480469 225.164062 28.078125 224.972656 27.621094 C 224.78125 27.164062 224.6875 26.6875 224.6875 26.195312 C 224.6875 25.699219 224.78125 25.222656 224.972656 24.769531 C 225.164062 24.3125 225.433594 23.910156 225.78125 23.558594 C 226.132812 23.210938 226.539062 22.941406 226.996094 22.75 C 227.453125 22.5625 227.929688 22.46875 228.425781 22.46875 C 228.921875 22.46875 229.398438 22.5625 229.855469 22.75 C 230.3125 22.941406 230.714844 23.210938 231.066406 23.558594 C 231.417969 23.910156 231.6875 24.3125 231.875 24.769531 C 232.066406 25.222656 232.160156 25.699219 232.160156 26.195312 Z M 232.160156 26.195312 " fill-opacity="1" fill-rule="nonzero"/><path fill="#8c52ff" d="M 254.578125 26.195312 C 254.578125 26.6875 254.484375 27.164062 254.296875 27.621094 C 254.105469 28.078125 253.835938 28.480469 253.484375 28.828125 C 253.136719 29.179688 252.730469 29.449219 252.273438 29.636719 C 251.816406 29.824219 251.339844 29.921875 250.84375 29.921875 C 250.347656 29.921875 249.871094 29.824219 249.414062 29.636719 C 248.957031 29.449219 248.550781 29.179688 248.203125 28.828125 C 247.851562 28.480469 247.582031 28.078125 247.390625 27.621094 C 247.203125 27.164062 247.105469 26.6875 247.105469 26.195312 C 247.105469 25.699219 247.203125 25.222656 247.390625 24.769531 C 247.582031 24.3125 247.851562 23.910156 248.203125 23.558594 C 248.550781 23.210938 248.957031 22.941406 249.414062 22.75 C 249.871094 22.5625 250.347656 22.46875 250.84375 22.46875 C 251.339844 22.46875 251.816406 22.5625 252.273438 22.75 C 252.730469 22.941406 253.136719 23.210938 253.484375 23.558594 C 253.835938 23.910156 254.105469 24.3125 254.296875 24.769531 C 254.484375 25.222656 254.578125 25.699219 254.578125 26.195312 Z M 254.578125 26.195312 " fill-opacity="1" fill-rule="nonzero"/><path fill="#8c52ff" d="M 277 26.195312 C 277 26.6875 276.902344 27.164062 276.714844 27.621094 C 276.523438 28.078125 276.253906 28.480469 275.902344 28.828125 C 275.554688 29.179688 275.148438 29.449219 274.691406 29.636719 C 274.234375 29.824219 273.757812 29.921875 273.261719 29.921875 C 272.765625 29.921875 272.289062 29.824219 271.832031 29.636719 C 271.375 29.449219 270.96875 29.179688 270.621094 28.828125 C 270.269531 28.480469 270 28.078125 269.808594 27.621094 C 269.621094 27.164062 269.527344 26.6875 269.527344 26.195312 C 269.527344 25.699219 269.621094 25.222656 269.808594 24.769531 C 270 24.3125 270.269531 23.910156 270.621094 23.558594 C 270.96875 23.210938 271.375 22.941406 271.832031 22.75 C 272.289062 22.5625 272.765625 22.46875 273.261719 22.46875 C 273.757812 22.46875 274.234375 22.5625 274.691406 22.75 C 275.148438 22.941406 275.554688 23.210938 275.902344 23.558594 C 276.253906 23.910156 276.523438 24.3125 276.714844 24.769531 C 276.902344 25.222656 277 25.699219 277 26.195312 Z M 277 26.195312 " fill-opacity="1" fill-rule="nonzero"/><path fill="#5e17eb" d="M 7.972656 48.554688 C 7.972656 49.046875 7.878906 49.523438 7.691406 49.980469 C 7.5 50.4375 7.230469 50.839844 6.878906 51.1875 C 6.53125 51.539062 6.125 51.808594 5.667969 51.996094 C 5.210938 52.183594 4.734375 52.28125 4.238281 52.28125 C 3.742188 52.28125 3.265625 52.183594 2.808594 51.996094 C 2.351562 51.808594 1.945312 51.539062 1.597656 51.1875 C 1.246094 50.839844 0.976562 50.4375 0.785156 49.980469 C 0.597656 49.523438 0.5 49.046875 0.5 48.554688 C 0.5 48.058594 0.597656 47.582031 0.785156 47.128906 C 0.976562 46.671875 1.246094 46.265625 1.597656 45.917969 C 1.945312 45.570312 2.351562 45.300781 2.808594 45.109375 C 3.265625 44.921875 3.742188 44.828125 4.238281 44.828125 C 4.734375 44.828125 5.210938 44.921875 5.667969 45.109375 C 6.125 45.300781 6.53125 45.570312 6.878906 45.917969 C 7.230469 46.265625 7.5 46.671875 7.691406 47.128906 C 7.878906 47.582031 7.972656 48.058594 7.972656 48.554688 Z M 7.972656 48.554688 " fill-opacity="1" fill-rule="nonzero"/><path fill="#5e17eb" d="M 30.394531 48.554688 C 30.394531 49.046875 30.296875 49.523438 30.109375 49.980469 C 29.917969 50.4375 29.648438 50.839844 29.296875 51.1875 C 28.949219 51.539062 28.542969 51.808594 28.085938 51.996094 C 27.628906 52.183594 27.152344 52.28125 26.65625 52.28125 C 26.160156 52.28125 25.683594 52.183594 25.226562 51.996094 C 24.769531 51.808594 24.363281 51.539062 24.015625 51.1875 C 23.664062 50.839844 23.394531 50.4375 23.203125 49.980469 C 23.015625 49.523438 22.921875 49.046875 22.921875 48.554688 C 22.921875 48.058594 23.015625 47.582031 23.203125 47.128906 C 23.394531 46.671875 23.664062 46.265625 24.015625 45.917969 C 24.363281 45.570312 24.769531 45.300781 25.226562 45.109375 C 25.683594 44.921875 26.160156 44.828125 26.65625 44.828125 C 27.152344 44.828125 27.628906 44.921875 28.085938 45.109375 C 28.542969 45.300781 28.949219 45.570312 29.296875 45.917969 C 29.648438 46.265625 29.917969 46.671875 30.109375 47.128906 C 30.296875 47.582031 30.394531 48.058594 30.394531 48.554688 Z M 30.394531 48.554688 " fill-opacity="1" fill-rule="nonzero"/><path fill="#5e17eb" d="M 52.8125 48.554688 C 52.8125 49.046875 52.71875 49.523438 52.527344 49.980469 C 52.335938 50.4375 52.066406 50.839844 51.71875 51.1875 C 51.367188 51.539062 50.960938 51.808594 50.503906 51.996094 C 50.046875 52.183594 49.570312 52.28125 49.074219 52.28125 C 48.578125 52.28125 48.101562 52.183594 47.644531 51.996094 C 47.1875 51.808594 46.785156 51.539062 46.433594 51.1875 C 46.082031 50.839844 45.8125 50.4375 45.625 49.980469 C 45.433594 49.523438 45.339844 49.046875 45.339844 48.554688 C 45.339844 48.058594 45.433594 47.582031 45.625 47.128906 C 45.8125 46.671875 46.082031 46.265625 46.433594 45.917969 C 46.785156 45.570312 47.1875 45.300781 47.644531 45.109375 C 48.101562 44.921875 48.578125 44.828125 49.074219 44.828125 C 49.570312 44.828125 50.046875 44.921875 50.503906 45.109375 C 50.960938 45.300781 51.367188 45.570312 51.71875 45.917969 C 52.066406 46.265625 52.335938 46.671875 52.527344 47.128906 C 52.71875 47.582031 52.8125 48.058594 52.8125 48.554688 Z M 52.8125 48.554688 " fill-opacity="1" fill-rule="nonzero"/><path fill="#5e17eb" d="M 75.230469 48.554688 C 75.230469 49.046875 75.136719 49.523438 74.945312 49.980469 C 74.757812 50.4375 74.484375 50.839844 74.136719 51.1875 C 73.785156 51.539062 73.382812 51.808594 72.921875 51.996094 C 72.464844 52.183594 71.988281 52.28125 71.492188 52.28125 C 71 52.28125 70.523438 52.183594 70.0625 51.996094 C 69.605469 51.808594 69.203125 51.539062 68.851562 51.1875 C 68.5 50.839844 68.230469 50.4375 68.042969 49.980469 C 67.851562 49.523438 67.757812 49.046875 67.757812 48.554688 C 67.757812 48.058594 67.851562 47.582031 68.042969 47.128906 C 68.230469 46.671875 68.5 46.265625 68.851562 45.917969 C 69.203125 45.570312 69.605469 45.300781 70.0625 45.109375 C 70.523438 44.921875 71 44.828125 71.492188 44.828125 C 71.988281 44.828125 72.464844 44.921875 72.921875 45.109375 C 73.382812 45.300781 73.785156 45.570312 74.136719 45.917969 C 74.484375 46.265625 74.757812 46.671875 74.945312 47.128906 C 75.136719 47.582031 75.230469 48.058594 75.230469 48.554688 Z M 75.230469 48.554688 " fill-opacity="1" fill-rule="nonzero"/><path fill="#5e17eb" d="M 97.648438 48.554688 C 97.648438 49.046875 97.554688 49.523438 97.363281 49.980469 C 97.175781 50.4375 96.90625 50.839844 96.554688 51.1875 C 96.203125 51.539062 95.800781 51.808594 95.34375 51.996094 C 94.882812 52.183594 94.40625 52.28125 93.914062 52.28125 C 93.417969 52.28125 92.941406 52.183594 92.484375 51.996094 C 92.023438 51.808594 91.621094 51.539062 91.269531 51.1875 C 90.921875 50.839844 90.648438 50.4375 90.460938 49.980469 C 90.269531 49.523438 90.175781 49.046875 90.175781 48.554688 C 90.175781 48.058594 90.269531 47.582031 90.460938 47.128906 C 90.648438 46.671875 90.921875 46.265625 91.269531 45.917969 C 91.621094 45.570312 92.023438 45.300781 92.484375 45.109375 C 92.941406 44.921875 93.417969 44.828125 93.914062 44.828125 C 94.40625 44.828125 94.882812 44.921875 95.34375 45.109375 C 95.800781 45.300781 96.203125 45.570312 96.554688 45.917969 C 96.90625 46.265625 97.175781 46.671875 97.363281 47.128906 C 97.554688 47.582031 97.648438 48.058594 97.648438 48.554688 Z M 97.648438 48.554688 " fill-opacity="1" fill-rule="nonzero"/><path fill="#5e17eb" d="M 120.066406 48.554688 C 120.066406 49.046875 119.972656 49.523438 119.785156 49.980469 C 119.59375 50.4375 119.324219 50.839844 118.972656 51.1875 C 118.621094 51.539062 118.21875 51.808594 117.761719 51.996094 C 117.304688 52.183594 116.828125 52.28125 116.332031 52.28125 C 115.835938 52.28125 115.359375 52.183594 114.902344 51.996094 C 114.445312 51.808594 114.039062 51.539062 113.6875 51.1875 C 113.339844 50.839844 113.070312 50.4375 112.878906 49.980469 C 112.691406 49.523438 112.59375 49.046875 112.59375 48.554688 C 112.59375 48.058594 112.691406 47.582031 112.878906 47.128906 C 113.070312 46.671875 113.339844 46.265625 113.6875 45.917969 C 114.039062 45.570312 114.445312 45.300781 114.902344 45.109375 C 115.359375 44.921875 115.835938 44.828125 116.332031 44.828125 C 116.828125 44.828125 117.304688 44.921875 117.761719 45.109375 C 118.21875 45.300781 118.621094 45.570312 118.972656 45.917969 C 119.324219 46.265625 119.59375 46.671875 119.785156 47.128906 C 119.972656 47.582031 120.066406 48.058594 120.066406 48.554688 Z M 120.066406 48.554688 " fill-opacity="1" fill-rule="nonzero"/><path fill="#ffce0a" d="M 142.488281 48.554688 C 142.488281 49.046875 142.390625 49.523438 142.203125 49.980469 C 142.011719 50.4375 141.742188 50.839844 141.390625 51.1875 C 141.042969 51.539062 140.636719 51.808594 140.179688 51.996094 C 139.722656 52.183594 139.246094 52.28125 138.75 52.28125 C 138.253906 52.28125 137.777344 52.183594 137.320312 51.996094 C 136.863281 51.808594 136.457031 51.539062 136.109375 51.1875 C 135.757812 50.839844 135.488281 50.4375 135.296875 49.980469 C 135.109375 49.523438 135.011719 49.046875 135.011719 48.554688 C 135.011719 48.058594 135.109375 47.582031 135.296875 47.128906 C 135.488281 46.671875 135.757812 46.265625 136.109375 45.917969 C 136.457031 45.570312 136.863281 45.300781 137.320312 45.109375 C 137.777344 44.921875 138.253906 44.828125 138.75 44.828125 C 139.246094 44.828125 139.722656 44.921875 140.179688 45.109375 C 140.636719 45.300781 141.042969 45.570312 141.390625 45.917969 C 141.742188 46.265625 142.011719 46.671875 142.203125 47.128906 C 142.390625 47.582031 142.488281 48.058594 142.488281 48.554688 Z M 142.488281 48.554688 " fill-opacity="1" fill-rule="nonzero"/><path fill="#ffce0a" d="M 164.90625 48.554688 C 164.90625 49.046875 164.808594 49.523438 164.621094 49.980469 C 164.429688 50.4375 164.160156 50.839844 163.8125 51.1875 C 163.460938 51.539062 163.054688 51.808594 162.597656 51.996094 C 162.140625 52.183594 161.664062 52.28125 161.167969 52.28125 C 160.671875 52.28125 160.195312 52.183594 159.738281 51.996094 C 159.28125 51.808594 158.878906 51.539062 158.527344 51.1875 C 158.175781 50.839844 157.90625 50.4375 157.714844 49.980469 C 157.527344 49.523438 157.433594 49.046875 157.433594 48.554688 C 157.433594 48.058594 157.527344 47.582031 157.714844 47.128906 C 157.90625 46.671875 158.175781 46.265625 158.527344 45.917969 C 158.878906 45.570312 159.28125 45.300781 159.738281 45.109375 C 160.195312 44.921875 160.671875 44.828125 161.167969 44.828125 C 161.664062 44.828125 162.140625 44.921875 162.597656 45.109375 C 163.054688 45.300781 163.460938 45.570312 163.8125 45.917969 C 164.160156 46.265625 164.429688 46.671875 164.621094 47.128906 C 164.808594 47.582031 164.90625 48.058594 164.90625 48.554688 Z M 164.90625 48.554688 " fill-opacity="1" fill-rule="nonzero"/><path fill="#ffce0a" d="M 187.324219 48.554688 C 187.324219 49.046875 187.230469 49.523438 187.039062 49.980469 C 186.851562 50.4375 186.578125 50.839844 186.230469 51.1875 C 185.878906 51.539062 185.476562 51.808594 185.015625 51.996094 C 184.558594 52.183594 184.082031 52.28125 183.585938 52.28125 C 183.09375 52.28125 182.617188 52.183594 182.15625 51.996094 C 181.699219 51.808594 181.296875 51.539062 180.945312 51.1875 C 180.59375 50.839844 180.324219 50.4375 180.136719 49.980469 C 179.945312 49.523438 179.851562 49.046875 179.851562 48.554688 C 179.851562 48.058594 179.945312 47.582031 180.136719 47.128906 C 180.324219 46.671875 180.59375 46.265625 180.945312 45.917969 C 181.296875 45.570312 181.699219 45.300781 182.15625 45.109375 C 182.617188 44.921875 183.09375 44.828125 183.585938 44.828125 C 184.082031 44.828125 184.558594 44.921875 185.015625 45.109375 C 185.476562 45.300781 185.878906 45.570312 186.230469 45.917969 C 186.578125 46.265625 186.851562 46.671875 187.039062 47.128906 C 187.230469 47.582031 187.324219 48.058594 187.324219 48.554688 Z M 187.324219 48.554688 " fill-opacity="1" fill-rule="nonzero"/><path fill="#ffce0a" d="M 209.742188 48.554688 C 209.742188 49.046875 209.648438 49.523438 209.457031 49.980469 C 209.269531 50.4375 209 50.839844 208.648438 51.1875 C 208.296875 51.539062 207.894531 51.808594 207.4375 51.996094 C 206.976562 52.183594 206.5 52.28125 206.007812 52.28125 C 205.511719 52.28125 205.035156 52.183594 204.578125 51.996094 C 204.117188 51.808594 203.714844 51.539062 203.363281 51.1875 C 203.011719 50.839844 202.742188 50.4375 202.554688 49.980469 C 202.363281 49.523438 202.269531 49.046875 202.269531 48.554688 C 202.269531 48.058594 202.363281 47.582031 202.554688 47.128906 C 202.742188 46.671875 203.011719 46.265625 203.363281 45.917969 C 203.714844 45.570312 204.117188 45.300781 204.578125 45.109375 C 205.035156 44.921875 205.511719 44.828125 206.007812 44.828125 C 206.5 44.828125 206.976562 44.921875 207.4375 45.109375 C 207.894531 45.300781 208.296875 45.570312 208.648438 45.917969 C 209 46.265625 209.269531 46.671875 209.457031 47.128906 C 209.648438 47.582031 209.742188 48.058594 209.742188 48.554688 Z M 209.742188 48.554688 " fill-opacity="1" fill-rule="nonzero"/><path fill="#ffce0a" d="M 232.160156 48.554688 C 232.160156 49.046875 232.066406 49.523438 231.875 49.980469 C 231.6875 50.4375 231.417969 50.839844 231.066406 51.1875 C 230.714844 51.539062 230.3125 51.808594 229.855469 51.996094 C 229.398438 52.183594 228.921875 52.28125 228.425781 52.28125 C 227.929688 52.28125 227.453125 52.183594 226.996094 51.996094 C 226.539062 51.808594 226.132812 51.539062 225.78125 51.1875 C 225.433594 50.839844 225.164062 50.4375 224.972656 49.980469 C 224.78125 49.523438 224.6875 49.046875 224.6875 48.554688 C 224.6875 48.058594 224.78125 47.582031 224.972656 47.128906 C 225.164062 46.671875 225.433594 46.265625 225.78125 45.917969 C 226.132812 45.570312 226.539062 45.300781 226.996094 45.109375 C 227.453125 44.921875 227.929688 44.828125 228.425781 44.828125 C 228.921875 44.828125 229.398438 44.921875 229.855469 45.109375 C 230.3125 45.300781 230.714844 45.570312 231.066406 45.917969 C 231.417969 46.265625 231.6875 46.671875 231.875 47.128906 C 232.066406 47.582031 232.160156 48.058594 232.160156 48.554688 Z M 232.160156 48.554688 " fill-opacity="1" fill-rule="nonzero"/><path fill="#ffce0a" d="M 254.578125 48.554688 C 254.578125 49.046875 254.484375 49.523438 254.296875 49.980469 C 254.105469 50.4375 253.835938 50.839844 253.484375 51.1875 C 253.136719 51.539062 252.730469 51.808594 252.273438 51.996094 C 251.816406 52.183594 251.339844 52.28125 250.84375 52.28125 C 250.347656 52.28125 249.871094 52.183594 249.414062 51.996094 C 248.957031 51.808594 248.550781 51.539062 248.203125 51.1875 C 247.851562 50.839844 247.582031 50.4375 247.390625 49.980469 C 247.203125 49.523438 247.105469 49.046875 247.105469 48.554688 C 247.105469 48.058594 247.203125 47.582031 247.390625 47.128906 C 247.582031 46.671875 247.851562 46.265625 248.203125 45.917969 C 248.550781 45.570312 248.957031 45.300781 249.414062 45.109375 C 249.871094 44.921875 250.347656 44.828125 250.84375 44.828125 C 251.339844 44.828125 251.816406 44.921875 252.273438 45.109375 C 252.730469 45.300781 253.136719 45.570312 253.484375 45.917969 C 253.835938 46.265625 254.105469 46.671875 254.296875 47.128906 C 254.484375 47.582031 254.578125 48.058594 254.578125 48.554688 Z M 254.578125 48.554688 " fill-opacity="1" fill-rule="nonzero"/><path fill="#ffce0a" d="M 277 48.554688 C 277 49.046875 276.902344 49.523438 276.714844 49.980469 C 276.523438 50.4375 276.253906 50.839844 275.902344 51.1875 C 275.554688 51.539062 275.148438 51.808594 274.691406 51.996094 C 274.234375 52.183594 273.757812 52.28125 273.261719 52.28125 C 272.765625 52.28125 272.289062 52.183594 271.832031 51.996094 C 271.375 51.808594 270.96875 51.539062 270.621094 51.1875 C 270.269531 50.839844 270 50.4375 269.808594 49.980469 C 269.621094 49.523438 269.527344 49.046875 269.527344 48.554688 C 269.527344 48.058594 269.621094 47.582031 269.808594 47.128906 C 270 46.671875 270.269531 46.265625 270.621094 45.917969 C 270.96875 45.570312 271.375 45.300781 271.832031 45.109375 C 272.289062 44.921875 272.765625 44.828125 273.261719 44.828125 C 273.757812 44.828125 274.234375 44.921875 274.691406 45.109375 C 275.148438 45.300781 275.554688 45.570312 275.902344 45.917969 C 276.253906 46.265625 276.523438 46.671875 276.714844 47.128906 C 276.902344 47.582031 277 48.058594 277 48.554688 Z M 277 48.554688 " fill-opacity="1" fill-rule="nonzero"/><path fill="#5e17eb" d="M 7.972656 70.914062 C 7.972656 71.40625 7.878906 71.882812 7.691406 72.339844 C 7.5 72.796875 7.230469 73.199219 6.878906 73.546875 C 6.53125 73.898438 6.125 74.167969 5.667969 74.355469 C 5.210938 74.542969 4.734375 74.640625 4.238281 74.640625 C 3.742188 74.640625 3.265625 74.542969 2.808594 74.355469 C 2.351562 74.167969 1.945312 73.898438 1.597656 73.546875 C 1.246094 73.199219 0.976562 72.796875 0.785156 72.339844 C 0.597656 71.882812 0.5 71.40625 0.5 70.914062 C 0.5 70.417969 0.597656 69.941406 0.785156 69.488281 C 0.976562 69.03125 1.246094 68.625 1.597656 68.277344 C 1.945312 67.929688 2.351562 67.660156 2.808594 67.46875 C 3.265625 67.28125 3.742188 67.1875 4.238281 67.1875 C 4.734375 67.1875 5.210938 67.28125 5.667969 67.46875 C 6.125 67.660156 6.53125 67.929688 6.878906 68.277344 C 7.230469 68.625 7.5 69.03125 7.691406 69.488281 C 7.878906 69.941406 7.972656 70.417969 7.972656 70.914062 Z M 7.972656 70.914062 " fill-opacity="1" fill-rule="nonzero"/><path fill="#5e17eb" d="M 30.394531 70.914062 C 30.394531 71.40625 30.296875 71.882812 30.109375 72.339844 C 29.917969 72.796875 29.648438 73.199219 29.296875 73.546875 C 28.949219 73.898438 28.542969 74.167969 28.085938 74.355469 C 27.628906 74.542969 27.152344 74.640625 26.65625 74.640625 C 26.160156 74.640625 25.683594 74.542969 25.226562 74.355469 C 24.769531 74.167969 24.363281 73.898438 24.015625 73.546875 C 23.664062 73.199219 23.394531 72.796875 23.203125 72.339844 C 23.015625 71.882812 22.921875 71.40625 22.921875 70.914062 C 22.921875 70.417969 23.015625 69.941406 23.203125 69.488281 C 23.394531 69.03125 23.664062 68.625 24.015625 68.277344 C 24.363281 67.929688 24.769531 67.660156 25.226562 67.46875 C 25.683594 67.28125 26.160156 67.1875 26.65625 67.1875 C 27.152344 67.1875 27.628906 67.28125 28.085938 67.46875 C 28.542969 67.660156 28.949219 67.929688 29.296875 68.277344 C 29.648438 68.625 29.917969 69.03125 30.109375 69.488281 C 30.296875 69.941406 30.394531 70.417969 30.394531 70.914062 Z M 30.394531 70.914062 " fill-opacity="1" fill-rule="nonzero"/><path fill="#5e17eb" d="M 52.8125 70.914062 C 52.8125 71.40625 52.71875 71.882812 52.527344 72.339844 C 52.335938 72.796875 52.066406 73.199219 51.71875 73.546875 C 51.367188 73.898438 50.960938 74.167969 50.503906 74.355469 C 50.046875 74.542969 49.570312 74.640625 49.074219 74.640625 C 48.578125 74.640625 48.101562 74.542969 47.644531 74.355469 C 47.1875 74.167969 46.785156 73.898438 46.433594 73.546875 C 46.082031 73.199219 45.8125 72.796875 45.625 72.339844 C 45.433594 71.882812 45.339844 71.40625 45.339844 70.914062 C 45.339844 70.417969 45.433594 69.941406 45.625 69.488281 C 45.8125 69.03125 46.082031 68.625 46.433594 68.277344 C 46.785156 67.929688 47.1875 67.660156 47.644531 67.46875 C 48.101562 67.28125 48.578125 67.1875 49.074219 67.1875 C 49.570312 67.1875 50.046875 67.28125 50.503906 67.46875 C 50.960938 67.660156 51.367188 67.929688 51.71875 68.277344 C 52.066406 68.625 52.335938 69.03125 52.527344 69.488281 C 52.71875 69.941406 52.8125 70.417969 52.8125 70.914062 Z M 52.8125 70.914062 " fill-opacity="1" fill-rule="nonzero"/><path fill="#5e17eb" d="M 75.230469 70.914062 C 75.230469 71.40625 75.136719 71.882812 74.945312 72.339844 C 74.757812 72.796875 74.484375 73.199219 74.136719 73.546875 C 73.785156 73.898438 73.382812 74.167969 72.921875 74.355469 C 72.464844 74.542969 71.988281 74.640625 71.492188 74.640625 C 71 74.640625 70.523438 74.542969 70.0625 74.355469 C 69.605469 74.167969 69.203125 73.898438 68.851562 73.546875 C 68.5 73.199219 68.230469 72.796875 68.042969 72.339844 C 67.851562 71.882812 67.757812 71.40625 67.757812 70.914062 C 67.757812 70.417969 67.851562 69.941406 68.042969 69.488281 C 68.230469 69.03125 68.5 68.625 68.851562 68.277344 C 69.203125 67.929688 69.605469 67.660156 70.0625 67.46875 C 70.523438 67.28125 71 67.1875 71.492188 67.1875 C 71.988281 67.1875 72.464844 67.28125 72.921875 67.46875 C 73.382812 67.660156 73.785156 67.929688 74.136719 68.277344 C 74.484375 68.625 74.757812 69.03125 74.945312 69.488281 C 75.136719 69.941406 75.230469 70.417969 75.230469 70.914062 Z M 75.230469 70.914062 " fill-opacity="1" fill-rule="nonzero"/><path fill="#5e17eb" d="M 97.648438 70.914062 C 97.648438 71.40625 97.554688 71.882812 97.363281 72.339844 C 97.175781 72.796875 96.90625 73.199219 96.554688 73.546875 C 96.203125 73.898438 95.800781 74.167969 95.34375 74.355469 C 94.882812 74.542969 94.40625 74.640625 93.914062 74.640625 C 93.417969 74.640625 92.941406 74.542969 92.484375 74.355469 C 92.023438 74.167969 91.621094 73.898438 91.269531 73.546875 C 90.921875 73.199219 90.648438 72.796875 90.460938 72.339844 C 90.269531 71.882812 90.175781 71.40625 90.175781 70.914062 C 90.175781 70.417969 90.269531 69.941406 90.460938 69.488281 C 90.648438 69.03125 90.921875 68.625 91.269531 68.277344 C 91.621094 67.929688 92.023438 67.660156 92.484375 67.46875 C 92.941406 67.28125 93.417969 67.1875 93.914062 67.1875 C 94.40625 67.1875 94.882812 67.28125 95.34375 67.46875 C 95.800781 67.660156 96.203125 67.929688 96.554688 68.277344 C 96.90625 68.625 97.175781 69.03125 97.363281 69.488281 C 97.554688 69.941406 97.648438 70.417969 97.648438 70.914062 Z M 97.648438 70.914062 " fill-opacity="1" fill-rule="nonzero"/><path fill="#5e17eb" d="M 120.066406 70.914062 C 120.066406 71.40625 119.972656 71.882812 119.785156 72.339844 C 119.59375 72.796875 119.324219 73.199219 118.972656 73.546875 C 118.621094 73.898438 118.21875 74.167969 117.761719 74.355469 C 117.304688 74.542969 116.828125 74.640625 116.332031 74.640625 C 115.835938 74.640625 115.359375 74.542969 114.902344 74.355469 C 114.445312 74.167969 114.039062 73.898438 113.6875 73.546875 C 113.339844 73.199219 113.070312 72.796875 112.878906 72.339844 C 112.691406 71.882812 112.59375 71.40625 112.59375 70.914062 C 112.59375 70.417969 112.691406 69.941406 112.878906 69.488281 C 113.070312 69.03125 113.339844 68.625 113.6875 68.277344 C 114.039062 67.929688 114.445312 67.660156 114.902344 67.46875 C 115.359375 67.28125 115.835938 67.1875 116.332031 67.1875 C 116.828125 67.1875 117.304688 67.28125 117.761719 67.46875 C 118.21875 67.660156 118.621094 67.929688 118.972656 68.277344 C 119.324219 68.625 119.59375 69.03125 119.785156 69.488281 C 119.972656 69.941406 120.066406 70.417969 120.066406 70.914062 Z M 120.066406 70.914062 " fill-opacity="1" fill-rule="nonzero"/><path fill="#ffce0a" d="M 142.488281 70.914062 C 142.488281 71.40625 142.390625 71.882812 142.203125 72.339844 C 142.011719 72.796875 141.742188 73.199219 141.390625 73.546875 C 141.042969 73.898438 140.636719 74.167969 140.179688 74.355469 C 139.722656 74.542969 139.246094 74.640625 138.75 74.640625 C 138.253906 74.640625 137.777344 74.542969 137.320312 74.355469 C 136.863281 74.167969 136.457031 73.898438 136.109375 73.546875 C 135.757812 73.199219 135.488281 72.796875 135.296875 72.339844 C 135.109375 71.882812 135.011719 71.40625 135.011719 70.914062 C 135.011719 70.417969 135.109375 69.941406 135.296875 69.488281 C 135.488281 69.03125 135.757812 68.625 136.109375 68.277344 C 136.457031 67.929688 136.863281 67.660156 137.320312 67.46875 C 137.777344 67.28125 138.253906 67.1875 138.75 67.1875 C 139.246094 67.1875 139.722656 67.28125 140.179688 67.46875 C 140.636719 67.660156 141.042969 67.929688 141.390625 68.277344 C 141.742188 68.625 142.011719 69.03125 142.203125 69.488281 C 142.390625 69.941406 142.488281 70.417969 142.488281 70.914062 Z M 142.488281 70.914062 " fill-opacity="1" fill-rule="nonzero"/><path fill="#ffce0a" d="M 164.90625 70.914062 C 164.90625 71.40625 164.808594 71.882812 164.621094 72.339844 C 164.429688 72.796875 164.160156 73.199219 163.8125 73.546875 C 163.460938 73.898438 163.054688 74.167969 162.597656 74.355469 C 162.140625 74.542969 161.664062 74.640625 161.167969 74.640625 C 160.671875 74.640625 160.195312 74.542969 159.738281 74.355469 C 159.28125 74.167969 158.878906 73.898438 158.527344 73.546875 C 158.175781 73.199219 157.90625 72.796875 157.714844 72.339844 C 157.527344 71.882812 157.433594 71.40625 157.433594 70.914062 C 157.433594 70.417969 157.527344 69.941406 157.714844 69.488281 C 157.90625 69.03125 158.175781 68.625 158.527344 68.277344 C 158.878906 67.929688 159.28125 67.660156 159.738281 67.46875 C 160.195312 67.28125 160.671875 67.1875 161.167969 67.1875 C 161.664062 67.1875 162.140625 67.28125 162.597656 67.46875 C 163.054688 67.660156 163.460938 67.929688 163.8125 68.277344 C 164.160156 68.625 164.429688 69.03125 164.621094 69.488281 C 164.808594 69.941406 164.90625 70.417969 164.90625 70.914062 Z M 164.90625 70.914062 " fill-opacity="1" fill-rule="nonzero"/><path fill="#ffce0a" d="M 187.324219 70.914062 C 187.324219 71.40625 187.230469 71.882812 187.039062 72.339844 C 186.851562 72.796875 186.578125 73.199219 186.230469 73.546875 C 185.878906 73.898438 185.476562 74.167969 185.015625 74.355469 C 184.558594 74.542969 184.082031 74.640625 183.585938 74.640625 C 183.09375 74.640625 182.617188 74.542969 182.15625 74.355469 C 181.699219 74.167969 181.296875 73.898438 180.945312 73.546875 C 180.59375 73.199219 180.324219 72.796875 180.136719 72.339844 C 179.945312 71.882812 179.851562 71.40625 179.851562 70.914062 C 179.851562 70.417969 179.945312 69.941406 180.136719 69.488281 C 180.324219 69.03125 180.59375 68.625 180.945312 68.277344 C 181.296875 67.929688 181.699219 67.660156 182.15625 67.46875 C 182.617188 67.28125 183.09375 67.1875 183.585938 67.1875 C 184.082031 67.1875 184.558594 67.28125 185.015625 67.46875 C 185.476562 67.660156 185.878906 67.929688 186.230469 68.277344 C 186.578125 68.625 186.851562 69.03125 187.039062 69.488281 C 187.230469 69.941406 187.324219 70.417969 187.324219 70.914062 Z M 187.324219 70.914062 " fill-opacity="1" fill-rule="nonzero"/><path fill="#ffce0a" d="M 209.742188 70.914062 C 209.742188 71.40625 209.648438 71.882812 209.457031 72.339844 C 209.269531 72.796875 209 73.199219 208.648438 73.546875 C 208.296875 73.898438 207.894531 74.167969 207.4375 74.355469 C 206.976562 74.542969 206.5 74.640625 206.007812 74.640625 C 205.511719 74.640625 205.035156 74.542969 204.578125 74.355469 C 204.117188 74.167969 203.714844 73.898438 203.363281 73.546875 C 203.011719 73.199219 202.742188 72.796875 202.554688 72.339844 C 202.363281 71.882812 202.269531 71.40625 202.269531 70.914062 C 202.269531 70.417969 202.363281 69.941406 202.554688 69.488281 C 202.742188 69.03125 203.011719 68.625 203.363281 68.277344 C 203.714844 67.929688 204.117188 67.660156 204.578125 67.46875 C 205.035156 67.28125 205.511719 67.1875 206.007812 67.1875 C 206.5 67.1875 206.976562 67.28125 207.4375 67.46875 C 207.894531 67.660156 208.296875 67.929688 208.648438 68.277344 C 209 68.625 209.269531 69.03125 209.457031 69.488281 C 209.648438 69.941406 209.742188 70.417969 209.742188 70.914062 Z M 209.742188 70.914062 " fill-opacity="1" fill-rule="nonzero"/><path fill="#ffce0a" d="M 232.160156 70.914062 C 232.160156 71.40625 232.066406 71.882812 231.875 72.339844 C 231.6875 72.796875 231.417969 73.199219 231.066406 73.546875 C 230.714844 73.898438 230.3125 74.167969 229.855469 74.355469 C 229.398438 74.542969 228.921875 74.640625 228.425781 74.640625 C 227.929688 74.640625 227.453125 74.542969 226.996094 74.355469 C 226.539062 74.167969 226.132812 73.898438 225.78125 73.546875 C 225.433594 73.199219 225.164062 72.796875 224.972656 72.339844 C 224.78125 71.882812 224.6875 71.40625 224.6875 70.914062 C 224.6875 70.417969 224.78125 69.941406 224.972656 69.488281 C 225.164062 69.03125 225.433594 68.625 225.78125 68.277344 C 226.132812 67.929688 226.539062 67.660156 226.996094 67.46875 C 227.453125 67.28125 227.929688 67.1875 228.425781 67.1875 C 228.921875 67.1875 229.398438 67.28125 229.855469 67.46875 C 230.3125 67.660156 230.714844 67.929688 231.066406 68.277344 C 231.417969 68.625 231.6875 69.03125 231.875 69.488281 C 232.066406 69.941406 232.160156 70.417969 232.160156 70.914062 Z M 232.160156 70.914062 " fill-opacity="1" fill-rule="nonzero"/><path fill="#ffce0a" d="M 254.578125 70.914062 C 254.578125 71.40625 254.484375 71.882812 254.296875 72.339844 C 254.105469 72.796875 253.835938 73.199219 253.484375 73.546875 C 253.136719 73.898438 252.730469 74.167969 252.273438 74.355469 C 251.816406 74.542969 251.339844 74.640625 250.84375 74.640625 C 250.347656 74.640625 249.871094 74.542969 249.414062 74.355469 C 248.957031 74.167969 248.550781 73.898438 248.203125 73.546875 C 247.851562 73.199219 247.582031 72.796875 247.390625 72.339844 C 247.203125 71.882812 247.105469 71.40625 247.105469 70.914062 C 247.105469 70.417969 247.203125 69.941406 247.390625 69.488281 C 247.582031 69.03125 247.851562 68.625 248.203125 68.277344 C 248.550781 67.929688 248.957031 67.660156 249.414062 67.46875 C 249.871094 67.28125 250.347656 67.1875 250.84375 67.1875 C 251.339844 67.1875 251.816406 67.28125 252.273438 67.46875 C 252.730469 67.660156 253.136719 67.929688 253.484375 68.277344 C 253.835938 68.625 254.105469 69.03125 254.296875 69.488281 C 254.484375 69.941406 254.578125 70.417969 254.578125 70.914062 Z M 254.578125 70.914062 " fill-opacity="1" fill-rule="nonzero"/><path fill="#ffce0a" d="M 277 70.914062 C 277 71.40625 276.902344 71.882812 276.714844 72.339844 C 276.523438 72.796875 276.253906 73.199219 275.902344 73.546875 C 275.554688 73.898438 275.148438 74.167969 274.691406 74.355469 C 274.234375 74.542969 273.757812 74.640625 273.261719 74.640625 C 272.765625 74.640625 272.289062 74.542969 271.832031 74.355469 C 271.375 74.167969 270.96875 73.898438 270.621094 73.546875 C 270.269531 73.199219 270 72.796875 269.808594 72.339844 C 269.621094 71.882812 269.527344 71.40625 269.527344 70.914062 C 269.527344 70.417969 269.621094 69.941406 269.808594 69.488281 C 270 69.03125 270.269531 68.625 270.621094 68.277344 C 270.96875 67.929688 271.375 67.660156 271.832031 67.46875 C 272.289062 67.28125 272.765625 67.1875 273.261719 67.1875 C 273.757812 67.1875 274.234375 67.28125 274.691406 67.46875 C 275.148438 67.660156 275.554688 67.929688 275.902344 68.277344 C 276.253906 68.625 276.523438 69.03125 276.714844 69.488281 C 276.902344 69.941406 277 70.417969 277 70.914062 Z M 277 70.914062 " fill-opacity="1" fill-rule="nonzero"/><path fill="#5e17eb" d="M 7.972656 93.273438 C 7.972656 93.765625 7.878906 94.242188 7.691406 94.699219 C 7.5 95.15625 7.230469 95.558594 6.878906 95.90625 C 6.53125 96.257812 6.125 96.527344 5.667969 96.714844 C 5.210938 96.902344 4.734375 97 4.238281 97 C 3.742188 97 3.265625 96.902344 2.808594 96.714844 C 2.351562 96.527344 1.945312 96.257812 1.597656 95.90625 C 1.246094 95.558594 0.976562 95.15625 0.785156 94.699219 C 0.597656 94.242188 0.5 93.765625 0.5 93.273438 C 0.5 92.777344 0.597656 92.300781 0.785156 91.847656 C 0.976562 91.390625 1.246094 90.984375 1.597656 90.636719 C 1.945312 90.289062 2.351562 90.019531 2.808594 89.828125 C 3.265625 89.640625 3.742188 89.546875 4.238281 89.546875 C 4.734375 89.546875 5.210938 89.640625 5.667969 89.828125 C 6.125 90.019531 6.53125 90.289062 6.878906 90.636719 C 7.230469 90.984375 7.5 91.390625 7.691406 91.847656 C 7.878906 92.300781 7.972656 92.777344 7.972656 93.273438 Z M 7.972656 93.273438 " fill-opacity="1" fill-rule="nonzero"/><path fill="#5e17eb" d="M 30.394531 93.273438 C 30.394531 93.765625 30.296875 94.242188 30.109375 94.699219 C 29.917969 95.15625 29.648438 95.558594 29.296875 95.90625 C 28.949219 96.257812 28.542969 96.527344 28.085938 96.714844 C 27.628906 96.902344 27.152344 97 26.65625 97 C 26.160156 97 25.683594 96.902344 25.226562 96.714844 C 24.769531 96.527344 24.363281 96.257812 24.015625 95.90625 C 23.664062 95.558594 23.394531 95.15625 23.203125 94.699219 C 23.015625 94.242188 22.921875 93.765625 22.921875 93.273438 C 22.921875 92.777344 23.015625 92.300781 23.203125 91.847656 C 23.394531 91.390625 23.664062 90.984375 24.015625 90.636719 C 24.363281 90.289062 24.769531 90.019531 25.226562 89.828125 C 25.683594 89.640625 26.160156 89.546875 26.65625 89.546875 C 27.152344 89.546875 27.628906 89.640625 28.085938 89.828125 C 28.542969 90.019531 28.949219 90.289062 29.296875 90.636719 C 29.648438 90.984375 29.917969 91.390625 30.109375 91.847656 C 30.296875 92.300781 30.394531 92.777344 30.394531 93.273438 Z M 30.394531 93.273438 " fill-opacity="1" fill-rule="nonzero"/><path fill="#5e17eb" d="M 52.8125 93.273438 C 52.8125 93.765625 52.71875 94.242188 52.527344 94.699219 C 52.335938 95.15625 52.066406 95.558594 51.71875 95.90625 C 51.367188 96.257812 50.960938 96.527344 50.503906 96.714844 C 50.046875 96.902344 49.570312 97 49.074219 97 C 48.578125 97 48.101562 96.902344 47.644531 96.714844 C 47.1875 96.527344 46.785156 96.257812 46.433594 95.90625 C 46.082031 95.558594 45.8125 95.15625 45.625 94.699219 C 45.433594 94.242188 45.339844 93.765625 45.339844 93.273438 C 45.339844 92.777344 45.433594 92.300781 45.625 91.847656 C 45.8125 91.390625 46.082031 90.984375 46.433594 90.636719 C 46.785156 90.289062 47.1875 90.019531 47.644531 89.828125 C 48.101562 89.640625 48.578125 89.546875 49.074219 89.546875 C 49.570312 89.546875 50.046875 89.640625 50.503906 89.828125 C 50.960938 90.019531 51.367188 90.289062 51.71875 90.636719 C 52.066406 90.984375 52.335938 91.390625 52.527344 91.847656 C 52.71875 92.300781 52.8125 92.777344 52.8125 93.273438 Z M 52.8125 93.273438 " fill-opacity="1" fill-rule="nonzero"/><path fill="#5e17eb" d="M 75.230469 93.273438 C 75.230469 93.765625 75.136719 94.242188 74.945312 94.699219 C 74.757812 95.15625 74.484375 95.558594 74.136719 95.90625 C 73.785156 96.257812 73.382812 96.527344 72.921875 96.714844 C 72.464844 96.902344 71.988281 97 71.492188 97 C 71 97 70.523438 96.902344 70.0625 96.714844 C 69.605469 96.527344 69.203125 96.257812 68.851562 95.90625 C 68.5 95.558594 68.230469 95.15625 68.042969 94.699219 C 67.851562 94.242188 67.757812 93.765625 67.757812 93.273438 C 67.757812 92.777344 67.851562 92.300781 68.042969 91.847656 C 68.230469 91.390625 68.5 90.984375 68.851562 90.636719 C 69.203125 90.289062 69.605469 90.019531 70.0625 89.828125 C 70.523438 89.640625 71 89.546875 71.492188 89.546875 C 71.988281 89.546875 72.464844 89.640625 72.921875 89.828125 C 73.382812 90.019531 73.785156 90.289062 74.136719 90.636719 C 74.484375 90.984375 74.757812 91.390625 74.945312 91.847656 C 75.136719 92.300781 75.230469 92.777344 75.230469 93.273438 Z M 75.230469 93.273438 " fill-opacity="1" fill-rule="nonzero"/><path fill="#5e17eb" d="M 97.648438 93.273438 C 97.648438 93.765625 97.554688 94.242188 97.363281 94.699219 C 97.175781 95.15625 96.90625 95.558594 96.554688 95.90625 C 96.203125 96.257812 95.800781 96.527344 95.34375 96.714844 C 94.882812 96.902344 94.40625 97 93.914062 97 C 93.417969 97 92.941406 96.902344 92.484375 96.714844 C 92.023438 96.527344 91.621094 96.257812 91.269531 95.90625 C 90.921875 95.558594 90.648438 95.15625 90.460938 94.699219 C 90.269531 94.242188 90.175781 93.765625 90.175781 93.273438 C 90.175781 92.777344 90.269531 92.300781 90.460938 91.847656 C 90.648438 91.390625 90.921875 90.984375 91.269531 90.636719 C 91.621094 90.289062 92.023438 90.019531 92.484375 89.828125 C 92.941406 89.640625 93.417969 89.546875 93.914062 89.546875 C 94.40625 89.546875 94.882812 89.640625 95.34375 89.828125 C 95.800781 90.019531 96.203125 90.289062 96.554688 90.636719 C 96.90625 90.984375 97.175781 91.390625 97.363281 91.847656 C 97.554688 92.300781 97.648438 92.777344 97.648438 93.273438 Z M 97.648438 93.273438 " fill-opacity="1" fill-rule="nonzero"/><path fill="#5e17eb" d="M 120.066406 93.273438 C 120.066406 93.765625 119.972656 94.242188 119.785156 94.699219 C 119.59375 95.15625 119.324219 95.558594 118.972656 95.90625 C 118.621094 96.257812 118.21875 96.527344 117.761719 96.714844 C 117.304688 96.902344 116.828125 97 116.332031 97 C 115.835938 97 115.359375 96.902344 114.902344 96.714844 C 114.445312 96.527344 114.039062 96.257812 113.6875 95.90625 C 113.339844 95.558594 113.070312 95.15625 112.878906 94.699219 C 112.691406 94.242188 112.59375 93.765625 112.59375 93.273438 C 112.59375 92.777344 112.691406 92.300781 112.878906 91.847656 C 113.070312 91.390625 113.339844 90.984375 113.6875 90.636719 C 114.039062 90.289062 114.445312 90.019531 114.902344 89.828125 C 115.359375 89.640625 115.835938 89.546875 116.332031 89.546875 C 116.828125 89.546875 117.304688 89.640625 117.761719 89.828125 C 118.21875 90.019531 118.621094 90.289062 118.972656 90.636719 C 119.324219 90.984375 119.59375 91.390625 119.785156 91.847656 C 119.972656 92.300781 120.066406 92.777344 120.066406 93.273438 Z M 120.066406 93.273438 " fill-opacity="1" fill-rule="nonzero"/><path fill="#5e17eb" d="M 142.488281 93.273438 C 142.488281 93.765625 142.390625 94.242188 142.203125 94.699219 C 142.011719 95.15625 141.742188 95.558594 141.390625 95.90625 C 141.042969 96.257812 140.636719 96.527344 140.179688 96.714844 C 139.722656 96.902344 139.246094 97 138.75 97 C 138.253906 97 137.777344 96.902344 137.320312 96.714844 C 136.863281 96.527344 136.457031 96.257812 136.109375 95.90625 C 135.757812 95.558594 135.488281 95.15625 135.296875 94.699219 C 135.109375 94.242188 135.011719 93.765625 135.011719 93.273438 C 135.011719 92.777344 135.109375 92.300781 135.296875 91.847656 C 135.488281 91.390625 135.757812 90.984375 136.109375 90.636719 C 136.457031 90.289062 136.863281 90.019531 137.320312 89.828125 C 137.777344 89.640625 138.253906 89.546875 138.75 89.546875 C 139.246094 89.546875 139.722656 89.640625 140.179688 89.828125 C 140.636719 90.019531 141.042969 90.289062 141.390625 90.636719 C 141.742188 90.984375 142.011719 91.390625 142.203125 91.847656 C 142.390625 92.300781 142.488281 92.777344 142.488281 93.273438 Z M 142.488281 93.273438 " fill-opacity="1" fill-rule="nonzero"/><path fill="#ffce0a" d="M 164.90625 93.273438 C 164.90625 93.765625 164.808594 94.242188 164.621094 94.699219 C 164.429688 95.15625 164.160156 95.558594 163.8125 95.90625 C 163.460938 96.257812 163.054688 96.527344 162.597656 96.714844 C 162.140625 96.902344 161.664062 97 161.167969 97 C 160.671875 97 160.195312 96.902344 159.738281 96.714844 C 159.28125 96.527344 158.878906 96.257812 158.527344 95.90625 C 158.175781 95.558594 157.90625 95.15625 157.714844 94.699219 C 157.527344 94.242188 157.433594 93.765625 157.433594 93.273438 C 157.433594 92.777344 157.527344 92.300781 157.714844 91.847656 C 157.90625 91.390625 158.175781 90.984375 158.527344 90.636719 C 158.878906 90.289062 159.28125 90.019531 159.738281 89.828125 C 160.195312 89.640625 160.671875 89.546875 161.167969 89.546875 C 161.664062 89.546875 162.140625 89.640625 162.597656 89.828125 C 163.054688 90.019531 163.460938 90.289062 163.8125 90.636719 C 164.160156 90.984375 164.429688 91.390625 164.621094 91.847656 C 164.808594 92.300781 164.90625 92.777344 164.90625 93.273438 Z M 164.90625 93.273438 " fill-opacity="1" fill-rule="nonzero"/><path fill="#ffce0a" d="M 187.324219 93.273438 C 187.324219 93.765625 187.230469 94.242188 187.039062 94.699219 C 186.851562 95.15625 186.578125 95.558594 186.230469 95.90625 C 185.878906 96.257812 185.476562 96.527344 185.015625 96.714844 C 184.558594 96.902344 184.082031 97 183.585938 97 C 183.09375 97 182.617188 96.902344 182.15625 96.714844 C 181.699219 96.527344 181.296875 96.257812 180.945312 95.90625 C 180.59375 95.558594 180.324219 95.15625 180.136719 94.699219 C 179.945312 94.242188 179.851562 93.765625 179.851562 93.273438 C 179.851562 92.777344 179.945312 92.300781 180.136719 91.847656 C 180.324219 91.390625 180.59375 90.984375 180.945312 90.636719 C 181.296875 90.289062 181.699219 90.019531 182.15625 89.828125 C 182.617188 89.640625 183.09375 89.546875 183.585938 89.546875 C 184.082031 89.546875 184.558594 89.640625 185.015625 89.828125 C 185.476562 90.019531 185.878906 90.289062 186.230469 90.636719 C 186.578125 90.984375 186.851562 91.390625 187.039062 91.847656 C 187.230469 92.300781 187.324219 92.777344 187.324219 93.273438 Z M 187.324219 93.273438 " fill-opacity="1" fill-rule="nonzero"/><path fill="#ffce0a" d="M 209.742188 93.273438 C 209.742188 93.765625 209.648438 94.242188 209.457031 94.699219 C 209.269531 95.15625 209 95.558594 208.648438 95.90625 C 208.296875 96.257812 207.894531 96.527344 207.4375 96.714844 C 206.976562 96.902344 206.5 97 206.007812 97 C 205.511719 97 205.035156 96.902344 204.578125 96.714844 C 204.117188 96.527344 203.714844 96.257812 203.363281 95.90625 C 203.011719 95.558594 202.742188 95.15625 202.554688 94.699219 C 202.363281 94.242188 202.269531 93.765625 202.269531 93.273438 C 202.269531 92.777344 202.363281 92.300781 202.554688 91.847656 C 202.742188 91.390625 203.011719 90.984375 203.363281 90.636719 C 203.714844 90.289062 204.117188 90.019531 204.578125 89.828125 C 205.035156 89.640625 205.511719 89.546875 206.007812 89.546875 C 206.5 89.546875 206.976562 89.640625 207.4375 89.828125 C 207.894531 90.019531 208.296875 90.289062 208.648438 90.636719 C 209 90.984375 209.269531 91.390625 209.457031 91.847656 C 209.648438 92.300781 209.742188 92.777344 209.742188 93.273438 Z M 209.742188 93.273438 " fill-opacity="1" fill-rule="nonzero"/><path fill="#ffce0a" d="M 232.160156 93.273438 C 232.160156 93.765625 232.066406 94.242188 231.875 94.699219 C 231.6875 95.15625 231.417969 95.558594 231.066406 95.90625 C 230.714844 96.257812 230.3125 96.527344 229.855469 96.714844 C 229.398438 96.902344 228.921875 97 228.425781 97 C 227.929688 97 227.453125 96.902344 226.996094 96.714844 C 226.539062 96.527344 226.132812 96.257812 225.78125 95.90625 C 225.433594 95.558594 225.164062 95.15625 224.972656 94.699219 C 224.78125 94.242188 224.6875 93.765625 224.6875 93.273438 C 224.6875 92.777344 224.78125 92.300781 224.972656 91.847656 C 225.164062 91.390625 225.433594 90.984375 225.78125 90.636719 C 226.132812 90.289062 226.539062 90.019531 226.996094 89.828125 C 227.453125 89.640625 227.929688 89.546875 228.425781 89.546875 C 228.921875 89.546875 229.398438 89.640625 229.855469 89.828125 C 230.3125 90.019531 230.714844 90.289062 231.066406 90.636719 C 231.417969 90.984375 231.6875 91.390625 231.875 91.847656 C 232.066406 92.300781 232.160156 92.777344 232.160156 93.273438 Z M 232.160156 93.273438 " fill-opacity="1" fill-rule="nonzero"/><path fill="#ffce0a" d="M 254.578125 93.273438 C 254.578125 93.765625 254.484375 94.242188 254.296875 94.699219 C 254.105469 95.15625 253.835938 95.558594 253.484375 95.90625 C 253.136719 96.257812 252.730469 96.527344 252.273438 96.714844 C 251.816406 96.902344 251.339844 97 250.84375 97 C 250.347656 97 249.871094 96.902344 249.414062 96.714844 C 248.957031 96.527344 248.550781 96.257812 248.203125 95.90625 C 247.851562 95.558594 247.582031 95.15625 247.390625 94.699219 C 247.203125 94.242188 247.105469 93.765625 247.105469 93.273438 C 247.105469 92.777344 247.203125 92.300781 247.390625 91.847656 C 247.582031 91.390625 247.851562 90.984375 248.203125 90.636719 C 248.550781 90.289062 248.957031 90.019531 249.414062 89.828125 C 249.871094 89.640625 250.347656 89.546875 250.84375 89.546875 C 251.339844 89.546875 251.816406 89.640625 252.273438 89.828125 C 252.730469 90.019531 253.136719 90.289062 253.484375 90.636719 C 253.835938 90.984375 254.105469 91.390625 254.296875 91.847656 C 254.484375 92.300781 254.578125 92.777344 254.578125 93.273438 Z M 254.578125 93.273438 " fill-opacity="1" fill-rule="nonzero"/><path fill="#ffce0a" d="M 277 93.273438 C 277 93.765625 276.902344 94.242188 276.714844 94.699219 C 276.523438 95.15625 276.253906 95.558594 275.902344 95.90625 C 275.554688 96.257812 275.148438 96.527344 274.691406 96.714844 C 274.234375 96.902344 273.757812 97 273.261719 97 C 272.765625 97 272.289062 96.902344 271.832031 96.714844 C 271.375 96.527344 270.96875 96.257812 270.621094 95.90625 C 270.269531 95.558594 270 95.15625 269.808594 94.699219 C 269.621094 94.242188 269.527344 93.765625 269.527344 93.273438 C 269.527344 92.777344 269.621094 92.300781 269.808594 91.847656 C 270 91.390625 270.269531 90.984375 270.621094 90.636719 C 270.96875 90.289062 271.375 90.019531 271.832031 89.828125 C 272.289062 89.640625 272.765625 89.546875 273.261719 89.546875 C 273.757812 89.546875 274.234375 89.640625 274.691406 89.828125 C 275.148438 90.019531 275.554688 90.289062 275.902344 90.636719 C 276.253906 90.984375 276.523438 91.390625 276.714844 91.847656 C 276.902344 92.300781 277 92.777344 277 93.273438 Z M 277 93.273438 " fill-opacity="1" fill-rule="nonzero"/><g clip-path="url(#501dd13afa)"><path fill="#5e17eb" d="M 7.972656 115.632812 C 7.972656 116.125 7.878906 116.601562 7.691406 117.058594 C 7.5 117.515625 7.230469 117.917969 6.878906 118.265625 C 6.53125 118.617188 6.125 118.886719 5.667969 119.074219 C 5.210938 119.261719 4.734375 119.359375 4.238281 119.359375 C 3.742188 119.359375 3.265625 119.261719 2.808594 119.074219 C 2.351562 118.886719 1.945312 118.617188 1.597656 118.265625 C 1.246094 117.917969 0.976562 117.515625 0.785156 117.058594 C 0.597656 116.601562 0.5 116.125 0.5 115.632812 C 0.5 115.136719 0.597656 114.660156 0.785156 114.207031 C 0.976562 113.75 1.246094 113.34375 1.597656 112.996094 C 1.945312 112.648438 2.351562 112.378906 2.808594 112.1875 C 3.265625 112 3.742188 111.90625 4.238281 111.90625 C 4.734375 111.90625 5.210938 112 5.667969 112.1875 C 6.125 112.378906 6.53125 112.648438 6.878906 112.996094 C 7.230469 113.34375 7.5 113.75 7.691406 114.207031 C 7.878906 114.660156 7.972656 115.136719 7.972656 115.632812 Z M 7.972656 115.632812 " fill-opacity="1" fill-rule="nonzero"/></g><g clip-path="url(#bac3f3936c)"><path fill="#5e17eb" d="M 30.394531 115.632812 C 30.394531 116.125 30.296875 116.601562 30.109375 117.058594 C 29.917969 117.515625 29.648438 117.917969 29.296875 118.265625 C 28.949219 118.617188 28.542969 118.886719 28.085938 119.074219 C 27.628906 119.261719 27.152344 119.359375 26.65625 119.359375 C 26.160156 119.359375 25.683594 119.261719 25.226562 119.074219 C 24.769531 118.886719 24.363281 118.617188 24.015625 118.265625 C 23.664062 117.917969 23.394531 117.515625 23.203125 117.058594 C 23.015625 116.601562 22.921875 116.125 22.921875 115.632812 C 22.921875 115.136719 23.015625 114.660156 23.203125 114.207031 C 23.394531 113.75 23.664062 113.34375 24.015625 112.996094 C 24.363281 112.648438 24.769531 112.378906 25.226562 112.1875 C 25.683594 112 26.160156 111.90625 26.65625 111.90625 C 27.152344 111.90625 27.628906 112 28.085938 112.1875 C 28.542969 112.378906 28.949219 112.648438 29.296875 112.996094 C 29.648438 113.34375 29.917969 113.75 30.109375 114.207031 C 30.296875 114.660156 30.394531 115.136719 30.394531 115.632812 Z M 30.394531 115.632812 " fill-opacity="1" fill-rule="nonzero"/></g><g clip-path="url(#7b42b1487d)"><path fill="#5e17eb" d="M 52.8125 115.632812 C 52.8125 116.125 52.71875 116.601562 52.527344 117.058594 C 52.335938 117.515625 52.066406 117.917969 51.71875 118.265625 C 51.367188 118.617188 50.960938 118.886719 50.503906 119.074219 C 50.046875 119.261719 49.570312 119.359375 49.074219 119.359375 C 48.578125 119.359375 48.101562 119.261719 47.644531 119.074219 C 47.1875 118.886719 46.785156 118.617188 46.433594 118.265625 C 46.082031 117.917969 45.8125 117.515625 45.625 117.058594 C 45.433594 116.601562 45.339844 116.125 45.339844 115.632812 C 45.339844 115.136719 45.433594 114.660156 45.625 114.207031 C 45.8125 113.75 46.082031 113.34375 46.433594 112.996094 C 46.785156 112.648438 47.1875 112.378906 47.644531 112.1875 C 48.101562 112 48.578125 111.90625 49.074219 111.90625 C 49.570312 111.90625 50.046875 112 50.503906 112.1875 C 50.960938 112.378906 51.367188 112.648438 51.71875 112.996094 C 52.066406 113.34375 52.335938 113.75 52.527344 114.207031 C 52.71875 114.660156 52.8125 115.136719 52.8125 115.632812 Z M 52.8125 115.632812 " fill-opacity="1" fill-rule="nonzero"/></g><g clip-path="url(#469054f862)"><path fill="#5e17eb" d="M 75.230469 115.632812 C 75.230469 116.125 75.136719 116.601562 74.945312 117.058594 C 74.757812 117.515625 74.484375 117.917969 74.136719 118.265625 C 73.785156 118.617188 73.382812 118.886719 72.921875 119.074219 C 72.464844 119.261719 71.988281 119.359375 71.492188 119.359375 C 71 119.359375 70.523438 119.261719 70.0625 119.074219 C 69.605469 118.886719 69.203125 118.617188 68.851562 118.265625 C 68.5 117.917969 68.230469 117.515625 68.042969 117.058594 C 67.851562 116.601562 67.757812 116.125 67.757812 115.632812 C 67.757812 115.136719 67.851562 114.660156 68.042969 114.207031 C 68.230469 113.75 68.5 113.34375 68.851562 112.996094 C 69.203125 112.648438 69.605469 112.378906 70.0625 112.1875 C 70.523438 112 71 111.90625 71.492188 111.90625 C 71.988281 111.90625 72.464844 112 72.921875 112.1875 C 73.382812 112.378906 73.785156 112.648438 74.136719 112.996094 C 74.484375 113.34375 74.757812 113.75 74.945312 114.207031 C 75.136719 114.660156 75.230469 115.136719 75.230469 115.632812 Z M 75.230469 115.632812 " fill-opacity="1" fill-rule="nonzero"/></g><g clip-path="url(#fb4df2dfd1)"><path fill="#5e17eb" d="M 97.648438 115.632812 C 97.648438 116.125 97.554688 116.601562 97.363281 117.058594 C 97.175781 117.515625 96.90625 117.917969 96.554688 118.265625 C 96.203125 118.617188 95.800781 118.886719 95.34375 119.074219 C 94.882812 119.261719 94.40625 119.359375 93.914062 119.359375 C 93.417969 119.359375 92.941406 119.261719 92.484375 119.074219 C 92.023438 118.886719 91.621094 118.617188 91.269531 118.265625 C 90.921875 117.917969 90.648438 117.515625 90.460938 117.058594 C 90.269531 116.601562 90.175781 116.125 90.175781 115.632812 C 90.175781 115.136719 90.269531 114.660156 90.460938 114.207031 C 90.648438 113.75 90.921875 113.34375 91.269531 112.996094 C 91.621094 112.648438 92.023438 112.378906 92.484375 112.1875 C 92.941406 112 93.417969 111.90625 93.914062 111.90625 C 94.40625 111.90625 94.882812 112 95.34375 112.1875 C 95.800781 112.378906 96.203125 112.648438 96.554688 112.996094 C 96.90625 113.34375 97.175781 113.75 97.363281 114.207031 C 97.554688 114.660156 97.648438 115.136719 97.648438 115.632812 Z M 97.648438 115.632812 " fill-opacity="1" fill-rule="nonzero"/></g><g clip-path="url(#3c8dbc129b)"><path fill="#5e17eb" d="M 120.066406 115.632812 C 120.066406 116.125 119.972656 116.601562 119.785156 117.058594 C 119.59375 117.515625 119.324219 117.917969 118.972656 118.265625 C 118.621094 118.617188 118.21875 118.886719 117.761719 119.074219 C 117.304688 119.261719 116.828125 119.359375 116.332031 119.359375 C 115.835938 119.359375 115.359375 119.261719 114.902344 119.074219 C 114.445312 118.886719 114.039062 118.617188 113.6875 118.265625 C 113.339844 117.917969 113.070312 117.515625 112.878906 117.058594 C 112.691406 116.601562 112.59375 116.125 112.59375 115.632812 C 112.59375 115.136719 112.691406 114.660156 112.878906 114.207031 C 113.070312 113.75 113.339844 113.34375 113.6875 112.996094 C 114.039062 112.648438 114.445312 112.378906 114.902344 112.1875 C 115.359375 112 115.835938 111.90625 116.332031 111.90625 C 116.828125 111.90625 117.304688 112 117.761719 112.1875 C 118.21875 112.378906 118.621094 112.648438 118.972656 112.996094 C 119.324219 113.34375 119.59375 113.75 119.785156 114.207031 C 119.972656 114.660156 120.066406 115.136719 120.066406 115.632812 Z M 120.066406 115.632812 " fill-opacity="1" fill-rule="nonzero"/></g><g clip-path="url(#b0e8b3eed4)"><path fill="#5e17eb" d="M 142.488281 115.632812 C 142.488281 116.125 142.390625 116.601562 142.203125 117.058594 C 142.011719 117.515625 141.742188 117.917969 141.390625 118.265625 C 141.042969 118.617188 140.636719 118.886719 140.179688 119.074219 C 139.722656 119.261719 139.246094 119.359375 138.75 119.359375 C 138.253906 119.359375 137.777344 119.261719 137.320312 119.074219 C 136.863281 118.886719 136.457031 118.617188 136.109375 118.265625 C 135.757812 117.917969 135.488281 117.515625 135.296875 117.058594 C 135.109375 116.601562 135.011719 116.125 135.011719 115.632812 C 135.011719 115.136719 135.109375 114.660156 135.296875 114.207031 C 135.488281 113.75 135.757812 113.34375 136.109375 112.996094 C 136.457031 112.648438 136.863281 112.378906 137.320312 112.1875 C 137.777344 112 138.253906 111.90625 138.75 111.90625 C 139.246094 111.90625 139.722656 112 140.179688 112.1875 C 140.636719 112.378906 141.042969 112.648438 141.390625 112.996094 C 141.742188 113.34375 142.011719 113.75 142.203125 114.207031 C 142.390625 114.660156 142.488281 115.136719 142.488281 115.632812 Z M 142.488281 115.632812 " fill-opacity="1" fill-rule="nonzero"/></g><g clip-path="url(#f4cb2044ae)"><path fill="#5e17eb" d="M 164.90625 115.632812 C 164.90625 116.125 164.808594 116.601562 164.621094 117.058594 C 164.429688 117.515625 164.160156 117.917969 163.8125 118.265625 C 163.460938 118.617188 163.054688 118.886719 162.597656 119.074219 C 162.140625 119.261719 161.664062 119.359375 161.167969 119.359375 C 160.671875 119.359375 160.195312 119.261719 159.738281 119.074219 C 159.28125 118.886719 158.878906 118.617188 158.527344 118.265625 C 158.175781 117.917969 157.90625 117.515625 157.714844 117.058594 C 157.527344 116.601562 157.433594 116.125 157.433594 115.632812 C 157.433594 115.136719 157.527344 114.660156 157.714844 114.207031 C 157.90625 113.75 158.175781 113.34375 158.527344 112.996094 C 158.878906 112.648438 159.28125 112.378906 159.738281 112.1875 C 160.195312 112 160.671875 111.90625 161.167969 111.90625 C 161.664062 111.90625 162.140625 112 162.597656 112.1875 C 163.054688 112.378906 163.460938 112.648438 163.8125 112.996094 C 164.160156 113.34375 164.429688 113.75 164.621094 114.207031 C 164.808594 114.660156 164.90625 115.136719 164.90625 115.632812 Z M 164.90625 115.632812 " fill-opacity="1" fill-rule="nonzero"/></g><g clip-path="url(#8e4bab1eee)"><path fill="#ffce0a" d="M 187.324219 115.632812 C 187.324219 116.125 187.230469 116.601562 187.039062 117.058594 C 186.851562 117.515625 186.578125 117.917969 186.230469 118.265625 C 185.878906 118.617188 185.476562 118.886719 185.015625 119.074219 C 184.558594 119.261719 184.082031 119.359375 183.585938 119.359375 C 183.09375 119.359375 182.617188 119.261719 182.15625 119.074219 C 181.699219 118.886719 181.296875 118.617188 180.945312 118.265625 C 180.59375 117.917969 180.324219 117.515625 180.136719 117.058594 C 179.945312 116.601562 179.851562 116.125 179.851562 115.632812 C 179.851562 115.136719 179.945312 114.660156 180.136719 114.207031 C 180.324219 113.75 180.59375 113.34375 180.945312 112.996094 C 181.296875 112.648438 181.699219 112.378906 182.15625 112.1875 C 182.617188 112 183.09375 111.90625 183.585938 111.90625 C 184.082031 111.90625 184.558594 112 185.015625 112.1875 C 185.476562 112.378906 185.878906 112.648438 186.230469 112.996094 C 186.578125 113.34375 186.851562 113.75 187.039062 114.207031 C 187.230469 114.660156 187.324219 115.136719 187.324219 115.632812 Z M 187.324219 115.632812 " fill-opacity="1" fill-rule="nonzero"/></g><g clip-path="url(#ef56edb096)"><path fill="#ffce0a" d="M 209.742188 115.632812 C 209.742188 116.125 209.648438 116.601562 209.457031 117.058594 C 209.269531 117.515625 209 117.917969 208.648438 118.265625 C 208.296875 118.617188 207.894531 118.886719 207.4375 119.074219 C 206.976562 119.261719 206.5 119.359375 206.007812 119.359375 C 205.511719 119.359375 205.035156 119.261719 204.578125 119.074219 C 204.117188 118.886719 203.714844 118.617188 203.363281 118.265625 C 203.011719 117.917969 202.742188 117.515625 202.554688 117.058594 C 202.363281 116.601562 202.269531 116.125 202.269531 115.632812 C 202.269531 115.136719 202.363281 114.660156 202.554688 114.207031 C 202.742188 113.75 203.011719 113.34375 203.363281 112.996094 C 203.714844 112.648438 204.117188 112.378906 204.578125 112.1875 C 205.035156 112 205.511719 111.90625 206.007812 111.90625 C 206.5 111.90625 206.976562 112 207.4375 112.1875 C 207.894531 112.378906 208.296875 112.648438 208.648438 112.996094 C 209 113.34375 209.269531 113.75 209.457031 114.207031 C 209.648438 114.660156 209.742188 115.136719 209.742188 115.632812 Z M 209.742188 115.632812 " fill-opacity="1" fill-rule="nonzero"/></g><g clip-path="url(#1a17daffb5)"><path fill="#ffce0a" d="M 232.160156 115.632812 C 232.160156 116.125 232.066406 116.601562 231.875 117.058594 C 231.6875 117.515625 231.417969 117.917969 231.066406 118.265625 C 230.714844 118.617188 230.3125 118.886719 229.855469 119.074219 C 229.398438 119.261719 228.921875 119.359375 228.425781 119.359375 C 227.929688 119.359375 227.453125 119.261719 226.996094 119.074219 C 226.539062 118.886719 226.132812 118.617188 225.78125 118.265625 C 225.433594 117.917969 225.164062 117.515625 224.972656 117.058594 C 224.78125 116.601562 224.6875 116.125 224.6875 115.632812 C 224.6875 115.136719 224.78125 114.660156 224.972656 114.207031 C 225.164062 113.75 225.433594 113.34375 225.78125 112.996094 C 226.132812 112.648438 226.539062 112.378906 226.996094 112.1875 C 227.453125 112 227.929688 111.90625 228.425781 111.90625 C 228.921875 111.90625 229.398438 112 229.855469 112.1875 C 230.3125 112.378906 230.714844 112.648438 231.066406 112.996094 C 231.417969 113.34375 231.6875 113.75 231.875 114.207031 C 232.066406 114.660156 232.160156 115.136719 232.160156 115.632812 Z M 232.160156 115.632812 " fill-opacity="1" fill-rule="nonzero"/></g><g clip-path="url(#21db085090)"><path fill="#ffce0a" d="M 254.578125 115.632812 C 254.578125 116.125 254.484375 116.601562 254.296875 117.058594 C 254.105469 117.515625 253.835938 117.917969 253.484375 118.265625 C 253.136719 118.617188 252.730469 118.886719 252.273438 119.074219 C 251.816406 119.261719 251.339844 119.359375 250.84375 119.359375 C 250.347656 119.359375 249.871094 119.261719 249.414062 119.074219 C 248.957031 118.886719 248.550781 118.617188 248.203125 118.265625 C 247.851562 117.917969 247.582031 117.515625 247.390625 117.058594 C 247.203125 116.601562 247.105469 116.125 247.105469 115.632812 C 247.105469 115.136719 247.203125 114.660156 247.390625 114.207031 C 247.582031 113.75 247.851562 113.34375 248.203125 112.996094 C 248.550781 112.648438 248.957031 112.378906 249.414062 112.1875 C 249.871094 112 250.347656 111.90625 250.84375 111.90625 C 251.339844 111.90625 251.816406 112 252.273438 112.1875 C 252.730469 112.378906 253.136719 112.648438 253.484375 112.996094 C 253.835938 113.34375 254.105469 113.75 254.296875 114.207031 C 254.484375 114.660156 254.578125 115.136719 254.578125 115.632812 Z M 254.578125 115.632812 " fill-opacity="1" fill-rule="nonzero"/></g><g clip-path="url(#94d7aa1825)"><path fill="#ffce0a" d="M 277 115.632812 C 277 116.125 276.902344 116.601562 276.714844 117.058594 C 276.523438 117.515625 276.253906 117.917969 275.902344 118.265625 C 275.554688 118.617188 275.148438 118.886719 274.691406 119.074219 C 274.234375 119.261719 273.757812 119.359375 273.261719 119.359375 C 272.765625 119.359375 272.289062 119.261719 271.832031 119.074219 C 271.375 118.886719 270.96875 118.617188 270.621094 118.265625 C 270.269531 117.917969 270 117.515625 269.808594 117.058594 C 269.621094 116.601562 269.527344 116.125 269.527344 115.632812 C 269.527344 115.136719 269.621094 114.660156 269.808594 114.207031 C 270 113.75 270.269531 113.34375 270.621094 112.996094 C 270.96875 112.648438 271.375 112.378906 271.832031 112.1875 C 272.289062 112 272.765625 111.90625 273.261719 111.90625 C 273.757812 111.90625 274.234375 112 274.691406 112.1875 C 275.148438 112.378906 275.554688 112.648438 275.902344 112.996094 C 276.253906 113.34375 276.523438 113.75 276.714844 114.207031 C 276.902344 114.660156 277 115.136719 277 115.632812 Z M 277 115.632812 " fill-opacity="1" fill-rule="nonzero"/></g></svg>